<svg xmlns="http://www.w3.org/2000/svg" width="2200" height="2200" opacity=".048" fill-rule="evenodd" xmlns:v="https://vecta.io/nano"><path d="M1098.582 1599.924c-84.527-.148-170.159-21.762-248.615-67.059-239.106-138.048-321.03-443.792-182.982-682.898s443.792-321.03 682.898-182.982 321.03 443.792 182.982 682.898c-92.751 160.649-261.203 250.344-434.283 250.041zm-165.803-165.615a16 16 0 0 0 4.398-.619l63.426-18.145c4.187-1.147 7.686-4.09 9.74-7.932a15.67 15.67 0 0 0 .947-12.557c-13.952-41.366-36.875-72.472-56.168-93.088-9.871-10.698-20.845-21.103-32.691-29.621l-12.301-21.305a132.79 132.79 0 0 1-16.588-84.531c3.422-19.873 11.636-39.049 24.76-55.518l105.115-131.934c5.501-6.871 15.556-8.058 22.428-2.557s8.056 15.556 2.555 22.428l-105.115 131.934c-8.289 10.443-13.978 22.389-17.086 34.807l167.018-29.918c7.932-1.462 15.559-4.249 22.574-8.299a70.75 70.75 0 0 0 18.475-15.4l192.508-227.77c6.527-7.694 7.433-18.724 2.383-27.471s-15.007-13.393-24.984-11.674l-293.57 52.523a70.74 70.74 0 0 0-22.574 8.299 70.75 70.75 0 0 0-18.475 15.4l-192.27 227.979c-6.477 7.781-7.433 18.726-2.383 27.473s15.005 13.391 24.982 11.672l60.594-10.85a164.62 164.62 0 0 0 21.941 89.406l14.051 24.334c14.2 24.595 19.497 55.37 21.088 81.125.871 14.508.862 29.293-.686 43.813-.621 5.324 1.399 10.624 5.508 14.141 2.953 2.528 6.644 3.855 10.4 3.854zm123.049-89.947c39.604-.074 98.108-16.881 156.199-50.42 91.799-53 147.927-127.783 130.277-158.354l-85.951-118.27-97.447 115.613c-7.613 9.014-16.746 16.595-26.879 22.445s-21.351 10.019-32.877 12.055l-148.85 26.586 59.449 133.57c6.481 11.225 23.098 16.816 46.078 16.773zm1142.754 255.562c-84.527-.148-170.159-21.762-248.615-67.059-239.106-138.048-321.03-443.792-182.982-682.898s443.792-321.03 682.898-182.982 321.03 443.792 182.982 682.898c-92.751 160.649-261.203 250.344-434.283 250.041zm-165.803-165.615a16 16 0 0 0 4.398-.619l63.426-18.145c4.187-1.147 7.686-4.09 9.74-7.932s2.405-8.433.947-12.557c-13.952-41.366-36.875-72.472-56.168-93.088-9.871-10.698-20.845-21.103-32.691-29.621l-12.301-21.305a132.79 132.79 0 0 1-16.588-84.531c3.422-19.873 11.636-39.049 24.76-55.518l105.115-131.934c5.501-6.871 15.554-8.058 22.426-2.557s8.058 15.556 2.557 22.428l-105.115 131.934c-8.289 10.443-13.978 22.389-17.086 34.807l167.018-29.918c7.932-1.462 15.559-4.249 22.574-8.299a70.74 70.74 0 0 0 18.475-15.4l192.508-227.77c6.527-7.694 7.433-18.724 2.383-27.471s-15.007-13.393-24.984-11.674l-293.57 52.523c-7.932 1.462-15.559 4.249-22.574 8.299a70.75 70.75 0 0 0-18.475 15.4l-192.27 227.979c-6.477 7.781-7.435 18.726-2.385 27.473s15.007 13.391 24.984 11.672l60.594-10.85a164.62 164.62 0 0 0 21.941 89.406l14.051 24.334c14.2 24.595 19.497 55.37 21.088 81.125.871 14.508.862 29.293-.686 43.813-.621 5.324 1.399 10.624 5.508 14.141 2.953 2.528 6.644 3.855 10.4 3.854zm123.049-89.947c39.604-.074 98.108-16.881 156.199-50.42 91.799-53 147.927-127.783 130.277-158.354l-85.949-118.27-97.449 115.613c-7.613 9.014-16.746 16.595-26.879 22.445s-21.351 10.019-32.877 12.055l-148.85 26.586 59.449 133.57c6.481 11.225 23.098 16.816 46.078 16.773zM-1.418 1599.924c-84.527-.148-170.159-21.762-248.615-67.059-239.106-138.048-321.03-443.792-182.982-682.898s443.792-321.03 682.898-182.982 321.03 443.792 182.982 682.898c-92.751 160.649-261.203 250.344-434.283 250.041zm-165.803-165.615a16 16 0 0 0 4.398-.619l63.426-18.145c4.187-1.147 7.684-4.09 9.738-7.932a15.67 15.67 0 0 0 .949-12.557c-13.952-41.366-36.875-72.472-56.168-93.088-9.871-10.698-20.845-21.103-32.691-29.621l-12.301-21.305a132.79 132.79 0 0 1-16.588-84.531c3.422-19.873 11.636-39.049 24.76-55.518l105.115-131.934c5.501-6.871 15.556-8.058 22.428-2.557s8.056 15.556 2.555 22.428l-105.115 131.934c-8.289 10.443-13.978 22.389-17.086 34.807l167.018-29.918c7.932-1.462 15.559-4.249 22.574-8.299a70.75 70.75 0 0 0 18.475-15.4l192.508-227.77c6.527-7.694 7.433-18.724 2.383-27.471s-15.007-13.393-24.984-11.674l-293.57 52.523a70.74 70.74 0 0 0-22.574 8.299 70.75 70.75 0 0 0-18.475 15.4l-192.27 227.979c-6.477 7.781-7.433 18.726-2.383 27.473s15.005 13.391 24.982 11.672l60.594-10.85a164.62 164.62 0 0 0 21.941 89.406l14.051 24.334c14.2 24.595 19.497 55.37 21.088 81.125.871 14.508.862 29.293-.686 43.813-.621 5.324 1.399 10.624 5.508 14.141 2.953 2.528 6.644 3.855 10.4 3.854zm123.049-89.947c39.604-.074 98.108-16.881 156.199-50.42 91.799-53 147.927-127.783 130.277-158.354l-85.951-118.27-97.447 115.613c-7.613 9.014-16.746 16.595-26.879 22.445s-21.351 10.019-32.877 12.055l-148.85 26.586 59.449 133.57c6.481 11.225 23.098 16.816 46.078 16.773zm592.754-844.438c-84.527-.148-170.159-21.762-248.615-67.059C60.861 294.817-21.064-10.927 116.984-250.033s443.792-321.03 682.898-182.982 321.03 443.792 182.982 682.898c-92.751 160.649-261.203 250.344-434.283 250.041zM382.779 334.309a16 16 0 0 0 4.398-.619l63.426-18.145c4.187-1.147 7.686-4.09 9.74-7.932a15.67 15.67 0 0 0 .947-12.557c-13.952-41.366-36.875-72.472-56.168-93.088-9.871-10.698-20.845-21.103-32.691-29.621l-12.301-21.305a132.79 132.79 0 0 1-16.588-84.531c3.422-19.873 11.636-39.049 24.76-55.518l105.115-131.934c5.501-6.871 15.556-8.058 22.428-2.557s8.056 15.556 2.555 22.428L393.285 30.865c-8.289 10.443-13.978 22.389-17.086 34.807l167.018-29.918c7.932-1.462 15.559-4.249 22.574-8.299a70.75 70.75 0 0 0 18.475-15.4l192.508-227.77c6.527-7.694 7.433-18.724 2.383-27.471s-15.007-13.393-24.984-11.674l-293.57 52.523c-7.932 1.462-15.559 4.249-22.574 8.299a70.74 70.74 0 0 0-18.475 15.4L227.283 49.342c-6.477 7.781-7.433 18.726-2.383 27.473s15.005 13.391 24.982 11.672l60.594-10.85a164.62 164.62 0 0 0 21.941 89.406l14.051 24.334c14.2 24.595 19.497 55.37 21.088 81.125.871 14.508.862 29.293-.686 43.813-.621 5.324 1.399 10.624 5.508 14.141 2.953 2.528 6.644 3.855 10.4 3.854zm123.049-89.947c39.604-.074 98.108-16.881 156.199-50.42 91.799-53 147.927-127.783 130.277-158.354l-85.951-118.27-97.447 115.613c-7.613 9.014-16.746 16.595-26.879 22.445s-21.351 10.019-32.877 12.055L400.3 94.017l59.449 133.57c6.481 11.225 23.098 16.816 46.078 16.773zm1142.754 255.562c-84.527-.148-170.159-21.762-248.615-67.059-239.106-138.048-321.03-443.792-182.982-682.898s443.792-321.03 682.898-182.982 321.03 443.792 182.982 682.898c-92.751 160.649-261.203 250.344-434.283 250.041zm-165.803-165.615a16 16 0 0 0 4.398-.619l63.426-18.145c4.187-1.147 7.686-4.09 9.74-7.932a15.67 15.67 0 0 0 .947-12.557c-13.952-41.366-36.875-72.472-56.168-93.088-9.871-10.698-20.845-21.103-32.691-29.621l-12.301-21.305a132.79 132.79 0 0 1-16.588-84.531c3.422-19.873 11.636-39.049 24.76-55.518l105.115-131.934c5.501-6.871 15.556-8.058 22.428-2.557s8.056 15.556 2.555 22.428L1493.285 30.865c-8.289 10.443-13.978 22.389-17.086 34.807l167.018-29.918c7.932-1.462 15.559-4.249 22.574-8.299a70.75 70.75 0 0 0 18.475-15.4l192.508-227.77c6.527-7.694 7.433-18.724 2.383-27.471s-15.007-13.393-24.984-11.674l-293.57 52.523c-7.932 1.462-15.559 4.249-22.574 8.299a70.75 70.75 0 0 0-18.475 15.4l-192.27 227.979c-6.477 7.781-7.435 18.726-2.385 27.473s15.007 13.391 24.984 11.672l60.594-10.85a164.62 164.62 0 0 0 21.941 89.406l14.051 24.334c14.2 24.595 19.497 55.37 21.088 81.125.871 14.508.862 29.293-.686 43.813-.621 5.324 1.399 10.624 5.508 14.141 2.953 2.528 6.644 3.855 10.4 3.854zm123.049-89.947c39.604-.074 98.108-16.881 156.199-50.42 91.799-53 147.927-127.783 130.277-158.354l-85.951-118.27-97.447 115.613c-7.613 9.014-16.746 16.595-26.879 22.445s-21.351 10.019-32.877 12.055L1500.3 94.017l59.449 133.57c6.481 11.225 23.098 16.816 46.078 16.773zm42.754 2455.562c-84.527-.148-170.159-21.762-248.615-67.059-239.106-138.048-321.03-443.792-182.982-682.898s443.792-321.031 682.898-182.982 321.03 443.792 182.982 682.898c-92.751 160.649-261.203 250.344-434.283 250.041zm-165.803-165.615a16 16 0 0 0 4.398-.619l63.426-18.145c4.187-1.147 7.686-4.09 9.74-7.932a15.67 15.67 0 0 0 .947-12.557c-13.952-41.366-36.875-72.472-56.168-93.088-9.871-10.698-20.845-21.105-32.691-29.623l-12.301-21.303a132.79 132.79 0 0 1-16.588-84.531c3.422-19.873 11.636-39.049 24.76-55.518l105.115-131.934c5.501-6.871 15.556-8.058 22.428-2.557s8.056 15.556 2.555 22.428l-105.115 131.934c-8.289 10.443-13.978 22.389-17.086 34.807l167.018-29.918c7.932-1.462 15.559-4.249 22.574-8.299a70.75 70.75 0 0 0 18.475-15.4l192.508-227.77c6.527-7.694 7.433-18.724 2.383-27.471s-15.007-13.393-24.984-11.674l-293.57 52.523c-7.932 1.462-15.559 4.249-22.574 8.299a70.75 70.75 0 0 0-18.475 15.4l-192.27 227.979c-6.477 7.781-7.435 18.726-2.385 27.473s15.007 13.391 24.984 11.672l60.594-10.85a164.62 164.62 0 0 0 21.941 89.406l14.051 24.334c14.2 24.595 19.497 55.37 21.088 81.125.871 14.508.862 29.293-.686 43.813-.621 5.324 1.399 10.624 5.508 14.141 2.953 2.528 6.644 3.855 10.4 3.854zm123.049-89.947c39.604-.074 98.108-16.881 156.199-50.42 91.799-53 147.927-127.783 130.277-158.354l-85.951-118.27-97.447 115.613c-7.613 9.014-16.746 16.595-26.879 22.445s-21.351 10.019-32.877 12.055l-148.85 26.586 59.449 133.57c6.481 11.225 23.098 16.816 46.078 16.773zM548.582 2699.924c-84.527-.148-170.159-21.762-248.615-67.059-239.106-138.048-321.03-443.792-182.982-682.898s443.792-321.031 682.898-182.982 321.03 443.792 182.982 682.898c-92.751 160.649-261.203 250.344-434.283 250.041zm-165.803-165.615a16 16 0 0 0 4.398-.619l63.426-18.145c4.187-1.147 7.686-4.09 9.74-7.932a15.67 15.67 0 0 0 .947-12.557c-13.952-41.366-36.875-72.472-56.168-93.088-9.871-10.698-20.845-21.105-32.691-29.623l-12.301-21.303a132.79 132.79 0 0 1-16.588-84.531c3.422-19.873 11.636-39.049 24.76-55.518l105.115-131.934c5.501-6.871 15.556-8.058 22.428-2.557s8.056 15.556 2.555 22.428l-105.115 131.934c-8.289 10.443-13.978 22.389-17.086 34.807l167.018-29.918c7.932-1.462 15.559-4.249 22.574-8.299a70.75 70.75 0 0 0 18.475-15.4l192.508-227.77c6.527-7.694 7.433-18.724 2.383-27.471s-15.007-13.393-24.984-11.674l-293.57 52.523a70.74 70.74 0 0 0-22.574 8.299 70.75 70.75 0 0 0-18.475 15.4l-192.27 227.979c-6.477 7.781-7.433 18.726-2.383 27.473s15.005 13.391 24.982 11.672l60.594-10.85a164.62 164.62 0 0 0 21.941 89.406l14.051 24.334c14.2 24.595 19.497 55.37 21.088 81.125.871 14.508.862 29.293-.686 43.813-.621 5.324 1.399 10.624 5.508 14.141 2.953 2.528 6.644 3.855 10.4 3.854zm123.049-89.947c39.604-.074 98.108-16.881 156.199-50.42 91.799-53 147.927-127.783 130.277-158.354l-85.951-118.27-97.447 115.613c-7.613 9.014-16.746 16.595-26.879 22.445s-21.351 10.019-32.877 12.055l-148.85 26.586 59.449 133.57c6.481 11.225 23.098 16.816 46.078 16.773z"/></svg>