<?xml version="1.0" encoding="UTF-8"?>
<!-- Generated by Pixelmator Pro 3.2.3 -->
<svg width="904" height="904" viewBox="0 0 904 904" xmlns="http://www.w3.org/2000/svg" xmlns:xlink="http://www.w3.org/1999/xlink">
    <path id="forward-thinking" fill="#000000" fill-rule="evenodd" stroke="none" d="M 452 904 C 202.367538 904 0 701.632446 0 452 C 0 202.367554 202.367538 0 452 0 C 701.632446 0 904 202.367554 904 452 C 904 701.632446 701.632446 904 452 904 Z M 529.208984 719.568359 C 530.000488 719.566895 530.760315 719.537598 531.439453 719.478516 C 534.156128 719.242126 538.881165 717.85022 541.939453 716.384766 C 546.699707 714.10376 565.110413 696.144348 669.859375 591.609375 C 769.039307 492.63205 792.67041 468.552795 794.599609 464.5 C 796.450378 460.612 796.980469 457.832031 796.980469 452 C 796.980469 446.163727 796.451965 443.390839 794.597656 439.5 C 792.668091 435.451355 768.933411 411.25882 669.857422 312.351563 C 569.812805 212.477295 546.49707 189.68811 542 187.382813 C 537.544128 185.098633 535.171082 184.556885 529.5 184.53125 C 523.816162 184.505493 521.427307 185.026978 516.796875 187.300781 C 513.47876 188.930237 509.204926 192.202942 506.574219 195.128906 C 503.764801 198.253662 501.426086 202.144226 500.398438 205.404297 C 499.304321 208.875244 498.883759 212.839722 499.15625 217.119141 C 499.458923 221.872681 500.322418 224.902893 502.412109 228.544922 C 504.339905 231.904724 540.394165 268.686035 723.464844 452.003906 L 613.787109 561.751953 C 518.886414 656.712585 503.766083 672.241089 501.564453 677 C 499.663574 681.108826 499.019531 684.144104 499.019531 689 C 499.019531 693.73114 499.662079 696.877502 501.378906 700.564453 C 502.676178 703.350403 505.208099 707.305969 507.005859 709.353516 C 508.80365 711.401062 512.143616 714.171143 514.427734 715.509766 C 516.711853 716.848389 520.363098 718.385437 522.541016 718.925781 C 524.1745 719.331055 526.834473 719.572815 529.208984 719.568359 Z M 195.759766 718.761719 C 196.64534 718.763794 197.565353 718.745239 198.511719 718.707031 C 205.051331 718.442993 207.532791 717.847595 212.011719 715.46875 C 216.288788 713.197144 232.798965 697.327332 286.853516 643.527344 C 324.998047 605.562439 379.242828 551.099976 407.396484 522.5 C 446.181061 483.100586 459.180786 469.288422 461.042969 465.5 C 463.068359 461.379547 463.5 459.004761 463.5 452 C 463.5 445.008789 463.066925 442.620148 461.058594 438.539063 C 459.221649 434.806244 446.1698 420.935669 408.365234 382.539063 C 380.727112 354.468018 340.875488 314.368347 319.806641 293.429688 C 298.737793 272.491028 266.424957 240.51355 248 222.369141 C 223.712875 198.451904 213.190384 188.751099 209.736328 187.09375 C 207.115967 185.836426 202.390961 184.581299 199.236328 184.304688 C 194.877838 183.922607 192.131409 184.319214 187.798828 185.955078 C 184.662933 187.139099 179.931015 190.054749 177.285156 192.433594 C 174.639297 194.812439 171.356522 198.949829 169.988281 201.628906 C 167.951218 205.617554 167.5 207.949219 167.5 214.5 C 167.5 220.890259 167.982605 223.506104 169.900391 227.5 C 171.825409 231.508972 194.020859 254.255554 391.457031 452.013672 L 281.880859 561.755859 C 193.033173 650.739075 171.858368 672.445862 169.947266 676.5 C 168.144135 680.325073 167.579483 683.268677 167.544922 689.025391 C 167.512238 694.471558 168.052505 697.783386 169.5 701.015625 C 170.600006 703.471924 172.790421 706.955017 174.367188 708.755859 C 175.94397 710.556702 178.591934 712.997681 180.251953 714.179688 C 181.911957 715.361694 184.896561 716.936646 186.884766 717.679688 C 188.734955 718.371155 191.922272 718.752563 195.759766 718.761719 Z"/>
</svg>
