<?xml version="1.0" encoding="UTF-8"?>
<!-- Generated by Pixelmator Pro 3.2.3 -->
<svg width="904" height="904" viewBox="0 0 904 904" xmlns="http://www.w3.org/2000/svg" xmlns:xlink="http://www.w3.org/1999/xlink">
    <path id="handshake-simple-solid" fill="#000000" fill-rule="evenodd" stroke="none" d="M 452 904 C 202.367544 904 0 701.632456 0 452 C 0 202.367559 202.367544 0 452 0 C 701.632441 0 904 202.367559 904 452 C 904 701.632456 701.632441 904 452 904 Z M 407.193359 666.160156 C 421.74683 666.188577 436.258313 660.303937 446.867188 648.6875 C 453.003137 641.882224 457.132296 633.960685 459.251953 625.705078 L 478.216797 643.109375 C 499.971444 663.079082 533.887715 661.62771 553.857422 639.873047 C 558.877681 634.4065 562.55762 628.047021 564.900391 621.464844 C 586.543496 635.967942 615.997027 632.95576 634.181641 613.097656 C 654.151347 591.342978 652.69999 557.42866 630.945313 537.458984 L 481.228516 400.236328 L 423.550781 445.085938 C 388.408604 472.530307 337.424443 465.390375 311.095703 429.244141 C 286.328852 395.217624 292.577883 347.690342 325.265625 321.25 L 418.085938 246.169922 C 405.144666 240.703375 391.197709 237.914063 377.029297 237.914063 C 356.055563 237.80249 335.640302 244.049816 318.125 255.652344 L 237.800781 309.203125 L 148.550781 309.203125 C 118.986747 309.203125 95 333.187896 95 362.751953 L 95 505.552734 C 95 535.116792 118.986747 559.101563 148.550781 559.101563 L 269.259766 559.101563 L 371.228516 652.144531 C 381.478306 661.50531 394.352062 666.135079 407.193359 666.160156 Z M 708.816406 559.101563 L 755.449219 559.101563 C 785.013215 559.101563 809 535.116792 809 505.552734 L 809 362.751953 C 809 333.187896 785.013215 309.203125 755.449219 309.203125 L 670.662109 309.203125 L 666.199219 309.203125 L 665.419922 309.203125 L 661.068359 306.414063 L 580.074219 254.537109 C 563.005205 243.604015 543.034892 237.802734 522.730469 237.802734 C 498.409906 237.802734 474.758556 246.169083 455.792969 261.453125 L 347.800781 348.917969 C 329.839221 363.421067 326.381544 389.527301 339.992188 408.158203 C 354.383714 428.016307 382.385273 431.920304 401.685547 416.859375 L 512.466797 330.734375 C 520.276115 324.709967 531.432379 326.048042 537.568359 333.857422 C 543.704279 341.66674 542.254631 352.823004 534.445313 358.958984 L 511.128906 377.03125 L 708.816406 559.101563 Z"/>
</svg>
