<svg xmlns="http://www.w3.org/2000/svg" xmlns:xlink="http://www.w3.org/1999/xlink" width="2200" height="2200" xmlns:v="https://vecta.io/nano"><g opacity=".049" fill-rule="evenodd"><use xlink:href="#B"/><use xlink:href="#B" x="1100"/><path d="M-1.443 1599.898c-84.527-.148-170.159-21.762-248.615-67.059-239.106-138.048-321.03-443.792-182.982-682.898s443.792-321.03 682.898-182.982 321.03 443.792 182.982 682.898c-92.751 160.649-261.203 250.344-434.283 250.041zm-106.693-142.025a56.16 56.16 0 0 0 28.064-7.566l423.594-244.562c26.984-15.579 36.237-50.11 20.658-77.094l-75.25-130.338-89.242-154.57c-10.7-18.532-37.215-18.837-48.451-.674l-109.9 177.902-37.154-64.354c-10.7-18.532-37.215-18.837-48.451-.674l-109.898 177.902-89.008-154.164c-10.406-18.023-33.373-24.177-51.396-13.771l-65.168 37.625c-18.023 10.406-24.177 33.373-13.771 51.396l141.094 244.381 28.219 48.877 47.031 81.461c10.467 18.13 29.49 28.255 49.031 28.223zm655.693-957.975c-84.527-.148-170.159-21.762-248.615-67.059C59.835 294.792-22.089-10.952 115.959-250.059s443.792-321.03 682.898-182.982 321.03 443.792 182.982 682.898c-92.751 160.65-261.203 250.345-434.283 250.041zM440.863 357.873a56.16 56.16 0 0 0 28.063-7.566l423.596-244.562c26.984-15.579 36.237-50.11 20.658-77.094l-75.25-130.338-89.242-154.57c-10.7-18.532-37.215-18.837-48.451-.674l-109.9 177.902-37.154-64.354c-10.7-18.532-37.215-18.837-48.451-.674l-109.9 177.903-89.008-154.164c-10.406-18.023-33.373-24.177-51.396-13.771L189.26-96.465c-18.023 10.406-24.177 33.373-13.771 51.396l141.094 244.381 28.219 48.877 47.031 81.461c10.467 18.13 29.49 28.255 49.031 28.223zm1207.694 142.025c-84.527-.148-170.159-21.762-248.615-67.059-239.106-138.048-321.03-443.792-182.982-682.898s443.792-321.03 682.898-182.982 321.03 443.792 182.982 682.898c-92.751 160.65-261.203 250.345-434.283 250.041zm-106.693-142.025a56.16 56.16 0 0 0 28.063-7.566l423.596-244.562c26.984-15.579 36.237-50.11 20.658-77.094l-75.25-130.338-89.242-154.57c-10.7-18.532-37.215-18.837-48.451-.674l-109.9 177.902-37.154-64.354c-10.7-18.532-37.215-18.837-48.451-.674L1495.832 33.846l-89.008-154.164c-10.406-18.023-33.373-24.177-51.396-13.771l-65.168 37.625c-18.023 10.406-24.177 33.373-13.771 51.396l141.094 244.381 28.219 48.877 47.031 81.461c10.467 18.13 29.49 28.255 49.031 28.223z"/><use xlink:href="#B" x="-551" y="1100"/><path d="M1648.658 2700c-84.527-.148-170.161-21.763-248.617-67.061-239.106-138.048-321.03-443.792-182.982-682.898s443.794-321.03 682.9-182.982 321.03 443.794 182.982 682.9c-92.751 160.649-261.203 250.344-434.283 250.041zm-106.695-142.027c9.543-.016 19.21-2.453 28.064-7.564l423.594-244.562c26.984-15.579 36.237-50.112 20.658-77.096l-75.25-130.338-89.242-154.57c-10.7-18.532-37.215-18.837-48.451-.674l-109.898 177.902-37.156-64.354c-10.7-18.532-37.213-18.837-48.449-.674l-109.9 177.902-89.006-154.164c-10.406-18.023-33.375-24.177-51.398-13.771l-65.168 37.625c-18.023 10.406-24.177 33.373-13.771 51.396l141.094 244.381 28.219 48.877 47.031 81.461c10.467 18.13 29.49 28.255 49.031 28.223z"/></g><defs ><path id="B" d="M1098.557 1599.898c-84.527-.148-170.159-21.762-248.615-67.059-239.106-138.048-321.03-443.792-182.982-682.898s443.792-321.03 682.898-182.982 321.03 443.792 182.982 682.898c-92.751 160.649-261.203 250.344-434.283 250.041zm-106.693-142.025c9.543-.016 19.208-2.455 28.063-7.566l423.596-244.562c26.984-15.579 36.237-50.11 20.658-77.094l-75.25-130.338-89.242-154.57c-10.7-18.532-37.215-18.837-48.451-.674l-109.9 177.902-37.154-64.354c-10.7-18.532-37.215-18.837-48.451-.674l-109.898 177.902-89.008-154.164c-10.406-18.023-33.373-24.177-51.396-13.771l-65.168 37.625c-18.023 10.406-24.177 33.373-13.771 51.396l141.094 244.381 28.219 48.877 47.031 81.461c10.467 18.13 29.49 28.255 49.031 28.223z"/></defs></svg>