<?xml version="1.0" encoding="UTF-8"?>
<!-- Generated by Pixelmator Pro 3.2.3 -->
<svg width="904" height="904" viewBox="0 0 904 904" xmlns="http://www.w3.org/2000/svg" xmlns:xlink="http://www.w3.org/1999/xlink">
    <path id="industry-solid" fill="#000000" fill-rule="evenodd" stroke="none" d="M 452 904 C 202.367538 904 0 701.632446 0 452 C 0 202.367554 202.367538 0 452 0 C 701.632446 0 904 202.367554 904 452 C 904 701.632446 701.632446 904 452 904 Z M 207.4375 715.375 L 696.5625 715.375 C 727.720642 715.375 753 690.095703 753 658.9375 L 753 508.4375 L 753 329.953125 C 753 308.553894 730.189453 295.032776 711.376953 305.144531 L 527.25 404.263672 L 527.25 329.953125 C 527.25 308.553894 504.439423 295.032776 485.626953 305.144531 L 301.5 404.263672 L 301.5 226.25 C 301.5 205.43866 284.686279 188.625 263.875 188.625 L 188.625 188.625 C 167.81369 188.625 151 205.43866 151 226.25 L 151 508.4375 L 151 564.875 L 151 658.9375 C 151 690.095703 176.279327 715.375 207.4375 715.375 Z"/>
</svg>
