<?xml version="1.0" encoding="UTF-8"?>
<!-- Generated by Pixelmator Pro 3.2.3 -->
<svg width="2200" height="2200" viewBox="0 0 2200 2200" xmlns="http://www.w3.org/2000/svg" xmlns:xlink="http://www.w3.org/1999/xlink">
    <g id="coachable" opacity="0.048423">
        <path id="Shape-copy" fill="#000000" fill-rule="evenodd" stroke="none" d="M 1098.582031 1599.923828 C 1014.054626 1599.775635 928.423523 1578.162231 849.966797 1532.865234 C 610.860657 1394.817139 528.93634 1089.072998 666.984375 849.966797 C 805.03241 610.860718 1110.776733 528.936401 1349.882813 666.984375 C 1588.988892 805.032349 1670.913208 1110.776611 1532.865234 1349.882813 C 1440.114136 1510.532227 1271.661987 1600.227295 1098.582031 1599.923828 Z M 932.779297 1434.308594 C 934.249084 1434.308105 935.728394 1434.104004 937.177734 1433.689453 L 1000.603516 1415.544922 C 1004.790833 1414.397583 1008.289429 1411.455078 1010.34375 1407.613281 C 1012.39801 1403.771484 1012.748169 1399.180542 1011.291016 1395.056641 C 997.338806 1353.690918 974.415649 1322.584473 955.123047 1301.96875 C 945.25177 1291.27124 934.277832 1280.865723 922.431641 1272.347656 L 910.130859 1251.042969 C 895.030884 1224.888916 889.614319 1195.107178 893.542969 1166.511719 C 896.964722 1146.638306 905.178589 1127.462524 918.302734 1110.994141 L 1023.417969 979.060547 C 1028.919312 972.189209 1038.974365 971.002441 1045.845703 976.503906 C 1052.716919 982.005371 1053.901733 992.060303 1048.400391 998.931641 L 943.285156 1130.865234 C 934.996399 1141.308716 929.306824 1153.254395 926.199219 1165.671875 L 1093.216797 1135.753906 C 1101.14856 1134.292236 1108.776245 1131.505005 1115.791016 1127.455078 C 1122.805786 1123.405029 1129.033813 1118.192993 1134.265625 1112.054688 L 1326.773438 884.285156 C 1333.300659 876.590698 1334.206299 865.561279 1329.15625 856.814453 C 1324.106201 848.067627 1314.149048 843.421753 1304.171875 845.140625 L 1010.601563 897.664063 C 1002.669739 899.125732 995.042114 901.912964 988.027344 905.962891 C 981.012512 910.012939 974.784546 915.224976 969.552734 921.363281 L 777.283203 1149.341797 C 770.805969 1157.122925 769.850403 1168.067627 774.900391 1176.814453 C 779.950439 1185.561279 789.905579 1190.205322 799.882813 1188.486328 L 860.476563 1177.636719 C 859.173706 1208.180176 866.367981 1239.24353 882.417969 1267.042969 L 896.46875 1291.376953 C 910.668701 1315.972046 915.965942 1346.746826 917.556641 1372.501953 C 918.42749 1387.010254 918.418884 1401.79541 916.871094 1416.314453 C 916.249817 1421.638428 918.270081 1426.938354 922.378906 1430.455078 C 925.332153 1432.982666 929.023132 1434.309937 932.779297 1434.308594 Z M 1055.828125 1344.361328 C 1095.432129 1344.287598 1153.936035 1327.480469 1212.027344 1293.941406 C 1303.825928 1240.941406 1359.95459 1166.158569 1342.304688 1135.587891 L 1256.353516 1017.318359 L 1158.90625 1132.931641 C 1151.293335 1141.945679 1142.159912 1149.526978 1132.027344 1155.376953 C 1121.894897 1161.226929 1110.676636 1165.395752 1099.150391 1167.431641 L 950.300781 1194.017578 L 1009.75 1327.587891 C 1016.230835 1338.812988 1032.848022 1344.404053 1055.828125 1344.361328 Z"/>
        <path id="Shape-copy-2" fill="#000000" fill-rule="evenodd" stroke="none" d="M 2198.582031 1599.923828 C 2114.054688 1599.775635 2028.423462 1578.162231 1949.966797 1532.865234 C 1710.860718 1394.817139 1628.936401 1089.072998 1766.984375 849.966797 C 1905.032349 610.860718 2210.776611 528.936401 2449.882813 666.984375 C 2688.989014 805.032349 2770.913086 1110.776611 2632.865234 1349.882813 C 2540.114258 1510.532227 2371.662109 1600.227295 2198.582031 1599.923828 Z M 2032.779297 1434.308594 C 2034.249146 1434.308105 2035.728394 1434.104004 2037.177734 1433.689453 L 2100.603516 1415.544922 C 2104.790771 1414.397583 2108.289307 1411.455078 2110.34375 1407.613281 C 2112.397949 1403.771484 2112.748291 1399.180542 2111.291016 1395.056641 C 2097.338867 1353.690918 2074.415771 1322.584473 2055.123047 1301.96875 C 2045.251831 1291.27124 2034.277832 1280.865723 2022.431641 1272.347656 L 2010.130859 1251.042969 C 1995.030884 1224.888916 1989.61438 1195.107178 1993.542969 1166.511719 C 1996.964722 1146.638306 2005.178589 1127.462524 2018.302734 1110.994141 L 2123.417969 979.060547 C 2128.919434 972.189209 2138.972412 971.002441 2145.84375 976.503906 C 2152.715088 982.005371 2153.901611 992.060303 2148.400391 998.931641 L 2043.285156 1130.865234 C 2034.99646 1141.308716 2029.306763 1153.254395 2026.199219 1165.671875 L 2193.216797 1135.753906 C 2201.148682 1134.292236 2208.776123 1131.505005 2215.791016 1127.455078 C 2222.805908 1123.405029 2229.033936 1118.192993 2234.265625 1112.054688 L 2426.773438 884.285156 C 2433.300537 876.590698 2434.206299 865.561279 2429.15625 856.814453 C 2424.106201 848.067627 2414.14917 843.421753 2404.171875 845.140625 L 2110.601563 897.664063 C 2102.669678 899.125732 2095.042236 901.912964 2088.027344 905.962891 C 2081.012451 910.012939 2074.784668 915.224976 2069.552734 921.363281 L 1877.283203 1149.341797 C 1870.805908 1157.122925 1869.848511 1168.067627 1874.898438 1176.814453 C 1879.948486 1185.561279 1889.905518 1190.205322 1899.882813 1188.486328 L 1960.476563 1177.636719 C 1959.173706 1208.180176 1966.36792 1239.24353 1982.417969 1267.042969 L 1996.46875 1291.376953 C 2010.668701 1315.972046 2015.965942 1346.746826 2017.556641 1372.501953 C 2018.42749 1387.010254 2018.418945 1401.79541 2016.871094 1416.314453 C 2016.249878 1421.638428 2018.27002 1426.938354 2022.378906 1430.455078 C 2025.332153 1432.982666 2029.023193 1434.309937 2032.779297 1434.308594 Z M 2155.828125 1344.361328 C 2195.432129 1344.287598 2253.936035 1327.480469 2312.027344 1293.941406 C 2403.826172 1240.941406 2459.95459 1166.158569 2442.304688 1135.587891 L 2356.355469 1017.318359 L 2258.90625 1132.931641 C 2251.293457 1141.945679 2242.159912 1149.526978 2232.027344 1155.376953 C 2221.89502 1161.226929 2210.676758 1165.395752 2199.150391 1167.431641 L 2050.300781 1194.017578 L 2109.75 1327.587891 C 2116.230713 1338.812988 2132.8479 1344.404053 2155.828125 1344.361328 Z"/>
        <path id="Shape-copy-3" fill="#000000" fill-rule="evenodd" stroke="none" d="M -1.417969 1599.923828 C -85.945396 1599.775635 -171.576508 1578.162231 -250.033203 1532.865234 C -489.139343 1394.817139 -571.06366 1089.072998 -433.015625 849.966797 C -294.967621 610.860718 10.776691 528.936401 249.882813 666.984375 C 488.988892 805.032349 570.913086 1110.776611 432.865234 1349.882813 C 340.114166 1510.532227 171.662003 1600.227295 -1.417969 1599.923828 Z M -167.220703 1434.308594 C -165.750916 1434.308105 -164.271637 1434.104004 -162.822266 1433.689453 L -99.396484 1415.544922 C -95.209175 1414.397583 -91.712524 1411.455078 -89.658203 1407.613281 C -87.603943 1403.771484 -87.251831 1399.180542 -88.708984 1395.056641 C -102.661179 1353.690918 -125.584381 1322.584473 -144.876953 1301.96875 C -154.748215 1291.27124 -165.722183 1280.865723 -177.568359 1272.347656 L -189.869141 1251.042969 C -204.969101 1224.888916 -210.385681 1195.107178 -206.457031 1166.511719 C -203.035278 1146.638306 -194.821396 1127.462524 -181.697266 1110.994141 L -76.582031 979.060547 C -71.080696 972.189209 -61.025627 971.002441 -54.154297 976.503906 C -47.283089 982.005371 -46.09827 992.060303 -51.599609 998.931641 L -156.714844 1130.865234 C -165.003586 1141.308716 -170.693176 1153.254395 -173.800781 1165.671875 L -6.783203 1135.753906 C 1.148552 1134.292236 8.776221 1131.505005 15.791016 1127.455078 C 22.80578 1123.405029 29.033821 1118.192993 34.265625 1112.054688 L 226.773438 884.285156 C 233.300659 876.590698 234.206299 865.561279 229.15625 856.814453 C 224.106201 848.067627 214.149033 843.421753 204.171875 845.140625 L -89.398438 897.664063 C -97.330254 899.125732 -104.957893 901.912964 -111.972656 905.962891 C -118.98748 910.012939 -125.215469 915.224976 -130.447266 921.363281 L -322.716797 1149.341797 C -329.194031 1157.122925 -330.149597 1168.067627 -325.099609 1176.814453 C -320.049561 1185.561279 -310.094421 1190.205322 -300.117188 1188.486328 L -239.523438 1177.636719 C -240.826294 1208.180176 -233.632004 1239.24353 -217.582031 1267.042969 L -203.53125 1291.376953 C -189.331314 1315.972046 -184.034058 1346.746826 -182.443359 1372.501953 C -181.57251 1387.010254 -181.581116 1401.79541 -183.128906 1416.314453 C -183.750183 1421.638428 -181.729919 1426.938354 -177.621094 1430.455078 C -174.667831 1432.982666 -170.976852 1434.309937 -167.220703 1434.308594 Z M -44.171875 1344.361328 C -4.567881 1344.287598 53.936035 1327.480469 112.027344 1293.941406 C 203.825958 1240.941406 259.954559 1166.158569 242.304688 1135.587891 L 156.353516 1017.318359 L 58.90625 1132.931641 C 51.293343 1141.945679 42.159901 1149.526978 32.027344 1155.376953 C 21.894909 1161.226929 10.676624 1165.395752 -0.849609 1167.431641 L -149.699219 1194.017578 L -90.25 1327.587891 C -83.769135 1338.812988 -67.15197 1344.404053 -44.171875 1344.361328 Z"/>
        <path id="Shape-copy-4" fill="#000000" fill-rule="evenodd" stroke="none" d="M 548.582031 499.923828 C 464.054596 499.775635 378.423492 478.162231 299.966797 432.865234 C 60.860653 294.817139 -21.063643 -10.927246 116.984375 -250.033203 C 255.032394 -489.139404 560.776733 -571.063477 799.882813 -433.015625 C 1038.988892 -294.967773 1120.913208 10.776611 982.865234 249.882813 C 890.114197 410.532227 721.661987 500.227295 548.582031 499.923828 Z M 382.779297 334.308594 C 384.249084 334.308105 385.728363 334.104004 387.177734 333.689453 L 450.603516 315.544922 C 454.790833 314.397583 458.289429 311.4552 460.34375 307.613281 C 462.39801 303.771484 462.748169 299.180542 461.291016 295.056641 C 447.338806 253.690796 424.415619 222.584473 405.123047 201.96875 C 395.25177 191.271118 384.277832 180.865723 372.431641 172.347656 L 360.130859 151.042969 C 345.030884 124.888916 339.614319 95.107178 343.542969 66.511719 C 346.964722 46.638428 355.178589 27.462646 368.302734 10.994141 L 473.417969 -120.939453 C 478.919312 -127.810791 488.974365 -128.997559 495.845703 -123.496094 C 502.716919 -117.994629 503.901733 -107.939697 498.400391 -101.068359 L 393.285156 30.865234 C 384.996399 41.308594 379.306824 53.254395 376.199219 65.671875 L 543.216797 35.753906 C 551.14856 34.292236 558.776245 31.505127 565.791016 27.455078 C 572.805786 23.405029 579.033813 18.192871 584.265625 12.054688 L 776.773438 -215.714844 C 783.300659 -223.40918 784.206299 -234.438721 779.15625 -243.185547 C 774.106201 -251.932373 764.149048 -256.578369 754.171875 -254.859375 L 460.601563 -202.335938 C 452.669739 -200.874268 445.042114 -198.086914 438.027344 -194.037109 C 431.012512 -189.987061 424.784546 -184.775146 419.552734 -178.636719 L 227.283203 49.341797 C 220.805969 57.122803 219.850403 68.067627 224.900391 76.814453 C 229.950439 85.561279 239.905594 90.205322 249.882813 88.486328 L 310.476563 77.636719 C 309.173706 108.180176 316.368011 139.243408 332.417969 167.042969 L 346.46875 191.376953 C 360.668701 215.972046 365.965942 246.746704 367.556641 272.501953 C 368.42749 287.010254 368.418884 301.79541 366.871094 316.314453 C 366.249817 321.638428 368.270081 326.938354 372.378906 330.455078 C 375.332153 332.982666 379.023163 334.309937 382.779297 334.308594 Z M 505.828125 244.361328 C 545.432129 244.287598 603.936035 227.480469 662.027344 193.941406 C 753.825928 140.94165 809.95459 66.158691 792.304688 35.587891 L 706.353516 -82.681641 L 608.90625 32.931641 C 601.293335 41.945557 592.159912 49.5271 582.027344 55.376953 C 571.894897 61.227051 560.676636 65.395752 549.150391 67.431641 L 400.300781 94.017578 L 459.75 227.587891 C 466.230865 238.81311 482.848022 244.404053 505.828125 244.361328 Z"/>
        <path id="Shape-copy-5" fill="#000000" fill-rule="evenodd" stroke="none" d="M 1648.582031 499.923828 C 1564.054565 499.775635 1478.423462 478.162231 1399.966797 432.865234 C 1160.860718 294.817139 1078.936401 -10.927246 1216.984375 -250.033203 C 1355.032349 -489.139404 1660.776733 -571.063477 1899.882813 -433.015625 C 2138.989014 -294.967773 2220.913086 10.776611 2082.865234 249.882813 C 1990.114136 410.532227 1821.661987 500.227295 1648.582031 499.923828 Z M 1482.779297 334.308594 C 1484.249146 334.308105 1485.728394 334.104004 1487.177734 333.689453 L 1550.603516 315.544922 C 1554.790894 314.397583 1558.289429 311.4552 1560.34375 307.613281 C 1562.397949 303.771484 1562.748169 299.180542 1561.291016 295.056641 C 1547.338867 253.690796 1524.415649 222.584473 1505.123047 201.96875 C 1495.251831 191.271118 1484.277832 180.865723 1472.431641 172.347656 L 1460.130859 151.042969 C 1445.030884 124.888916 1439.61438 95.107178 1443.542969 66.511719 C 1446.964722 46.638428 1455.178589 27.462646 1468.302734 10.994141 L 1573.417969 -120.939453 C 1578.919312 -127.810791 1588.974365 -128.997559 1595.845703 -123.496094 C 1602.716919 -117.994629 1603.901733 -107.939697 1598.400391 -101.068359 L 1493.285156 30.865234 C 1484.99646 41.308594 1479.306763 53.254395 1476.199219 65.671875 L 1643.216797 35.753906 C 1651.14856 34.292236 1658.776245 31.505127 1665.791016 27.455078 C 1672.805786 23.405029 1679.033813 18.192871 1684.265625 12.054688 L 1876.773438 -215.714844 C 1883.300659 -223.40918 1884.206299 -234.438721 1879.15625 -243.185547 C 1874.106201 -251.932373 1864.149048 -256.578369 1854.171875 -254.859375 L 1560.601563 -202.335938 C 1552.6698 -200.874268 1545.042114 -198.086914 1538.027344 -194.037109 C 1531.012573 -189.987061 1524.784546 -184.775146 1519.552734 -178.636719 L 1327.283203 49.341797 C 1320.805908 57.122803 1319.848511 68.067627 1324.898438 76.814453 C 1329.948486 85.561279 1339.905518 90.205322 1349.882813 88.486328 L 1410.476563 77.636719 C 1409.173706 108.180176 1416.36792 139.243408 1432.417969 167.042969 L 1446.46875 191.376953 C 1460.668701 215.972046 1465.965942 246.746704 1467.556641 272.501953 C 1468.42749 287.010254 1468.418945 301.79541 1466.871094 316.314453 C 1466.249878 321.638428 1468.27002 326.938354 1472.378906 330.455078 C 1475.332153 332.982666 1479.023193 334.309937 1482.779297 334.308594 Z M 1605.828125 244.361328 C 1645.432129 244.287598 1703.936035 227.480469 1762.027344 193.941406 C 1853.825928 140.94165 1909.95459 66.158691 1892.304688 35.587891 L 1806.353516 -82.681641 L 1708.90625 32.931641 C 1701.293335 41.945557 1692.159912 49.5271 1682.027344 55.376953 C 1671.894897 61.227051 1660.676636 65.395752 1649.150391 67.431641 L 1500.300781 94.017578 L 1559.75 227.587891 C 1566.230835 238.81311 1582.848022 244.404053 1605.828125 244.361328 Z"/>
        <path id="Shape-copy-6" fill="#000000" fill-rule="evenodd" stroke="none" d="M 1648.582031 2699.923828 C 1564.054565 2699.775635 1478.423462 2678.162109 1399.966797 2632.865234 C 1160.860718 2494.817139 1078.936401 2189.072998 1216.984375 1949.966797 C 1355.032349 1710.860718 1660.776733 1628.936279 1899.882813 1766.984375 C 2138.989014 1905.032349 2220.913086 2210.776611 2082.865234 2449.882813 C 1990.114136 2610.532227 1821.661987 2700.227295 1648.582031 2699.923828 Z M 1482.779297 2534.308594 C 1484.249146 2534.308105 1485.728394 2534.104004 1487.177734 2533.689453 L 1550.603516 2515.544922 C 1554.790894 2514.397461 1558.289429 2511.455078 1560.34375 2507.613281 C 1562.397949 2503.771484 1562.748169 2499.180664 1561.291016 2495.056641 C 1547.338867 2453.690918 1524.415649 2422.584473 1505.123047 2401.96875 C 1495.251831 2391.27124 1484.277832 2380.86377 1472.431641 2372.345703 L 1460.130859 2351.042969 C 1445.030884 2324.888916 1439.61438 2295.107178 1443.542969 2266.511719 C 1446.964722 2246.638428 1455.178589 2227.462402 1468.302734 2210.994141 L 1573.417969 2079.060547 C 1578.919312 2072.189209 1588.974365 2071.002441 1595.845703 2076.503906 C 1602.716919 2082.005371 1603.901733 2092.060303 1598.400391 2098.931641 L 1493.285156 2230.865234 C 1484.99646 2241.308594 1479.306763 2253.254395 1476.199219 2265.671875 L 1643.216797 2235.753906 C 1651.14856 2234.292236 1658.776245 2231.504883 1665.791016 2227.455078 C 1672.805786 2223.405029 1679.033813 2218.192871 1684.265625 2212.054688 L 1876.773438 1984.285156 C 1883.300659 1976.590698 1884.206299 1965.561279 1879.15625 1956.814453 C 1874.106201 1948.067627 1864.149048 1943.421753 1854.171875 1945.140625 L 1560.601563 1997.664063 C 1552.6698 1999.125732 1545.042114 2001.912964 1538.027344 2005.962891 C 1531.012573 2010.012939 1524.784546 2015.224976 1519.552734 2021.363281 L 1327.283203 2249.341797 C 1320.805908 2257.122803 1319.848511 2268.067627 1324.898438 2276.814453 C 1329.948486 2285.561279 1339.905518 2290.205322 1349.882813 2288.486328 L 1410.476563 2277.636719 C 1409.173706 2308.180176 1416.36792 2339.243652 1432.417969 2367.042969 L 1446.46875 2391.376953 C 1460.668701 2415.971924 1465.965942 2446.746826 1467.556641 2472.501953 C 1468.42749 2487.010254 1468.418945 2501.79541 1466.871094 2516.314453 C 1466.249878 2521.638428 1468.27002 2526.938477 1472.378906 2530.455078 C 1475.332153 2532.982666 1479.023193 2534.310059 1482.779297 2534.308594 Z M 1605.828125 2444.361328 C 1645.432129 2444.287598 1703.936035 2427.480469 1762.027344 2393.941406 C 1853.825928 2340.941406 1909.95459 2266.158447 1892.304688 2235.587891 L 1806.353516 2117.318359 L 1708.90625 2232.931641 C 1701.293335 2241.945557 1692.159912 2249.5271 1682.027344 2255.376953 C 1671.894897 2261.226807 1660.676636 2265.395752 1649.150391 2267.431641 L 1500.300781 2294.017578 L 1559.75 2427.587891 C 1566.230835 2438.812988 1582.848022 2444.404053 1605.828125 2444.361328 Z"/>
        <path id="Shape-copy-7" fill="#000000" fill-rule="evenodd" stroke="none" d="M 548.582031 2699.923828 C 464.054596 2699.775635 378.423492 2678.162109 299.966797 2632.865234 C 60.860653 2494.817139 -21.063643 2189.072998 116.984375 1949.966797 C 255.032394 1710.860718 560.776733 1628.936279 799.882813 1766.984375 C 1038.988892 1905.032349 1120.913208 2210.776611 982.865234 2449.882813 C 890.114197 2610.532227 721.661987 2700.227295 548.582031 2699.923828 Z M 382.779297 2534.308594 C 384.249084 2534.308105 385.728363 2534.104004 387.177734 2533.689453 L 450.603516 2515.544922 C 454.790833 2514.397461 458.289429 2511.455078 460.34375 2507.613281 C 462.39801 2503.771484 462.748169 2499.180664 461.291016 2495.056641 C 447.338806 2453.690918 424.415619 2422.584473 405.123047 2401.96875 C 395.25177 2391.27124 384.277832 2380.86377 372.431641 2372.345703 L 360.130859 2351.042969 C 345.030884 2324.888916 339.614319 2295.107178 343.542969 2266.511719 C 346.964722 2246.638428 355.178589 2227.462402 368.302734 2210.994141 L 473.417969 2079.060547 C 478.919312 2072.189209 488.974365 2071.002441 495.845703 2076.503906 C 502.716919 2082.005371 503.901733 2092.060303 498.400391 2098.931641 L 393.285156 2230.865234 C 384.996399 2241.308594 379.306824 2253.254395 376.199219 2265.671875 L 543.216797 2235.753906 C 551.14856 2234.292236 558.776245 2231.504883 565.791016 2227.455078 C 572.805786 2223.405029 579.033813 2218.192871 584.265625 2212.054688 L 776.773438 1984.285156 C 783.300659 1976.590698 784.206299 1965.561279 779.15625 1956.814453 C 774.106201 1948.067627 764.149048 1943.421753 754.171875 1945.140625 L 460.601563 1997.664063 C 452.669739 1999.125732 445.042114 2001.912964 438.027344 2005.962891 C 431.012512 2010.012939 424.784546 2015.224976 419.552734 2021.363281 L 227.283203 2249.341797 C 220.805969 2257.122803 219.850403 2268.067627 224.900391 2276.814453 C 229.950439 2285.561279 239.905594 2290.205322 249.882813 2288.486328 L 310.476563 2277.636719 C 309.173706 2308.180176 316.368011 2339.243652 332.417969 2367.042969 L 346.46875 2391.376953 C 360.668701 2415.971924 365.965942 2446.746826 367.556641 2472.501953 C 368.42749 2487.010254 368.418884 2501.79541 366.871094 2516.314453 C 366.249817 2521.638428 368.270081 2526.938477 372.378906 2530.455078 C 375.332153 2532.982666 379.023163 2534.310059 382.779297 2534.308594 Z M 505.828125 2444.361328 C 545.432129 2444.287598 603.936035 2427.480469 662.027344 2393.941406 C 753.825928 2340.941406 809.95459 2266.158447 792.304688 2235.587891 L 706.353516 2117.318359 L 608.90625 2232.931641 C 601.293335 2241.945557 592.159912 2249.5271 582.027344 2255.376953 C 571.894897 2261.226807 560.676636 2265.395752 549.150391 2267.431641 L 400.300781 2294.017578 L 459.75 2427.587891 C 466.230865 2438.812988 482.848022 2444.404053 505.828125 2444.361328 Z"/>
    </g>
</svg>
