<svg xmlns="http://www.w3.org/2000/svg" width="2200" height="2200" opacity=".049" fill-rule="evenodd" xmlns:v="https://vecta.io/nano"><path d="M1101.268 1599.924c-173.08.303-341.532-89.392-434.283-250.041-138.048-239.106-56.124-544.85 182.982-682.898s544.85-56.124 682.898 182.982 56.124 544.85-182.982 682.898c-78.457 45.297-164.088 66.91-248.615 67.059zm137.758-133.457c21.329-.04 42.94-5.498 62.746-16.934 60.362-34.85 81.026-111.968 46.176-172.33l-12.615-21.85-218.506 126.154 12.615 21.85c23.415 40.556 65.91 63.191 109.584 63.109zm-147.51-128.797l218.506-126.154.08.137c-12.042-51.134-6.311-103.972-.775-156.514l4.158-41.367c4.569-54.533-6.791-110.793-36.201-161.732-76.717-132.879-246.463-178.361-379.205-101.723S719.854 996.7 796.493 1129.442c29.41 50.939 72.531 89.046 121.963 112.219 12.505 5.89 25.205 11.486 37.904 17.082 48.407 21.398 97.109 42.99 135.156 78.928zm-185.687-246.094c-8.741.004-17.274-4.521-21.936-12.596-48.806-84.534-19.888-192.456 64.646-241.262 12.018-6.938 27.528-2.783 34.467 9.234s2.781 27.526-9.236 34.465c-60.362 34.85-81.026 111.968-46.176 172.33 6.938 12.018 2.783 27.528-9.234 34.467a25.01 25.01 0 0 1-12.531 3.361zm1295.413 508.348c-173.08.303-341.532-89.392-434.283-250.041-138.048-239.106-56.124-544.85 182.982-682.898s544.851-56.124 682.898 182.982 56.124 544.85-182.982 682.898c-78.457 45.297-164.088 66.91-248.615 67.059zM2339 1466.467c21.329-.04 42.94-5.498 62.746-16.934 60.362-34.85 81.026-111.968 46.176-172.33l-12.615-21.85-218.506 126.154 12.617 21.85c23.415 40.556 65.908 63.191 109.582 63.109zm-147.508-128.797l218.506-126.154.078.137c-12.042-51.134-6.312-103.972-.775-156.514l4.158-41.367c4.569-54.533-6.792-110.793-36.201-161.732-76.718-132.879-246.463-178.361-379.205-101.723s-178.224 246.383-101.586 379.125c29.41 50.939 72.532 89.046 121.965 112.219 12.505 5.89 25.205 11.486 37.904 17.082 48.407 21.398 97.109 42.99 135.156 78.928zm-185.689-246.094c-8.741.004-17.272-4.521-21.934-12.596-48.806-84.534-19.888-192.456 64.646-241.262 12.018-6.938 27.526-2.783 34.465 9.234s2.783 27.526-9.234 34.465c-60.362 34.85-81.026 111.968-46.176 172.33 6.938 12.018 2.783 27.528-9.234 34.467a25.02 25.02 0 0 1-12.533 3.361zM1.242 1599.924c-173.08.303-341.532-89.392-434.283-250.041-138.048-239.106-56.124-544.85 182.982-682.898s544.85-56.124 682.898 182.982 56.124 544.85-182.982 682.898c-78.457 45.297-164.088 66.91-248.615 67.059zm137.76-133.457c21.329-.04 42.938-5.498 62.744-16.934 60.362-34.85 81.026-111.968 46.176-172.33l-12.615-21.85-218.506 126.154 12.615 21.85c23.415 40.556 65.912 63.191 109.586 63.109zM-8.508 1337.67l218.506-126.154.078.137c-12.042-51.134-6.311-103.972-.775-156.514l4.158-41.367c4.569-54.533-6.791-110.793-36.201-161.732C100.54 719.16-69.205 673.678-201.947 750.316s-178.225 246.383-101.586 379.125c29.41 50.939 72.532 89.046 121.965 112.219 12.505 5.89 25.205 11.486 37.904 17.082 48.407 21.398 97.109 42.99 135.156 78.928zm-185.689-246.094c-8.741.004-17.272-4.521-21.934-12.596-48.806-84.534-19.888-192.456 64.646-241.262 12.018-6.938 27.526-2.783 34.465 9.234s2.783 27.526-9.234 34.465c-60.362 34.85-81.026 111.968-46.176 172.33 6.938 12.018 2.781 27.528-9.236 34.467a25.01 25.01 0 0 1-12.531 3.361zm746.465-591.678c-173.08.303-341.532-89.392-434.283-250.041-138.048-239.106-56.124-544.85 182.982-682.898s544.85-56.124 682.898 182.982 56.124 544.85-182.982 682.898c-78.457 45.297-164.088 66.91-248.615 67.059zm137.758-133.455c21.329-.04 42.94-5.498 62.746-16.934 60.362-34.85 81.026-111.968 46.176-172.33l-12.615-21.852-218.506 126.154 12.615 21.852c23.415 40.556 65.91 63.191 109.584 63.109zm-147.51-128.799L761.021 111.49l.08.137c-12.042-51.134-6.311-103.969-.775-156.512l4.158-41.367c4.569-54.533-6.792-110.795-36.201-161.734-76.718-132.879-246.463-178.361-379.205-101.723S170.854-103.324 247.492 29.418c29.41 50.939 72.531 89.044 121.963 112.217 12.505 5.89 25.205 11.486 37.904 17.082 48.407 21.398 97.109 42.99 135.156 78.928zM356.828-8.449c-8.741.004-17.274-4.521-21.936-12.596-48.806-84.534-19.888-192.456 64.646-241.262 12.018-6.938 27.528-2.783 34.467 9.234s2.781 27.528-9.236 34.467c-60.362 34.85-81.026 111.968-46.176 172.33 6.938 12.018 2.783 27.528-9.234 34.467a25.01 25.01 0 0 1-12.531 3.359zm1295.414 508.347c-173.08.303-341.532-89.392-434.283-250.041-138.048-239.106-56.124-544.85 182.982-682.898s544.85-56.124 682.898 182.982 56.124 544.85-182.982 682.898c-78.457 45.297-164.088 66.91-248.615 67.059zm137.76-133.455c21.329-.04 42.938-5.498 62.744-16.934 60.362-34.85 81.026-111.968 46.176-172.33l-12.615-21.852-218.506 126.154 12.615 21.852c23.415 40.556 65.912 63.191 109.586 63.109zm-147.51-128.799l218.506-126.154.078.137c-12.042-51.134-6.311-103.969-.775-156.512l4.158-41.367c4.569-54.533-6.791-110.795-36.201-161.734-76.717-132.879-246.463-178.361-379.205-101.723s-178.224 246.385-101.586 379.127c29.41 50.939 72.532 89.044 121.965 112.217 12.505 5.89 25.205 11.486 37.904 17.082 48.407 21.398 97.109 42.99 135.156 78.928zM1456.803-8.449c-8.741.004-17.272-4.521-21.934-12.596-48.806-84.534-19.888-192.456 64.646-241.262 12.018-6.938 27.526-2.783 34.465 9.234s2.783 27.528-9.234 34.467c-60.362 34.85-81.026 111.968-46.176 172.33 6.938 12.018 2.783 27.528-9.234 34.467a25.02 25.02 0 0 1-12.533 3.359zm195.465 2708.347c-173.08.303-341.532-89.392-434.283-250.041-138.048-239.106-56.124-544.85 182.982-682.898s544.85-56.124 682.898 182.982 56.124 544.851-182.982 682.898c-78.457 45.297-164.088 66.91-248.615 67.059zm137.758-133.455c21.329-.04 42.94-5.499 62.746-16.934 60.362-34.85 81.026-111.968 46.176-172.33l-12.615-21.852-218.506 126.154 12.615 21.852c23.415 40.556 65.91 63.191 109.584 63.109zm-147.51-128.799l218.506-126.154.08.137c-12.042-51.134-6.311-103.97-.775-156.512l4.158-41.367c4.569-54.533-6.791-110.795-36.201-161.734-76.717-132.879-246.463-178.361-379.205-101.723s-178.224 246.383-101.586 379.125c29.41 50.939 72.53 89.046 121.963 112.219 12.505 5.89 25.205 11.486 37.904 17.082 48.407 21.398 97.109 42.99 135.156 78.928zm-185.687-246.094c-8.741.004-17.272-4.521-21.934-12.596-48.806-84.534-19.89-192.456 64.645-241.262 12.018-6.938 27.528-2.783 34.467 9.234s2.781 27.528-9.236 34.467c-60.362 34.85-81.026 111.968-46.176 172.33 6.938 12.018 2.783 27.526-9.234 34.465a25.01 25.01 0 0 1-12.531 3.361zm-904.587 508.348c-173.08.303-341.532-89.392-434.283-250.041-138.048-239.106-56.124-544.85 182.982-682.898s544.85-56.124 682.898 182.982 56.124 544.851-182.982 682.898c-78.457 45.297-164.088 66.91-248.615 67.059zm137.76-133.455c21.329-.04 42.938-5.499 62.744-16.934 60.362-34.85 81.026-111.968 46.176-172.33l-12.615-21.852-218.506 126.154 12.615 21.852c23.415 40.556 65.912 63.191 109.586 63.109zm-147.51-128.799l218.506-126.154.078.137c-12.042-51.134-6.311-103.97-.775-156.512l4.158-41.367c4.569-54.533-6.792-110.795-36.201-161.734-76.718-132.879-246.463-178.361-379.205-101.723s-178.225 246.383-101.586 379.125c29.41 50.939 72.533 89.046 121.965 112.219 12.505 5.89 25.205 11.486 37.904 17.082 48.407 21.398 97.109 42.99 135.156 78.928zM356.803 2191.55c-8.741.004-17.272-4.521-21.934-12.596-48.806-84.534-19.888-192.456 64.646-241.262 12.018-6.938 27.526-2.783 34.465 9.234s2.783 27.528-9.234 34.467c-60.362 34.85-81.026 111.968-46.176 172.33 6.938 12.018 2.781 27.526-9.236 34.465a25.01 25.01 0 0 1-12.531 3.361z"/></svg>