<?xml version="1.0" encoding="UTF-8"?>
<!-- Generated by Pixelmator Pro 3.2.3 -->
<svg width="2200" height="2200" viewBox="0 0 2200 2200" xmlns="http://www.w3.org/2000/svg" xmlns:xlink="http://www.w3.org/1999/xlink">
    <g id="empathetic" opacity="0.050265">
        <path id="Shape-copy" fill="#000000" fill-rule="evenodd" stroke="none" d="M 1098.582031 1599.923828 C 1014.054626 1599.775635 928.423523 1578.162231 849.966797 1532.865234 C 610.860657 1394.817139 528.93634 1089.072998 666.984375 849.966797 C 805.03241 610.860718 1110.776733 528.936401 1349.882813 666.984375 C 1588.988892 805.032349 1670.913208 1110.776611 1532.865234 1349.882813 C 1440.114136 1510.532227 1271.661987 1600.227295 1098.582031 1599.923828 Z M 864.154297 1351.609375 C 873.209229 1351.594482 882.382141 1349.280029 890.783203 1344.429688 L 995.322266 1284.074219 L 1130.150391 1313.667969 C 1159.072021 1320.029053 1187.564575 1301.775146 1193.925781 1272.853516 C 1195.836914 1263.891968 1195.452271 1254.969238 1193.160156 1246.759766 L 1218.287109 1252.347656 C 1247.112061 1258.764648 1275.756958 1240.551514 1282.173828 1211.726563 C 1283.788208 1204.482178 1283.797363 1197.135498 1282.535156 1190.263672 C 1308.530273 1192.002197 1332.532227 1174.66687 1338.351563 1148.376953 C 1344.768433 1119.55188 1326.553467 1090.905151 1297.728516 1084.488281 L 1099.458984 1040.509766 L 1071.933594 1108.1875 C 1055.22168 1149.526123 1007.497498 1168.834473 966.623047 1150.695313 C 928.161133 1133.610962 909.808167 1089.329712 924.896484 1050.087891 L 967.740234 938.654297 C 953.7995 940.390747 940.328796 944.948975 928.058594 952.033203 C 909.838989 962.423462 895.281494 978.041992 885.914063 996.847656 L 843.126953 1083.384766 L 765.833984 1128.009766 C 740.230713 1142.791748 731.450439 1175.558838 746.232422 1201.162109 L 817.632813 1324.830078 C 827.564514 1342.032227 845.61322 1351.639771 864.154297 1351.609375 Z M 998.287109 1121.755859 C 1015.533997 1121.924927 1031.994751 1111.697632 1038.882813 1094.677734 L 1091.759766 964.699219 C 1095.51062 955.577271 1105.842041 951.158325 1115.060547 954.853516 C 1124.279175 958.548584 1128.601318 968.935791 1124.90625 978.154297 L 1113.75 1005.464844 L 1375.988281 1064.296875 L 1416.375 1040.980469 C 1441.978149 1026.198364 1450.756714 993.433228 1435.974609 967.830078 L 1364.574219 844.162109 C 1349.792114 818.558838 1317.0271 809.778564 1291.423828 824.560547 L 1217.996094 866.955078 L 1214.130859 869.185547 L 1213.455078 869.576172 L 1208.292969 869.335938 L 1112.210938 864.90625 C 1091.962158 863.972412 1071.7677 868.933716 1054.183594 879.085938 C 1033.121338 891.246216 1016.821777 910.317993 1008.039063 933.037109 L 958.248047 1062.78125 C 949.944397 1084.322144 960.000916 1108.658813 981.103516 1117.988281 C 986.70166 1120.48877 992.538147 1121.699463 998.287109 1121.755859 Z"/>
        <path id="Shape-copy-2" fill="#000000" fill-rule="evenodd" stroke="none" d="M -1.417969 1599.923828 C -85.945396 1599.775635 -171.576508 1578.162231 -250.033203 1532.865234 C -489.139343 1394.817139 -571.06366 1089.072998 -433.015625 849.966797 C -294.967621 610.860718 10.776691 528.936401 249.882813 666.984375 C 488.988892 805.032349 570.913086 1110.776611 432.865234 1349.882813 C 340.114166 1510.532227 171.662003 1600.227295 -1.417969 1599.923828 Z M -235.845703 1351.609375 C -226.790756 1351.594482 -217.617844 1349.280029 -209.216797 1344.429688 L -104.677734 1284.074219 L 30.150391 1313.667969 C 59.071991 1320.029053 87.566536 1301.775146 93.927734 1272.853516 C 95.838867 1263.891968 95.452271 1254.969238 93.160156 1246.759766 L 118.287109 1252.347656 C 147.112045 1258.764648 175.756958 1240.551514 182.173828 1211.726563 C 183.788208 1204.482178 183.797363 1197.135498 182.535156 1190.263672 C 208.530243 1192.002197 232.532227 1174.66687 238.351563 1148.376953 C 244.768433 1119.55188 226.553436 1090.905151 197.728516 1084.488281 L -0.541016 1040.509766 L -28.066406 1108.1875 C -44.778305 1149.526123 -92.502487 1168.834473 -133.376953 1150.695313 C -171.838882 1133.610962 -190.191818 1089.329712 -175.103516 1050.087891 L -132.259766 938.654297 C -146.200485 940.390747 -159.671219 944.948975 -171.941406 952.033203 C -190.160995 962.423462 -204.718521 978.041992 -214.085938 996.847656 L -256.873047 1083.384766 L -334.166016 1128.009766 C -359.769257 1142.791748 -368.549561 1175.558838 -353.767578 1201.162109 L -282.367188 1324.830078 C -272.435516 1342.032227 -254.386795 1351.639771 -235.845703 1351.609375 Z M -101.712891 1121.755859 C -84.465981 1121.924927 -68.005241 1111.697632 -61.117188 1094.677734 L -8.240234 964.699219 C -4.489384 955.577271 5.84202 951.158325 15.060547 954.853516 C 24.279167 958.548584 28.601315 968.935791 24.90625 978.154297 L 13.75 1005.464844 L 275.988281 1064.296875 L 316.375 1040.980469 C 341.978119 1026.198364 350.756714 993.433228 335.974609 967.830078 L 264.574219 844.162109 C 249.79213 818.558838 217.027069 809.778564 191.423828 824.560547 L 117.996094 866.955078 L 114.130859 869.185547 L 113.455078 869.576172 L 108.292969 869.335938 L 12.210938 864.90625 C -8.037852 863.972412 -28.232315 868.933716 -45.816406 879.085938 C -66.878639 891.246216 -83.17823 910.317993 -91.960938 933.037109 L -141.751953 1062.78125 C -150.055588 1084.322144 -139.999054 1108.658813 -118.896484 1117.988281 C -113.298363 1120.48877 -107.461861 1121.699463 -101.712891 1121.755859 Z"/>
        <path id="Shape-copy-3" fill="#000000" fill-rule="evenodd" stroke="none" d="M 2198.582031 1599.923828 C 2114.054688 1599.775635 2028.423462 1578.162231 1949.966797 1532.865234 C 1710.860718 1394.817139 1628.936401 1089.072998 1766.984375 849.966797 C 1905.032349 610.860718 2210.776611 528.936401 2449.882813 666.984375 C 2688.989014 805.032349 2770.913086 1110.776611 2632.865234 1349.882813 C 2540.114258 1510.532227 2371.662109 1600.227295 2198.582031 1599.923828 Z M 1964.154297 1351.609375 C 1973.209229 1351.594482 1982.382202 1349.280029 1990.783203 1344.429688 L 2095.322266 1284.074219 L 2230.150391 1313.667969 C 2259.072021 1320.029053 2287.564697 1301.775146 2293.925781 1272.853516 C 2295.836914 1263.891968 2295.452393 1254.969238 2293.160156 1246.759766 L 2318.287109 1252.347656 C 2347.112061 1258.764648 2375.758789 1240.551514 2382.175781 1211.726563 C 2383.790039 1204.482178 2383.797363 1197.135498 2382.535156 1190.263672 C 2408.530273 1192.002197 2432.532227 1174.66687 2438.351563 1148.376953 C 2444.768311 1119.55188 2426.553467 1090.905151 2397.728516 1084.488281 L 2199.458984 1040.509766 L 2171.933594 1108.1875 C 2155.22168 1149.526123 2107.497559 1168.834473 2066.623047 1150.695313 C 2028.161133 1133.610962 2009.808105 1089.329712 2024.896484 1050.087891 L 2067.740234 938.654297 C 2053.799561 940.390747 2040.328735 944.948975 2028.058594 952.033203 C 2009.838989 962.423462 1995.281494 978.041992 1985.914063 996.847656 L 1943.125 1083.384766 L 1865.833984 1128.009766 C 1840.230713 1142.791748 1831.450439 1175.558838 1846.232422 1201.162109 L 1917.632813 1324.830078 C 1927.564575 1342.032227 1945.613281 1351.639771 1964.154297 1351.609375 Z M 2098.287109 1121.755859 C 2115.533936 1121.924927 2131.994873 1111.697632 2138.882813 1094.677734 L 2191.759766 964.699219 C 2195.510742 955.577271 2205.842041 951.158325 2215.060547 954.853516 C 2224.279297 958.548584 2228.601318 968.935791 2224.90625 978.154297 L 2213.75 1005.464844 L 2475.988281 1064.296875 L 2516.375 1040.980469 C 2541.978027 1026.198364 2550.756592 993.433228 2535.974609 967.830078 L 2464.574219 844.162109 C 2449.791992 818.558838 2417.0271 809.778564 2391.423828 824.560547 L 2317.996094 866.955078 L 2314.130859 869.185547 L 2313.455078 869.576172 L 2308.292969 869.335938 L 2212.210938 864.90625 C 2191.962158 863.972412 2171.767822 868.933716 2154.183594 879.085938 C 2133.121338 891.246216 2116.821777 910.317993 2108.039063 933.037109 L 2058.248047 1062.78125 C 2049.944336 1084.322144 2060.000977 1108.658813 2081.103516 1117.988281 C 2086.70166 1120.48877 2092.538086 1121.699463 2098.287109 1121.755859 Z"/>
        <path id="Shape-copy-4" fill="#000000" fill-rule="evenodd" stroke="none" d="M 1648.582031 499.923828 C 1564.054565 499.775635 1478.423462 478.162231 1399.966797 432.865234 C 1160.860718 294.817139 1078.936401 -10.927246 1216.984375 -250.033203 C 1355.032349 -489.139404 1660.776733 -571.063477 1899.882813 -433.015625 C 2138.989014 -294.967773 2220.913086 10.776611 2082.865234 249.882813 C 1990.114136 410.532227 1821.661987 500.227295 1648.582031 499.923828 Z M 1414.154297 251.609375 C 1423.209229 251.594482 1432.382202 249.280029 1440.783203 244.429688 L 1545.322266 184.074219 L 1680.150391 213.667969 C 1709.072021 220.029175 1737.564575 201.775024 1743.925781 172.853516 C 1745.836914 163.891968 1745.452271 154.969116 1743.160156 146.759766 L 1768.287109 152.347656 C 1797.112061 158.764526 1825.756958 140.551514 1832.173828 111.726563 C 1833.788208 104.482178 1833.797363 97.135498 1832.535156 90.263672 C 1858.530273 92.002197 1882.532227 74.666748 1888.351563 48.376953 C 1894.768433 19.551758 1876.553467 -9.094971 1847.728516 -15.511719 L 1649.458984 -59.490234 L 1621.933594 8.1875 C 1605.22168 49.526123 1557.497559 68.834473 1516.623047 50.695313 C 1478.161133 33.61084 1459.808105 -10.67041 1474.896484 -49.912109 L 1517.740234 -161.345703 C 1503.799561 -159.609131 1490.328735 -155.051025 1478.058594 -147.966797 C 1459.838989 -137.576416 1445.281494 -121.958008 1435.914063 -103.152344 L 1393.125 -16.613281 L 1315.833984 28.009766 C 1290.230713 42.791748 1281.450439 75.556885 1296.232422 101.160156 L 1367.632813 224.830078 C 1377.564575 242.032227 1395.613281 251.639771 1414.154297 251.609375 Z M 1548.287109 21.755859 C 1565.534058 21.924805 1581.994751 11.697754 1588.882813 -5.322266 L 1641.759766 -135.300781 C 1645.51062 -144.422607 1655.842041 -148.841553 1665.060547 -145.146484 C 1674.279175 -141.451416 1678.601318 -131.064209 1674.90625 -121.845703 L 1663.75 -94.535156 L 1925.988281 -35.703125 L 1966.375 -59.019531 C 1991.978149 -73.801758 2000.756714 -106.566895 1985.974609 -132.169922 L 1914.574219 -255.837891 C 1899.792114 -281.441162 1867.0271 -290.221436 1841.423828 -275.439453 L 1767.996094 -233.044922 L 1764.130859 -230.814453 L 1763.455078 -230.423828 L 1758.292969 -230.664063 L 1662.210938 -235.09375 C 1641.962158 -236.027588 1621.7677 -231.066406 1604.183594 -220.914063 C 1583.121338 -208.753906 1566.821777 -189.681885 1558.039063 -166.962891 L 1508.248047 -37.21875 C 1499.944336 -15.677734 1510.000854 8.658691 1531.103516 17.988281 C 1536.70166 20.48877 1542.538086 21.699463 1548.287109 21.755859 Z"/>
        <path id="Shape-copy-5" fill="#000000" fill-rule="evenodd" stroke="none" d="M 548.582031 499.923828 C 464.054596 499.775635 378.423492 478.162231 299.966797 432.865234 C 60.860653 294.817139 -21.063643 -10.927246 116.984375 -250.033203 C 255.032394 -489.139404 560.776733 -571.063477 799.882813 -433.015625 C 1038.988892 -294.967773 1120.913208 10.776611 982.865234 249.882813 C 890.114197 410.532227 721.661987 500.227295 548.582031 499.923828 Z M 314.154297 251.609375 C 323.209259 251.594482 332.382172 249.280029 340.783203 244.429688 L 445.322266 184.074219 L 580.150391 213.667969 C 609.072021 220.029175 637.564575 201.775024 643.925781 172.853516 C 645.836914 163.891968 645.452271 154.969116 643.160156 146.759766 L 668.287109 152.347656 C 697.112061 158.764526 725.756958 140.551514 732.173828 111.726563 C 733.788208 104.482178 733.797363 97.135498 732.535156 90.263672 C 758.530273 92.002197 782.532227 74.666748 788.351563 48.376953 C 794.768433 19.551758 776.553467 -9.094971 747.728516 -15.511719 L 549.458984 -59.490234 L 521.933594 8.1875 C 505.22171 49.526123 457.497528 68.834473 416.623047 50.695313 C 378.161102 33.61084 359.808167 -10.67041 374.896484 -49.912109 L 417.740234 -161.345703 C 403.7995 -159.609131 390.328796 -155.051025 378.058594 -147.966797 C 359.83902 -137.576416 345.281494 -121.958008 335.914063 -103.152344 L 293.126953 -16.613281 L 215.833984 28.009766 C 190.230743 42.791748 181.450455 75.556885 196.232422 101.160156 L 267.632813 224.830078 C 277.564484 242.032227 295.61322 251.639771 314.154297 251.609375 Z M 448.287109 21.755859 C 465.534027 21.924805 481.994751 11.697754 488.882813 -5.322266 L 541.759766 -135.300781 C 545.51062 -144.422607 555.842041 -148.841553 565.060547 -145.146484 C 574.279175 -141.451416 578.601318 -131.064209 574.90625 -121.845703 L 563.75 -94.535156 L 825.988281 -35.703125 L 866.375 -59.019531 C 891.978149 -73.801758 900.756714 -106.566895 885.974609 -132.169922 L 814.574219 -255.837891 C 799.792114 -281.441162 767.0271 -290.221436 741.423828 -275.439453 L 667.996094 -233.044922 L 664.130859 -230.814453 L 663.455078 -230.423828 L 658.292969 -230.664063 L 562.210938 -235.09375 C 541.962158 -236.027588 521.7677 -231.066406 504.183594 -220.914063 C 483.121368 -208.753906 466.821777 -189.681885 458.039063 -166.962891 L 408.248047 -37.21875 C 399.944397 -15.677734 410.000946 8.658691 431.103516 17.988281 C 436.70163 20.48877 442.538147 21.699463 448.287109 21.755859 Z"/>
        <path id="Shape-copy-6" fill="#000000" fill-rule="evenodd" stroke="none" d="M 548.582031 2699.923828 C 464.054596 2699.775635 378.423492 2678.162109 299.966797 2632.865234 C 60.860653 2494.817139 -21.063643 2189.072998 116.984375 1949.966797 C 255.032394 1710.860718 560.776733 1628.936279 799.882813 1766.984375 C 1038.988892 1905.032349 1120.913208 2210.776611 982.865234 2449.882813 C 890.114197 2610.532227 721.661987 2700.227295 548.582031 2699.923828 Z M 314.154297 2451.609375 C 323.209259 2451.594482 332.382172 2449.280029 340.783203 2444.429688 L 445.322266 2384.074219 L 580.150391 2413.667969 C 609.072021 2420.029053 637.564575 2401.775146 643.925781 2372.853516 C 645.836914 2363.89209 645.452271 2354.969238 643.160156 2346.759766 L 668.287109 2352.347656 C 697.112061 2358.764648 725.756958 2340.551514 732.173828 2311.726563 C 733.788208 2304.482178 733.797363 2297.135498 732.535156 2290.263672 C 758.530273 2292.002197 782.532227 2274.666748 788.351563 2248.376953 C 794.768433 2219.552002 776.553467 2190.905029 747.728516 2184.488281 L 549.458984 2140.509766 L 521.933594 2208.1875 C 505.22171 2249.526123 457.497528 2268.834473 416.623047 2250.695313 C 378.161102 2233.611084 359.808167 2189.32959 374.896484 2150.087891 L 417.740234 2038.654297 C 403.7995 2040.390747 390.328796 2044.948975 378.058594 2052.033203 C 359.83902 2062.42334 345.281494 2078.041992 335.914063 2096.847656 L 293.126953 2183.384766 L 215.833984 2228.009766 C 190.230743 2242.791748 181.450455 2275.558838 196.232422 2301.162109 L 267.632813 2424.830078 C 277.564484 2442.032227 295.61322 2451.639648 314.154297 2451.609375 Z M 448.287109 2221.755859 C 465.534027 2221.924805 481.994751 2211.697754 488.882813 2194.677734 L 541.759766 2064.699219 C 545.51062 2055.577393 555.842041 2051.158203 565.060547 2054.853516 C 574.279175 2058.548584 578.601318 2068.935791 574.90625 2078.154297 L 563.75 2105.464844 L 825.988281 2164.296875 L 866.375 2140.980469 C 891.978149 2126.198486 900.756714 2093.433105 885.974609 2067.830078 L 814.574219 1944.162109 C 799.792114 1918.558838 767.0271 1909.778564 741.423828 1924.560547 L 667.996094 1966.955078 L 664.130859 1969.185547 L 663.455078 1969.576172 L 658.292969 1969.335938 L 562.210938 1964.90625 C 541.962158 1963.972412 521.7677 1968.933716 504.183594 1979.085938 C 483.121368 1991.246216 466.821777 2010.317993 458.039063 2033.037109 L 408.248047 2162.78125 C 399.944397 2184.322021 410.000946 2208.658936 431.103516 2217.988281 C 436.70163 2220.48877 442.538147 2221.699463 448.287109 2221.755859 Z"/>
        <path id="Shape-copy-7" fill="#000000" fill-rule="evenodd" stroke="none" d="M 1648.582031 2699.923828 C 1564.054565 2699.775635 1478.423462 2678.162109 1399.966797 2632.865234 C 1160.860718 2494.817139 1078.936401 2189.072998 1216.984375 1949.966797 C 1355.032349 1710.860718 1660.776733 1628.936279 1899.882813 1766.984375 C 2138.989014 1905.032349 2220.913086 2210.776611 2082.865234 2449.882813 C 1990.114136 2610.532227 1821.661987 2700.227295 1648.582031 2699.923828 Z M 1414.154297 2451.609375 C 1423.209229 2451.594482 1432.382202 2449.280029 1440.783203 2444.429688 L 1545.322266 2384.074219 L 1680.150391 2413.667969 C 1709.072021 2420.029053 1737.564575 2401.775146 1743.925781 2372.853516 C 1745.836914 2363.89209 1745.452271 2354.969238 1743.160156 2346.759766 L 1768.287109 2352.347656 C 1797.112061 2358.764648 1825.756958 2340.551514 1832.173828 2311.726563 C 1833.788208 2304.482178 1833.797363 2297.135498 1832.535156 2290.263672 C 1858.530273 2292.002197 1882.532227 2274.666748 1888.351563 2248.376953 C 1894.768433 2219.552002 1876.553467 2190.905029 1847.728516 2184.488281 L 1649.458984 2140.509766 L 1621.933594 2208.1875 C 1605.22168 2249.526123 1557.497559 2268.834473 1516.623047 2250.695313 C 1478.161133 2233.611084 1459.808105 2189.32959 1474.896484 2150.087891 L 1517.740234 2038.654297 C 1503.799561 2040.390747 1490.328735 2044.948975 1478.058594 2052.033203 C 1459.838989 2062.42334 1445.281494 2078.041992 1435.914063 2096.847656 L 1393.125 2183.384766 L 1315.833984 2228.009766 C 1290.230713 2242.791748 1281.450439 2275.558838 1296.232422 2301.162109 L 1367.632813 2424.830078 C 1377.564575 2442.032227 1395.613281 2451.639648 1414.154297 2451.609375 Z M 1548.287109 2221.755859 C 1565.534058 2221.924805 1581.994751 2211.697754 1588.882813 2194.677734 L 1641.759766 2064.699219 C 1645.51062 2055.577393 1655.842041 2051.158203 1665.060547 2054.853516 C 1674.279175 2058.548584 1678.601318 2068.935791 1674.90625 2078.154297 L 1663.75 2105.464844 L 1925.988281 2164.296875 L 1966.375 2140.980469 C 1991.978149 2126.198486 2000.756714 2093.433105 1985.974609 2067.830078 L 1914.574219 1944.162109 C 1899.792114 1918.558838 1867.0271 1909.778564 1841.423828 1924.560547 L 1767.996094 1966.955078 L 1764.130859 1969.185547 L 1763.455078 1969.576172 L 1758.292969 1969.335938 L 1662.210938 1964.90625 C 1641.962158 1963.972412 1621.7677 1968.933716 1604.183594 1979.085938 C 1583.121338 1991.246216 1566.821777 2010.317993 1558.039063 2033.037109 L 1508.248047 2162.78125 C 1499.944336 2184.322021 1510.000854 2208.658936 1531.103516 2217.988281 C 1536.70166 2220.48877 1542.538086 2221.699463 1548.287109 2221.755859 Z"/>
    </g>
</svg>
