<?xml version="1.0" encoding="UTF-8"?>
<!-- Generated by Pixelmator Pro 3.2.3 -->
<svg width="2200" height="2200" viewBox="0 0 2200 2200" xmlns="http://www.w3.org/2000/svg" xmlns:xlink="http://www.w3.org/1999/xlink">
    <g id="forward" opacity="0.047428">
        <path id="Shape-copy" fill="#000000" fill-rule="evenodd" stroke="none" d="M 1098.582031 1599.923828 C 1014.054626 1599.775635 928.423523 1578.162231 849.966797 1532.865234 C 610.860657 1394.817139 528.93634 1089.072998 666.984375 849.966797 C 805.03241 610.860718 1110.776733 528.936401 1349.882813 666.984375 C 1588.988892 805.032349 1670.913208 1110.776611 1532.865234 1349.882813 C 1440.114136 1510.532227 1271.661987 1600.227295 1098.582031 1599.923828 Z M 997.509766 1462.966797 C 999.412231 1462.995972 1001.701477 1462.858643 1003.271484 1462.595703 C 1005.669067 1462.194092 1009.584351 1460.37207 1013.853516 1457.671875 C 1019.384949 1454.17334 1021.236328 1452.416748 1023.925781 1448.117188 C 1026.494019 1444.011353 1032.856812 1422.011963 1052.769531 1348.392578 C 1066.821167 1296.441772 1086.56665 1222.153687 1096.648438 1183.308594 C 1110.537231 1129.795288 1114.890869 1111.335083 1114.609375 1107.123047 C 1114.303101 1102.541992 1113.488647 1100.269409 1109.986328 1094.203125 C 1106.490723 1088.14856 1104.920532 1086.295776 1101.140625 1083.765625 C 1097.683472 1081.451294 1079.445923 1075.963501 1027.507813 1061.613281 C 989.537048 1051.122192 934.975281 1036.321655 906.259766 1028.722656 C 877.54425 1021.123779 833.571716 1009.586914 808.542969 1003.085938 C 775.551147 994.516479 761.587524 991.376221 757.767578 991.667969 C 754.869629 991.889282 750.149597 993.166138 747.279297 994.503906 C 743.31366 996.352173 741.133423 998.067383 738.199219 1001.650391 C 736.075439 1004.243774 733.435974 1009.134521 732.333984 1012.517578 C 731.232056 1015.900635 730.458679 1021.126587 730.613281 1024.130859 C 730.843445 1028.603638 731.617188 1030.848389 734.892578 1036.521484 C 738.087708 1042.055664 739.814819 1044.078247 743.472656 1046.578125 C 747.144226 1049.087524 777.737732 1057.688965 1047.601563 1130.234375 L 1007.578125 1280.064453 C 975.125427 1401.550049 967.641663 1430.933838 968.013672 1435.400391 C 968.364624 1439.614502 969.346863 1442.446533 972.195313 1447.449219 C 974.890076 1452.182129 977.013123 1454.780029 979.882813 1456.855469 C 982.063599 1458.432617 985.70282 1460.35376 987.96875 1461.125 C 990.23468 1461.89624 993.748718 1462.687256 995.777344 1462.880859 C 996.284485 1462.929199 996.87561 1462.957031 997.509766 1462.966797 Z M 1285.845703 1296.945313 C 1288.493164 1296.962524 1292.423706 1296.468628 1294.580078 1295.847656 C 1296.736328 1295.226563 1300.329956 1293.439941 1302.564453 1291.876953 C 1304.79895 1290.313965 1308.193604 1286.745605 1310.109375 1283.947266 C 1313.091431 1279.591797 1320.058105 1254.832153 1358.505859 1111.927734 C 1394.909668 976.62085 1403.334229 943.950928 1402.978516 939.476563 C 1402.637329 935.184082 1401.705078 932.511597 1398.789063 927.460938 C 1395.870972 922.406616 1394.027832 920.270508 1390.476563 917.828125 C 1386.781128 915.286621 1354.129028 906.202271 1218.873047 870.083984 C 1082.294678 833.612671 1050.709229 825.535034 1045.662109 825.787109 C 1040.661011 826.036865 1038.334229 826.755005 1033.410156 829.568359 C 1028.474854 832.387939 1026.666138 834.031982 1023.792969 838.316406 C 1021.734131 841.386597 1019.668823 846.359741 1018.853516 850.208984 C 1017.982849 854.319824 1017.90448 858.858276 1018.644531 862.195313 C 1019.432495 865.748291 1021.05011 869.391113 1023.425781 872.960938 C 1026.064697 876.92627 1028.326294 879.11731 1031.957031 881.226563 C 1035.306519 883.172363 1084.922119 897.000122 1335.125 964.222656 L 1295.015625 1114.107422 C 1260.309448 1243.796143 1254.978394 1264.803223 1255.451172 1270.025391 C 1255.859375 1274.53418 1256.820068 1277.486084 1259.248047 1281.691406 C 1261.613525 1285.788696 1263.741943 1288.192871 1267.072266 1290.527344 C 1269.588745 1292.291504 1273.759155 1294.449951 1276.339844 1295.324219 C 1278.920532 1296.198486 1283.198364 1296.928223 1285.845703 1296.945313 Z"/>
        <path id="Shape-copy-4" fill="#000000" fill-rule="evenodd" stroke="none" d="M 548.582031 2699.923828 C 464.054596 2699.775635 378.423492 2678.162109 299.966797 2632.865234 C 60.860653 2494.817139 -21.063648 2189.072998 116.984375 1949.966797 C 255.032394 1710.860718 560.776733 1628.936279 799.882813 1766.984375 C 1038.988892 1905.032349 1120.913208 2210.776611 982.865234 2449.882813 C 890.114197 2610.532227 721.661987 2700.227295 548.582031 2699.923828 Z M 447.509766 2562.966797 C 449.412262 2562.99585 451.701508 2562.858643 453.271484 2562.595703 C 455.669067 2562.194092 459.584351 2560.37207 463.853516 2557.671875 C 469.384949 2554.17334 471.236328 2552.416748 473.925781 2548.117188 C 476.49408 2544.01123 482.856842 2522.011963 502.769531 2448.392578 C 516.821167 2396.44165 536.56665 2322.153809 546.648438 2283.308594 C 560.537231 2229.79541 564.890869 2211.334961 564.609375 2207.123047 C 564.303101 2202.541992 563.488647 2200.267334 559.986328 2194.201172 C 556.490723 2188.146729 554.920532 2186.295654 551.140625 2183.765625 C 547.683472 2181.451416 529.445862 2175.963379 477.507813 2161.613281 C 439.537018 2151.122314 384.97525 2136.321533 356.259766 2128.722656 C 327.544281 2121.123779 283.571686 2109.586914 258.542969 2103.085938 C 225.551117 2094.516602 211.587524 2091.376221 207.767578 2091.667969 C 204.869629 2091.88916 200.149597 2093.166016 197.279297 2094.503906 C 193.31366 2096.352051 191.133423 2098.067383 188.199219 2101.650391 C 186.075439 2104.243652 183.435974 2109.134521 182.333984 2112.517578 C 181.232056 2115.900635 180.458679 2121.126465 180.613281 2124.130859 C 180.843445 2128.603516 181.617188 2130.848389 184.892578 2136.521484 C 188.087708 2142.055664 189.814819 2144.078369 193.472656 2146.578125 C 197.144226 2149.087402 227.737762 2157.688965 497.601563 2230.234375 L 457.578125 2380.064453 C 425.125397 2501.550049 417.641663 2530.933838 418.013672 2535.400391 C 418.364624 2539.614502 419.346863 2542.446533 422.195313 2547.449219 C 424.890076 2552.182129 427.013123 2554.780029 429.882813 2556.855469 C 432.063599 2558.432617 435.70282 2560.35376 437.96875 2561.125 C 440.23468 2561.89624 443.748718 2562.687256 445.777344 2562.880859 C 446.284485 2562.929199 446.87561 2562.957031 447.509766 2562.966797 Z M 735.845703 2396.945313 C 738.493164 2396.962402 742.423706 2396.46875 744.580078 2395.847656 C 746.736328 2395.226563 750.329956 2393.439941 752.564453 2391.876953 C 754.79895 2390.313965 758.193604 2386.745605 760.109375 2383.947266 C 763.091431 2379.591797 770.058167 2354.832031 808.505859 2211.927734 C 844.909607 2076.62085 853.334229 2043.950928 852.978516 2039.476563 C 852.637329 2035.184082 851.705078 2032.51355 848.789063 2027.462891 C 845.870972 2022.408569 844.027832 2020.270508 840.476563 2017.828125 C 836.781128 2015.286621 804.129028 2006.202271 668.873047 1970.083984 C 532.294678 1933.612793 500.709229 1925.535034 495.662109 1925.787109 C 490.661011 1926.036865 488.334229 1926.755005 483.410156 1929.568359 C 478.474854 1932.387939 476.666138 1934.031982 473.792969 1938.316406 C 471.734131 1941.386597 469.668823 1946.359741 468.853516 1950.208984 C 467.982849 1954.319824 467.90448 1958.858276 468.644531 1962.195313 C 469.432495 1965.748291 471.05011 1969.391113 473.425781 1972.960938 C 476.064697 1976.92627 478.326294 1979.119263 481.957031 1981.228516 C 485.306519 1983.174316 534.922119 1997 785.125 2064.222656 L 745.015625 2214.107422 C 710.309509 2343.796143 704.978394 2364.803223 705.451172 2370.025391 C 705.859375 2374.53418 706.820068 2377.484131 709.248047 2381.689453 C 711.613525 2385.786621 713.741943 2388.192871 717.072266 2390.527344 C 719.588745 2392.291504 723.759155 2394.449951 726.339844 2395.324219 C 728.920532 2396.198486 733.198364 2396.928223 735.845703 2396.945313 Z"/>
        <path id="Shape-copy-5" fill="#000000" fill-rule="evenodd" stroke="none" d="M 1648.582031 2699.923828 C 1564.054565 2699.775635 1478.423462 2678.162109 1399.966797 2632.865234 C 1160.860718 2494.817139 1078.936279 2189.072998 1216.984375 1949.966797 C 1355.032349 1710.860718 1660.776733 1628.936279 1899.882813 1766.984375 C 2138.989014 1905.032349 2220.913086 2210.776611 2082.865234 2449.882813 C 1990.114136 2610.532227 1821.661987 2700.227295 1648.582031 2699.923828 Z M 1547.509766 2562.966797 C 1549.412231 2562.99585 1551.701416 2562.858643 1553.271484 2562.595703 C 1555.669067 2562.194092 1559.584351 2560.37207 1563.853516 2557.671875 C 1569.38501 2554.17334 1571.236328 2552.416748 1573.925781 2548.117188 C 1576.494141 2544.01123 1582.856812 2522.011963 1602.769531 2448.392578 C 1616.821167 2396.44165 1636.56665 2322.153809 1646.648438 2283.308594 C 1660.537231 2229.79541 1664.890869 2211.334961 1664.609375 2207.123047 C 1664.303101 2202.541992 1663.488647 2200.267334 1659.986328 2194.201172 C 1656.490723 2188.146729 1654.920532 2186.295654 1651.140625 2183.765625 C 1647.683472 2181.451416 1629.445923 2175.963379 1577.507813 2161.613281 C 1539.536987 2151.122314 1484.97522 2136.321533 1456.259766 2128.722656 C 1427.544189 2121.123779 1383.571655 2109.586914 1358.542969 2103.085938 C 1325.551025 2094.516602 1311.587524 2091.376221 1307.767578 2091.667969 C 1304.869629 2091.88916 1300.149536 2093.166016 1297.279297 2094.503906 C 1293.313599 2096.352051 1291.133423 2098.067383 1288.199219 2101.650391 C 1286.075439 2104.243652 1283.435913 2109.134521 1282.333984 2112.517578 C 1281.232056 2115.900635 1280.458618 2121.126465 1280.613281 2124.130859 C 1280.843384 2128.603516 1281.617188 2130.848389 1284.892578 2136.521484 C 1288.087646 2142.055664 1289.814819 2144.078369 1293.472656 2146.578125 C 1297.144165 2149.087402 1327.737671 2157.688965 1597.601563 2230.234375 L 1557.578125 2380.064453 C 1525.125366 2501.550049 1517.641724 2530.933838 1518.013672 2535.400391 C 1518.364624 2539.614502 1519.346924 2542.446533 1522.195313 2547.449219 C 1524.890137 2552.182129 1527.013184 2554.780029 1529.882813 2556.855469 C 1532.063599 2558.432617 1535.702881 2560.35376 1537.96875 2561.125 C 1540.234741 2561.89624 1543.748657 2562.687256 1545.777344 2562.880859 C 1546.284424 2562.929199 1546.87561 2562.957031 1547.509766 2562.966797 Z M 1835.845703 2396.945313 C 1838.493164 2396.962402 1842.423706 2396.46875 1844.580078 2395.847656 C 1846.736328 2395.226563 1850.329956 2393.439941 1852.564453 2391.876953 C 1854.79895 2390.313965 1858.193604 2386.745605 1860.109375 2383.947266 C 1863.091431 2379.591797 1870.058105 2354.832031 1908.505859 2211.927734 C 1944.909668 2076.62085 1953.334229 2043.950928 1952.978516 2039.476563 C 1952.637329 2035.184082 1951.705078 2032.51355 1948.789063 2027.462891 C 1945.870972 2022.408569 1944.027832 2020.270508 1940.476563 2017.828125 C 1936.781128 2015.286621 1904.129028 2006.202271 1768.873047 1970.083984 C 1632.294678 1933.612793 1600.709229 1925.535034 1595.662109 1925.787109 C 1590.661011 1926.036865 1588.334229 1926.755005 1583.410156 1929.568359 C 1578.474854 1932.387939 1576.666138 1934.031982 1573.792969 1938.316406 C 1571.734131 1941.386597 1569.668823 1946.359741 1568.853516 1950.208984 C 1567.98291 1954.319824 1567.904419 1958.858276 1568.644531 1962.195313 C 1569.432495 1965.748291 1571.050049 1969.391113 1573.425781 1972.960938 C 1576.064697 1976.92627 1578.326294 1979.119263 1581.957031 1981.228516 C 1585.306519 1983.174316 1634.922119 1997 1885.125 2064.222656 L 1845.015625 2214.107422 C 1810.309448 2343.796143 1804.978394 2364.803223 1805.451172 2370.025391 C 1805.859375 2374.53418 1806.820068 2377.484131 1809.248047 2381.689453 C 1811.613525 2385.786621 1813.741943 2388.192871 1817.072266 2390.527344 C 1819.588745 2392.291504 1823.759155 2394.449951 1826.339844 2395.324219 C 1828.920532 2396.198486 1833.198364 2396.928223 1835.845703 2396.945313 Z"/>
        <path id="Shape-copy-6" fill="#000000" fill-rule="evenodd" stroke="none" d="M 1648.582031 499.923828 C 1564.054565 499.775635 1478.423462 478.162231 1399.966797 432.865234 C 1160.860718 294.817139 1078.936279 -10.927246 1216.984375 -250.033203 C 1355.032349 -489.139404 1660.776733 -571.063477 1899.882813 -433.015625 C 2138.989014 -294.967773 2220.913086 10.776611 2082.865234 249.882813 C 1990.114136 410.532227 1821.661987 500.227295 1648.582031 499.923828 Z M 1547.509766 362.966797 C 1549.412231 362.995972 1551.701416 362.858643 1553.271484 362.595703 C 1555.669067 362.194092 1559.584351 360.371948 1563.853516 357.671875 C 1569.38501 354.17334 1571.236328 352.41687 1573.925781 348.117188 C 1576.494141 344.011353 1582.856812 322.011963 1602.769531 248.392578 C 1616.821167 196.44165 1636.56665 122.153809 1646.648438 83.308594 C 1660.537231 29.79541 1664.890869 11.334961 1664.609375 7.123047 C 1664.303101 2.541992 1663.488647 0.269287 1659.986328 -5.796875 C 1656.490723 -11.851563 1654.920532 -13.704346 1651.140625 -16.234375 C 1647.683472 -18.548828 1629.445923 -24.036377 1577.507813 -38.386719 C 1539.536987 -48.877686 1484.97522 -63.678223 1456.259766 -71.277344 C 1427.544189 -78.876221 1383.571655 -90.413086 1358.542969 -96.914063 C 1325.551025 -105.483398 1311.587524 -108.623779 1307.767578 -108.332031 C 1304.869629 -108.11084 1300.149536 -106.833984 1297.279297 -105.496094 C 1293.313599 -103.647949 1291.133423 -101.932617 1288.199219 -98.349609 C 1286.075439 -95.756348 1283.435913 -90.865479 1282.333984 -87.482422 C 1281.232056 -84.099365 1280.458618 -78.873291 1280.613281 -75.869141 C 1280.843384 -71.39624 1281.617188 -69.151611 1284.892578 -63.478516 C 1288.087646 -57.944336 1289.814819 -55.921875 1293.472656 -53.421875 C 1297.144165 -50.912598 1327.737671 -42.311035 1597.601563 30.234375 L 1557.578125 180.064453 C 1525.125366 301.550049 1517.641724 330.933838 1518.013672 335.400391 C 1518.364624 339.614502 1519.346924 342.446533 1522.195313 347.449219 C 1524.890137 352.182129 1527.013184 354.780029 1529.882813 356.855469 C 1532.063599 358.432739 1535.702881 360.353882 1537.96875 361.125 C 1540.234741 361.89624 1543.748657 362.687134 1545.777344 362.880859 C 1546.284424 362.929199 1546.87561 362.957031 1547.509766 362.966797 Z M 1835.845703 196.945313 C 1838.493164 196.962524 1842.423706 196.468628 1844.580078 195.847656 C 1846.736328 195.226685 1850.329956 193.440063 1852.564453 191.876953 C 1854.79895 190.313965 1858.193604 186.745605 1860.109375 183.947266 C 1863.091431 179.591797 1870.058105 154.832275 1908.505859 11.927734 C 1944.909668 -123.378906 1953.334229 -156.049072 1952.978516 -160.523438 C 1952.637329 -164.815918 1951.705078 -167.488281 1948.789063 -172.539063 C 1945.870972 -177.593262 1944.027832 -179.729492 1940.476563 -182.171875 C 1936.781128 -184.713379 1904.129028 -193.797607 1768.873047 -229.916016 C 1632.294678 -266.387207 1600.709229 -274.465088 1595.662109 -274.212891 C 1590.661011 -273.963135 1588.334229 -273.244873 1583.410156 -270.431641 C 1578.474854 -267.612061 1576.666138 -265.968018 1573.792969 -261.683594 C 1571.734131 -258.613281 1569.668823 -253.640381 1568.853516 -249.791016 C 1567.98291 -245.680176 1567.904419 -241.141602 1568.644531 -237.804688 C 1569.432495 -234.251709 1571.050049 -230.608887 1573.425781 -227.039063 C 1576.064697 -223.07373 1578.326294 -220.882568 1581.957031 -218.773438 C 1585.306519 -216.827637 1634.922119 -203 1885.125 -135.777344 L 1845.015625 14.107422 C 1810.309448 143.796143 1804.978394 164.803223 1805.451172 170.025391 C 1805.859375 174.53418 1806.820068 177.485962 1809.248047 181.691406 C 1811.613525 185.788696 1813.741943 188.192749 1817.072266 190.527344 C 1819.588745 192.291382 1823.759155 194.449829 1826.339844 195.324219 C 1828.920532 196.198486 1833.198364 196.928101 1835.845703 196.945313 Z"/>
        <path id="Shape-copy-7" fill="#000000" fill-rule="evenodd" stroke="none" d="M 548.582031 499.923828 C 464.054596 499.775635 378.423492 478.162231 299.966797 432.865234 C 60.860653 294.817139 -21.063648 -10.927246 116.984375 -250.033203 C 255.032394 -489.139404 560.776733 -571.063477 799.882813 -433.015625 C 1038.988892 -294.967773 1120.913208 10.776611 982.865234 249.882813 C 890.114197 410.532227 721.661987 500.227295 548.582031 499.923828 Z M 447.509766 362.966797 C 449.412262 362.995972 451.701508 362.858643 453.271484 362.595703 C 455.669067 362.194092 459.584351 360.371948 463.853516 357.671875 C 469.384949 354.17334 471.236328 352.41687 473.925781 348.117188 C 476.49408 344.011353 482.856842 322.011963 502.769531 248.392578 C 516.821167 196.44165 536.56665 122.153809 546.648438 83.308594 C 560.537231 29.79541 564.890869 11.334961 564.609375 7.123047 C 564.303101 2.541992 563.488647 0.269287 559.986328 -5.796875 C 556.490723 -11.851563 554.920532 -13.704346 551.140625 -16.234375 C 547.683472 -18.548828 529.445862 -24.036377 477.507813 -38.386719 C 439.537018 -48.877686 384.97525 -63.678223 356.259766 -71.277344 C 327.544281 -78.876221 283.571686 -90.413086 258.542969 -96.914063 C 225.551117 -105.483398 211.587524 -108.623779 207.767578 -108.332031 C 204.869629 -108.11084 200.149597 -106.833984 197.279297 -105.496094 C 193.31366 -103.647949 191.133423 -101.932617 188.199219 -98.349609 C 186.075439 -95.756348 183.435974 -90.865479 182.333984 -87.482422 C 181.232056 -84.099365 180.458679 -78.873291 180.613281 -75.869141 C 180.843445 -71.39624 181.617188 -69.151611 184.892578 -63.478516 C 188.087708 -57.944336 189.814819 -55.921875 193.472656 -53.421875 C 197.144226 -50.912598 227.737762 -42.311035 497.601563 30.234375 L 457.578125 180.064453 C 425.125397 301.550049 417.641663 330.933838 418.013672 335.400391 C 418.364624 339.614502 419.346863 342.446533 422.195313 347.449219 C 424.890076 352.182129 427.013123 354.780029 429.882813 356.855469 C 432.063599 358.432739 435.70282 360.353882 437.96875 361.125 C 440.23468 361.89624 443.748718 362.687134 445.777344 362.880859 C 446.284485 362.929199 446.87561 362.957031 447.509766 362.966797 Z M 735.845703 196.945313 C 738.493164 196.962524 742.423706 196.468628 744.580078 195.847656 C 746.736328 195.226685 750.329956 193.440063 752.564453 191.876953 C 754.79895 190.313965 758.193604 186.745605 760.109375 183.947266 C 763.091431 179.591797 770.058167 154.832275 808.505859 11.927734 C 844.909607 -123.378906 853.334229 -156.049072 852.978516 -160.523438 C 852.637329 -164.815918 851.705078 -167.488281 848.789063 -172.539063 C 845.870972 -177.593262 844.027832 -179.729492 840.476563 -182.171875 C 836.781128 -184.713379 804.129028 -193.797607 668.873047 -229.916016 C 532.294678 -266.387207 500.709229 -274.465088 495.662109 -274.212891 C 490.661011 -273.963135 488.334229 -273.244873 483.410156 -270.431641 C 478.474854 -267.612061 476.666138 -265.968018 473.792969 -261.683594 C 471.734131 -258.613281 469.668823 -253.640381 468.853516 -249.791016 C 467.982849 -245.680176 467.90448 -241.141602 468.644531 -237.804688 C 469.432495 -234.251709 471.05011 -230.608887 473.425781 -227.039063 C 476.064697 -223.07373 478.326294 -220.882568 481.957031 -218.773438 C 485.306519 -216.827637 534.922119 -203 785.125 -135.777344 L 745.015625 14.107422 C 710.309509 143.796143 704.978394 164.803223 705.451172 170.025391 C 705.859375 174.53418 706.820068 177.485962 709.248047 181.691406 C 711.613525 185.788696 713.741943 188.192749 717.072266 190.527344 C 719.588745 192.291382 723.759155 194.449829 726.339844 195.324219 C 728.920532 196.198486 733.198364 196.928101 735.845703 196.945313 Z"/>
        <path id="Shape-copy-3" fill="#000000" fill-rule="evenodd" stroke="none" d="M 2198.582031 1599.923828 C 2114.054688 1599.775635 2028.423462 1578.162231 1949.966797 1532.865234 C 1710.860718 1394.817139 1628.936279 1089.072998 1766.984375 849.966797 C 1905.032349 610.860718 2210.776611 528.936401 2449.882813 666.984375 C 2688.989014 805.032349 2770.913086 1110.776611 2632.865234 1349.882813 C 2540.114258 1510.532227 2371.662109 1600.227295 2198.582031 1599.923828 Z M 2097.509766 1462.966797 C 2099.412109 1462.995972 2101.70166 1462.858643 2103.271484 1462.595703 C 2105.669189 1462.194092 2109.586182 1460.37207 2113.855469 1457.671875 C 2119.386719 1454.17334 2121.236328 1452.416748 2123.925781 1448.117188 C 2126.493896 1444.011353 2132.856934 1422.011963 2152.769531 1348.392578 C 2166.821289 1296.441772 2186.56665 1222.153687 2196.648438 1183.308594 C 2210.537109 1129.795288 2214.890869 1111.335083 2214.609375 1107.123047 C 2214.302979 1102.541992 2213.48877 1100.269409 2209.986328 1094.203125 C 2206.490723 1088.14856 2204.92041 1086.295776 2201.140625 1083.765625 C 2197.68335 1081.451294 2179.446045 1075.963501 2127.507813 1061.613281 C 2089.537109 1051.122192 2034.97522 1036.321655 2006.259766 1028.722656 C 1977.544189 1021.123779 1933.571655 1009.586914 1908.542969 1003.085938 C 1875.551025 994.516479 1861.587524 991.376221 1857.767578 991.667969 C 1854.869629 991.889282 1850.149536 993.166138 1847.279297 994.503906 C 1843.313599 996.352173 1841.133423 998.067383 1838.199219 1001.650391 C 1836.075439 1004.243774 1833.435913 1009.134521 1832.333984 1012.517578 C 1831.232056 1015.900635 1830.458618 1021.126587 1830.613281 1024.130859 C 1830.843384 1028.603638 1831.617188 1030.848389 1834.892578 1036.521484 C 1838.087646 1042.055664 1839.814819 1044.078247 1843.472656 1046.578125 C 1847.144165 1049.087524 1877.737793 1057.688965 2147.601563 1130.234375 L 2107.578125 1280.064453 C 2075.125488 1401.550049 2067.641602 1430.933838 2068.013672 1435.400391 C 2068.364502 1439.614502 2069.34668 1442.446533 2072.195313 1447.449219 C 2074.889893 1452.182129 2077.013184 1454.780029 2079.882813 1456.855469 C 2082.063721 1458.432617 2085.702881 1460.35376 2087.96875 1461.125 C 2090.234619 1461.89624 2093.748779 1462.687256 2095.777344 1462.880859 C 2096.284424 1462.929199 2096.875732 1462.957031 2097.509766 1462.966797 Z M 2385.845703 1296.945313 C 2388.493164 1296.962524 2392.423584 1296.468628 2394.580078 1295.847656 C 2396.736328 1295.226563 2400.330078 1293.439941 2402.564453 1291.876953 C 2404.799072 1290.313965 2408.193604 1286.745605 2410.109375 1283.947266 C 2413.091553 1279.591797 2420.058105 1254.832153 2458.505859 1111.927734 C 2494.909668 976.62085 2503.334229 943.950928 2502.978516 939.476563 C 2502.637451 935.184082 2501.705078 932.511597 2498.789063 927.460938 C 2495.87085 922.406616 2494.027832 920.270508 2490.476563 917.828125 C 2486.78125 915.286621 2454.128906 906.202271 2318.873047 870.083984 C 2182.294678 833.612671 2150.709229 825.535034 2145.662109 825.787109 C 2140.660889 826.036865 2138.334229 826.755005 2133.410156 829.568359 C 2128.474854 832.387939 2126.666016 834.031982 2123.792969 838.316406 C 2121.734131 841.386597 2119.670654 846.359741 2118.855469 850.208984 C 2117.984619 854.319824 2117.904541 858.858276 2118.644531 862.195313 C 2119.432373 865.748291 2121.050049 869.391113 2123.425781 872.960938 C 2126.064697 876.92627 2128.326416 879.11731 2131.957031 881.226563 C 2135.306641 883.172363 2184.922119 897.000122 2435.125 964.222656 L 2395.015625 1114.107422 C 2360.30957 1243.796143 2354.978271 1264.803223 2355.451172 1270.025391 C 2355.859375 1274.53418 2356.820068 1277.486084 2359.248047 1281.691406 C 2361.613525 1285.788696 2363.743896 1288.192871 2367.074219 1290.527344 C 2369.590576 1292.291504 2373.759033 1294.449951 2376.339844 1295.324219 C 2378.92041 1296.198486 2383.198242 1296.928223 2385.845703 1296.945313 Z"/>
        <path id="Shape-copy-2" fill="#000000" fill-rule="evenodd" stroke="none" d="M -1.417969 1599.923828 C -85.945396 1599.775635 -171.576508 1578.162231 -250.033203 1532.865234 C -489.139343 1394.817139 -571.06366 1089.072998 -433.015625 849.966797 C -294.967621 610.860718 10.776694 528.936401 249.882813 666.984375 C 488.988892 805.032349 570.913086 1110.776611 432.865234 1349.882813 C 340.114166 1510.532227 171.662003 1600.227295 -1.417969 1599.923828 Z M -102.490234 1462.966797 C -100.587753 1462.995972 -98.298508 1462.858643 -96.728516 1462.595703 C -94.330933 1462.194092 -90.415642 1460.37207 -86.146484 1457.671875 C -80.615059 1454.17334 -78.763672 1452.416748 -76.074219 1448.117188 C -73.50592 1444.011353 -67.143166 1422.011963 -47.230469 1348.392578 C -33.178848 1296.441772 -13.43334 1222.153687 -3.351563 1183.308594 C 10.537217 1129.795288 14.890869 1111.335083 14.609375 1107.123047 C 14.303101 1102.541992 13.488674 1100.269409 9.986328 1094.203125 C 6.490726 1088.14856 4.920528 1086.295776 1.140625 1083.765625 C -2.316525 1081.451294 -20.554132 1075.963501 -72.492188 1061.613281 C -110.462975 1051.122192 -165.02475 1036.321655 -193.740234 1028.722656 C -222.455719 1021.123779 -266.428314 1009.586914 -291.457031 1003.085938 C -324.448883 994.516479 -338.412476 991.376221 -342.232422 991.667969 C -345.130371 991.889282 -349.850403 993.166138 -352.720703 994.503906 C -356.68634 996.352173 -358.866577 998.067383 -361.800781 1001.650391 C -363.924561 1004.243774 -366.564026 1009.134521 -367.666016 1012.517578 C -368.767944 1015.900635 -369.541321 1021.126587 -369.386719 1024.130859 C -369.156555 1028.603638 -368.382813 1030.848389 -365.107422 1036.521484 C -361.912292 1042.055664 -360.185181 1044.078247 -356.527344 1046.578125 C -352.855774 1049.087524 -322.262238 1057.688965 -52.398438 1130.234375 L -92.421875 1280.064453 C -124.874603 1401.550049 -132.358337 1430.933838 -131.986328 1435.400391 C -131.635376 1439.614502 -130.653137 1442.446533 -127.804688 1447.449219 C -125.109924 1452.182129 -122.986877 1454.780029 -120.117188 1456.855469 C -117.936401 1458.432617 -114.29718 1460.35376 -112.03125 1461.125 C -109.76532 1461.89624 -106.251282 1462.687256 -104.222656 1462.880859 C -103.7155 1462.929199 -103.124397 1462.957031 -102.490234 1462.966797 Z M 185.845703 1296.945313 C 188.493164 1296.962524 192.423706 1296.468628 194.580078 1295.847656 C 196.736328 1295.226563 200.329956 1293.439941 202.564453 1291.876953 C 204.79895 1290.313965 208.193604 1286.745605 210.109375 1283.947266 C 213.091431 1279.591797 220.058151 1254.832153 258.505859 1111.927734 C 294.909637 976.62085 303.334229 943.950928 302.978516 939.476563 C 302.637329 935.184082 301.705078 932.511597 298.789063 927.460938 C 295.870972 922.406616 294.027832 920.270508 290.476563 917.828125 C 286.781128 915.286621 254.129013 906.202271 118.873047 870.083984 C -17.705341 833.612671 -49.290775 825.535034 -54.337891 825.787109 C -59.338985 826.036865 -61.665779 826.755005 -66.589844 829.568359 C -71.525139 832.387939 -73.333862 834.031982 -76.207031 838.316406 C -78.265869 841.386597 -80.331177 846.359741 -81.146484 850.208984 C -82.017151 854.319824 -82.09552 858.858276 -81.355469 862.195313 C -80.567505 865.748291 -78.94989 869.391113 -76.574219 872.960938 C -73.935303 876.92627 -71.673706 879.11731 -68.042969 881.226563 C -64.693481 883.172363 -15.075956 897.000122 235.126953 964.222656 L 195.015625 1114.107422 C 160.309479 1243.796143 154.978394 1264.803223 155.451172 1270.025391 C 155.859375 1274.53418 156.820068 1277.486084 159.248047 1281.691406 C 161.613525 1285.788696 163.741943 1288.192871 167.072266 1290.527344 C 169.588745 1292.291504 173.759155 1294.449951 176.339844 1295.324219 C 178.920532 1296.198486 183.198364 1296.928223 185.845703 1296.945313 Z"/>
    </g>
</svg>
