<?xml version="1.0" encoding="UTF-8"?>
<!-- Generated by Pixelmator Pro 3.2.3 -->
<svg width="2200" height="2200" viewBox="0 0 2200 2200" xmlns="http://www.w3.org/2000/svg" xmlns:xlink="http://www.w3.org/1999/xlink">
    <g id="meticulous" opacity="0.050966">
        <path id="Shape-copy" fill="#000000" fill-rule="evenodd" stroke="none" d="M 1098.582031 1599.923828 C 1014.054626 1599.775635 928.423523 1578.162231 849.966797 1532.865234 C 610.860657 1394.817139 528.93634 1089.072998 666.984375 849.966797 C 805.03241 610.860718 1110.776733 528.936401 1349.882813 666.984375 C 1588.988892 805.032349 1670.913208 1110.776611 1532.865234 1349.882813 C 1440.114136 1510.532227 1271.661987 1600.227295 1098.582031 1599.923828 Z M 1008.751953 1466.863281 C 1015.61261 1466.817627 1022.255798 1464.031738 1027.160156 1458.962891 L 1108.126953 1375.300781 C 1115.210938 1367.979126 1120.405029 1358.88916 1123.044922 1349.037109 L 1223.53125 974.306641 L 1055.898438 929.390625 L 955.556641 1304.158203 L 955.410156 1304.119141 C 952.770264 1313.971191 952.669373 1324.346191 955.197266 1334.322266 L 983.486328 1447.261719 C 985.770081 1456.384277 992.758118 1463.535645 1001.875 1465.978516 C 1004.154236 1466.589233 1006.465088 1466.878418 1008.751953 1466.863281 Z M 1329.748047 1274.8125 C 1352.777954 1274.99939 1373.925781 1259.724609 1380.142578 1236.523438 L 1410.96875 1121.773438 C 1418.282959 1094.182373 1401.921631 1065.842651 1374.423828 1058.474609 L 1345.253906 1050.578125 C 1345.13562 1051.019287 1345.071411 1051.554932 1344.953125 1051.996094 L 1319.736328 1146.105469 C 1317.293457 1155.22229 1307.78479 1160.712402 1298.667969 1158.269531 C 1289.551025 1155.82666 1284.061035 1146.317993 1286.503906 1137.201172 L 1311.720703 1043.091797 C 1311.838867 1042.650635 1312.049805 1042.156006 1312.167969 1041.714844 L 1245.849609 1023.943359 L 1188.324219 1238.632813 L 1316.84375 1273.068359 C 1321.154785 1274.211182 1325.483276 1274.777832 1329.748047 1274.8125 Z M 954.224609 1175.90625 L 1011.751953 961.216797 L 945.433594 943.447266 C 945.315369 943.888428 945.251038 944.422241 945.132813 944.863281 L 919.916016 1038.974609 C 917.473206 1048.091553 907.964539 1053.581543 898.847656 1051.138672 C 889.730713 1048.695801 884.240723 1039.187134 886.683594 1030.070313 L 911.898438 935.958984 C 912.016663 935.517822 912.229492 935.023193 912.347656 934.582031 L 883.232422 926.78125 C 855.641357 919.467041 827.301636 935.828369 819.933594 963.326172 L 789.107422 1078.076172 C 781.793213 1105.667236 798.154602 1134.009033 825.652344 1141.376953 L 954.224609 1175.90625 Z M 1232.382813 940.980469 L 1254.605469 858.046875 C 1264.455688 821.285156 1242.656372 783.529907 1205.894531 773.679688 L 1171.486328 764.458984 L 1171.392578 764.513672 C 1134.630737 754.663452 1096.87561 776.460815 1087.025391 813.222656 L 1064.802734 896.158203 L 1232.382813 940.980469 Z"/>
        <path id="Shape-copy-4" fill="#000000" fill-rule="evenodd" stroke="none" d="M 1648.582031 499.923828 C 1564.054565 499.775635 1478.423462 478.162231 1399.966797 432.865234 C 1160.860596 294.817139 1078.936279 -10.927246 1216.984375 -250.033203 C 1355.032349 -489.139404 1660.776733 -571.063477 1899.882813 -433.015625 C 2138.989014 -294.967773 2220.913086 10.776611 2082.865234 249.882813 C 1990.114136 410.532227 1821.661987 500.227295 1648.582031 499.923828 Z M 1558.751953 366.863281 C 1565.612549 366.817749 1572.255859 364.031738 1577.160156 358.962891 L 1658.126953 275.300781 C 1665.210938 267.979004 1670.405029 258.889282 1673.044922 249.037109 L 1773.53125 -125.693359 L 1605.898438 -170.609375 L 1505.556641 204.160156 L 1505.410156 204.119141 C 1502.770264 213.971313 1502.669434 224.346191 1505.197266 234.322266 L 1533.486328 347.261719 C 1535.770142 356.384277 1542.758057 363.535645 1551.875 365.978516 C 1554.154175 366.589233 1556.465088 366.878418 1558.751953 366.863281 Z M 1879.748047 174.8125 C 1902.777954 174.99939 1923.925781 159.724731 1930.142578 136.523438 L 1960.96875 21.773438 C 1968.282959 -5.817627 1951.921631 -34.157471 1924.423828 -41.525391 L 1895.253906 -49.421875 C 1895.13562 -48.980713 1895.071411 -48.445068 1894.953125 -48.003906 L 1869.736328 46.105469 C 1867.293457 55.222412 1857.78479 60.712402 1848.667969 58.269531 C 1839.551025 55.82666 1834.061035 46.318115 1836.503906 37.201172 L 1861.720703 -56.908203 C 1861.838867 -57.349365 1862.049805 -57.843994 1862.167969 -58.285156 L 1795.849609 -76.056641 L 1738.324219 138.632813 L 1866.84375 173.070313 C 1871.154785 174.213135 1875.483276 174.777832 1879.748047 174.8125 Z M 1504.224609 75.90625 L 1561.751953 -138.783203 L 1495.433594 -156.552734 C 1495.31543 -156.111572 1495.250977 -155.577881 1495.132813 -155.136719 L 1469.916016 -61.025391 C 1467.473145 -51.908447 1457.9646 -46.418457 1448.847656 -48.861328 C 1439.730713 -51.304199 1434.240601 -60.812744 1436.683594 -69.929688 L 1461.898438 -164.041016 C 1462.016602 -164.482178 1462.22937 -164.976807 1462.347656 -165.417969 L 1433.232422 -173.21875 C 1405.641357 -180.532959 1377.301636 -164.171875 1369.933594 -136.673828 L 1339.107422 -21.921875 C 1331.793213 5.669189 1348.154541 34.009033 1375.652344 41.376953 L 1504.224609 75.90625 Z M 1782.382813 -159.019531 L 1804.605469 -241.953125 C 1814.455688 -278.714844 1792.656372 -316.469971 1755.894531 -326.320313 L 1721.486328 -335.541016 L 1721.392578 -335.486328 C 1684.630737 -345.33667 1646.87561 -323.539063 1637.025391 -286.777344 L 1614.802734 -203.84375 L 1782.382813 -159.019531 Z"/>
        <path id="Shape-copy-5" fill="#000000" fill-rule="evenodd" stroke="none" d="M 548.582031 499.923828 C 464.054596 499.775635 378.423492 478.162231 299.966797 432.865234 C 60.860653 294.817139 -21.063639 -10.927246 116.984375 -250.033203 C 255.032379 -489.139404 560.776672 -571.063477 799.882813 -433.015625 C 1038.988892 -294.967773 1120.913208 10.776611 982.865234 249.882813 C 890.114258 410.532227 721.661987 500.227295 548.582031 499.923828 Z M 458.751953 366.863281 C 465.612579 366.817749 472.253906 364.031738 477.158203 358.962891 L 558.126953 275.300781 C 565.210938 267.979004 570.40509 258.889282 573.044922 249.037109 L 673.53125 -125.693359 L 505.898438 -170.609375 L 405.556641 204.160156 L 405.410156 204.119141 C 402.770264 213.971313 402.669373 224.346191 405.197266 234.322266 L 433.486328 347.261719 C 435.770081 356.384277 442.758087 363.535645 451.875 365.978516 C 454.154236 366.589233 456.465088 366.878418 458.751953 366.863281 Z M 779.748047 174.8125 C 802.778015 174.99939 823.925842 159.724731 830.142578 136.523438 L 860.96875 21.773438 C 868.282959 -5.817627 851.921631 -34.157471 824.423828 -41.525391 L 795.253906 -49.421875 C 795.135681 -48.980713 795.071289 -48.445068 794.953125 -48.003906 L 769.736328 46.105469 C 767.293457 55.222412 757.784851 60.712402 748.667969 58.269531 C 739.551025 55.82666 734.061035 46.318115 736.503906 37.201172 L 761.720703 -56.908203 C 761.838928 -57.349365 762.049744 -57.843994 762.167969 -58.285156 L 695.849609 -76.056641 L 638.324219 138.632813 L 766.84375 173.070313 C 771.154846 174.213135 775.483215 174.777832 779.748047 174.8125 Z M 404.224609 75.90625 L 461.751953 -138.783203 L 395.433594 -156.552734 C 395.315399 -156.111572 395.251007 -155.577881 395.132813 -155.136719 L 369.916016 -61.025391 C 367.473145 -51.908447 357.964569 -46.418457 348.847656 -48.861328 C 339.730743 -51.304199 334.240723 -60.812744 336.683594 -69.929688 L 361.898438 -164.041016 C 362.016632 -164.482178 362.229462 -164.976807 362.347656 -165.417969 L 333.232422 -173.21875 C 305.641418 -180.532959 277.301605 -164.171875 269.933594 -136.673828 L 239.107422 -21.921875 C 231.793213 5.669189 248.154572 34.009033 275.652344 41.376953 L 404.224609 75.90625 Z M 682.382813 -159.019531 L 704.605469 -241.953125 C 714.45575 -278.714844 692.65625 -316.469971 655.894531 -326.320313 L 621.486328 -335.541016 L 621.392578 -335.486328 C 584.630859 -345.33667 546.875671 -323.539063 537.025391 -286.777344 L 514.802734 -203.84375 L 682.382813 -159.019531 Z"/>
        <path id="Shape-copy-6" fill="#000000" fill-rule="evenodd" stroke="none" d="M 548.582031 2699.923828 C 464.054596 2699.775635 378.423492 2678.162109 299.966797 2632.865234 C 60.860653 2494.817383 -21.063639 2189.072998 116.984375 1949.966797 C 255.032379 1710.860718 560.776672 1628.936401 799.882813 1766.984375 C 1038.988892 1905.032349 1120.913208 2210.776611 982.865234 2449.882813 C 890.114258 2610.532227 721.661987 2700.227295 548.582031 2699.923828 Z M 458.751953 2566.863281 C 465.612579 2566.817627 472.253906 2564.031738 477.158203 2558.962891 L 558.126953 2475.300781 C 565.210938 2467.979004 570.40509 2458.88916 573.044922 2449.037109 L 673.53125 2074.306641 L 505.898438 2029.390625 L 405.556641 2404.158203 L 405.410156 2404.119141 C 402.770264 2413.971191 402.669373 2424.346191 405.197266 2434.322266 L 433.486328 2547.261719 C 435.770081 2556.384277 442.758087 2563.535645 451.875 2565.978516 C 454.154236 2566.589355 456.465088 2566.878418 458.751953 2566.863281 Z M 779.748047 2374.8125 C 802.778015 2374.999512 823.925842 2359.724609 830.142578 2336.523438 L 860.96875 2221.773438 C 868.282959 2194.182373 851.921631 2165.842529 824.423828 2158.474609 L 795.253906 2150.580078 C 795.135681 2151.02124 795.071289 2151.554932 794.953125 2151.996094 L 769.736328 2246.105469 C 767.293457 2255.222412 757.784851 2260.712402 748.667969 2258.269531 C 739.551025 2255.82666 734.061035 2246.318115 736.503906 2237.201172 L 761.720703 2143.091797 C 761.838928 2142.650635 762.049744 2142.156006 762.167969 2141.714844 L 695.849609 2123.943359 L 638.324219 2338.632813 L 766.84375 2373.068359 C 771.154846 2374.211182 775.483215 2374.777832 779.748047 2374.8125 Z M 404.224609 2275.90625 L 461.751953 2061.216797 L 395.433594 2043.447266 C 395.315399 2043.888428 395.251007 2044.422119 395.132813 2044.863281 L 369.916016 2138.974609 C 367.473145 2148.091553 357.964569 2153.581543 348.847656 2151.138672 C 339.730743 2148.695801 334.240723 2139.187256 336.683594 2130.070313 L 361.898438 2035.958984 C 362.016632 2035.517822 362.229462 2035.023193 362.347656 2034.582031 L 333.232422 2026.78125 C 305.641418 2019.467041 277.301605 2035.828369 269.933594 2063.326172 L 239.107422 2178.076172 C 231.793213 2205.667236 248.154572 2234.009033 275.652344 2241.376953 L 404.224609 2275.90625 Z M 682.382813 2040.980469 L 704.605469 1958.046875 C 714.45575 1921.285156 692.65625 1883.530029 655.894531 1873.679688 L 621.486328 1864.458984 L 621.392578 1864.513672 C 584.630859 1854.66333 546.875671 1876.460938 537.025391 1913.222656 L 514.802734 1996.158203 L 682.382813 2040.980469 Z"/>
        <path id="Shape-copy-7" fill="#000000" fill-rule="evenodd" stroke="none" d="M 1648.582031 2699.923828 C 1564.054565 2699.775635 1478.423462 2678.162109 1399.966797 2632.865234 C 1160.860596 2494.817383 1078.936279 2189.072998 1216.984375 1949.966797 C 1355.032349 1710.860718 1660.776733 1628.936401 1899.882813 1766.984375 C 2138.989014 1905.032349 2220.913086 2210.776611 2082.865234 2449.882813 C 1990.114136 2610.532227 1821.661987 2700.227295 1648.582031 2699.923828 Z M 1558.751953 2566.863281 C 1565.612549 2566.817627 1572.255859 2564.031738 1577.160156 2558.962891 L 1658.126953 2475.300781 C 1665.210938 2467.979004 1670.405029 2458.88916 1673.044922 2449.037109 L 1773.53125 2074.306641 L 1605.898438 2029.390625 L 1505.556641 2404.158203 L 1505.410156 2404.119141 C 1502.770264 2413.971191 1502.669434 2424.346191 1505.197266 2434.322266 L 1533.486328 2547.261719 C 1535.770142 2556.384277 1542.758057 2563.535645 1551.875 2565.978516 C 1554.154175 2566.589355 1556.465088 2566.878418 1558.751953 2566.863281 Z M 1879.748047 2374.8125 C 1902.777954 2374.999512 1923.925781 2359.724609 1930.142578 2336.523438 L 1960.96875 2221.773438 C 1968.282959 2194.182373 1951.921631 2165.842529 1924.423828 2158.474609 L 1895.253906 2150.580078 C 1895.13562 2151.02124 1895.071411 2151.554932 1894.953125 2151.996094 L 1869.736328 2246.105469 C 1867.293457 2255.222412 1857.78479 2260.712402 1848.667969 2258.269531 C 1839.551025 2255.82666 1834.061035 2246.318115 1836.503906 2237.201172 L 1861.720703 2143.091797 C 1861.838867 2142.650635 1862.049805 2142.156006 1862.167969 2141.714844 L 1795.849609 2123.943359 L 1738.324219 2338.632813 L 1866.84375 2373.068359 C 1871.154785 2374.211182 1875.483276 2374.777832 1879.748047 2374.8125 Z M 1504.224609 2275.90625 L 1561.751953 2061.216797 L 1495.433594 2043.447266 C 1495.31543 2043.888428 1495.250977 2044.422119 1495.132813 2044.863281 L 1469.916016 2138.974609 C 1467.473145 2148.091553 1457.9646 2153.581543 1448.847656 2151.138672 C 1439.730713 2148.695801 1434.240601 2139.187256 1436.683594 2130.070313 L 1461.898438 2035.958984 C 1462.016602 2035.517822 1462.22937 2035.023193 1462.347656 2034.582031 L 1433.232422 2026.78125 C 1405.641357 2019.467041 1377.301636 2035.828369 1369.933594 2063.326172 L 1339.107422 2178.076172 C 1331.793213 2205.667236 1348.154541 2234.009033 1375.652344 2241.376953 L 1504.224609 2275.90625 Z M 1782.382813 2040.980469 L 1804.605469 1958.046875 C 1814.455688 1921.285156 1792.656372 1883.530029 1755.894531 1873.679688 L 1721.486328 1864.458984 L 1721.392578 1864.513672 C 1684.630737 1854.66333 1646.87561 1876.460938 1637.025391 1913.222656 L 1614.802734 1996.158203 L 1782.382813 2040.980469 Z"/>
        <path id="Shape-copy-3" fill="#000000" fill-rule="evenodd" stroke="none" d="M -1.417969 1599.923828 C -85.945389 1599.775635 -171.576492 1578.162231 -250.033203 1532.865234 C -489.139343 1394.817139 -571.06366 1089.072998 -433.015625 849.966797 C -294.967621 610.860718 10.776701 528.936401 249.882813 666.984375 C 488.988953 805.032349 570.913208 1110.776611 432.865234 1349.882813 C 340.114227 1510.532227 171.661987 1600.227295 -1.417969 1599.923828 Z M -91.248047 1466.863281 C -84.387428 1466.817627 -77.746086 1464.031738 -72.841797 1458.962891 L 8.126953 1375.300781 C 15.210961 1367.979126 20.405031 1358.88916 23.044922 1349.037109 L 123.53125 974.306641 L -44.101563 929.390625 L -144.443359 1304.158203 L -144.589844 1304.119141 C -147.229736 1313.971191 -147.330627 1324.346191 -144.802734 1334.322266 L -116.513672 1447.261719 C -114.229889 1456.384277 -107.241905 1463.535645 -98.125 1465.978516 C -95.845772 1466.589233 -93.53492 1466.878418 -91.248047 1466.863281 Z M 229.748047 1274.8125 C 252.778015 1274.99939 273.925842 1259.724609 280.142578 1236.523438 L 310.96875 1121.773438 C 318.282959 1094.182373 301.9216 1065.842651 274.423828 1058.474609 L 245.253906 1050.578125 C 245.135681 1051.019287 245.07135 1051.554932 244.953125 1051.996094 L 219.736328 1146.105469 C 217.293457 1155.22229 207.784836 1160.712402 198.667969 1158.269531 C 189.551041 1155.82666 184.060974 1146.317993 186.503906 1137.201172 L 211.720703 1043.091797 C 211.838867 1042.650635 212.049744 1042.156006 212.167969 1041.714844 L 145.849609 1023.943359 L 88.324219 1238.632813 L 216.84375 1273.068359 C 221.154846 1274.211182 225.483231 1274.777832 229.748047 1274.8125 Z M -145.775391 1175.90625 L -88.248047 961.216797 L -154.566406 943.447266 C -154.684601 943.888428 -154.748962 944.422241 -154.867188 944.863281 L -180.083984 1038.974609 C -182.526825 1048.091553 -192.037369 1053.581543 -201.154297 1051.138672 C -210.271194 1048.695801 -215.759277 1039.187134 -213.316406 1030.070313 L -188.101563 935.958984 C -187.983368 935.517822 -187.770538 935.023193 -187.652344 934.582031 L -216.767578 926.78125 C -244.358566 919.467041 -272.698395 935.828369 -280.066406 963.326172 L -310.892578 1078.076172 C -318.206757 1105.667236 -301.845428 1134.009033 -274.347656 1141.376953 L -145.775391 1175.90625 Z M 132.382813 940.980469 L 154.605469 858.046875 C 164.455734 821.285156 142.656281 783.529907 105.894531 773.679688 L 71.486328 764.458984 L 71.392578 764.513672 C 34.63084 754.663452 -3.124338 776.460815 -12.974609 813.222656 L -35.197266 896.158203 L 132.382813 940.980469 Z"/>
        <path id="Shape-copy-2" fill="#000000" fill-rule="evenodd" stroke="none" d="M 2198.582031 1599.923828 C 2114.054688 1599.775635 2028.423462 1578.162231 1949.966797 1532.865234 C 1710.860596 1394.817139 1628.936279 1089.072998 1766.984375 849.966797 C 1905.032349 610.860718 2210.776611 528.936401 2449.882813 666.984375 C 2688.989014 805.032349 2770.913086 1110.776611 2632.865234 1349.882813 C 2540.114258 1510.532227 2371.662109 1600.227295 2198.582031 1599.923828 Z M 2108.751953 1466.863281 C 2115.612549 1466.817627 2122.255859 1464.031738 2127.160156 1458.962891 L 2208.126953 1375.300781 C 2215.210938 1367.979126 2220.405029 1358.88916 2223.044922 1349.037109 L 2323.53125 974.306641 L 2155.898438 929.390625 L 2055.558594 1304.158203 L 2055.410156 1304.119141 C 2052.770264 1313.971191 2052.669434 1324.346191 2055.197266 1334.322266 L 2083.486328 1447.261719 C 2085.77002 1456.384277 2092.758057 1463.535645 2101.875 1465.978516 C 2104.154297 1466.589233 2106.465088 1466.878418 2108.751953 1466.863281 Z M 2429.748047 1274.8125 C 2452.778076 1274.99939 2473.925781 1259.724609 2480.142578 1236.523438 L 2510.96875 1121.773438 C 2518.282959 1094.182373 2501.921631 1065.842651 2474.423828 1058.474609 L 2445.253906 1050.578125 C 2445.135742 1051.019287 2445.071289 1051.554932 2444.953125 1051.996094 L 2419.736328 1146.105469 C 2417.293457 1155.22229 2407.784912 1160.712402 2398.667969 1158.269531 C 2389.551025 1155.82666 2384.061035 1146.317993 2386.503906 1137.201172 L 2411.720703 1043.091797 C 2411.838867 1042.650635 2412.049805 1042.156006 2412.167969 1041.714844 L 2345.849609 1023.943359 L 2288.324219 1238.632813 L 2416.84375 1273.068359 C 2421.154785 1274.211182 2425.483154 1274.777832 2429.748047 1274.8125 Z M 2054.224609 1175.90625 L 2111.75 961.216797 L 2045.433594 943.447266 C 2045.31543 943.888428 2045.250977 944.422241 2045.132813 944.863281 L 2019.916016 1038.974609 C 2017.473145 1048.091553 2007.9646 1053.581543 1998.847656 1051.138672 C 1989.730713 1048.695801 1984.240601 1039.187134 1986.683594 1030.070313 L 2011.898438 935.958984 C 2012.016602 935.517822 2012.22937 935.023193 2012.347656 934.582031 L 1983.232422 926.78125 C 1955.641357 919.467041 1927.301636 935.828369 1919.933594 963.326172 L 1889.107422 1078.076172 C 1881.793213 1105.667236 1898.154541 1134.009033 1925.652344 1141.376953 L 2054.224609 1175.90625 Z M 2332.382813 940.980469 L 2354.605469 858.046875 C 2364.455811 821.285156 2342.65625 783.529907 2305.894531 773.679688 L 2271.486328 764.458984 L 2271.392578 764.513672 C 2234.630859 754.663452 2196.875732 776.460815 2187.025391 813.222656 L 2164.802734 896.158203 L 2332.382813 940.980469 Z"/>
    </g>
</svg>
