<svg xmlns="http://www.w3.org/2000/svg" width="2200" height="2200" opacity=".051" fill-rule="evenodd" xmlns:v="https://vecta.io/nano"><path d="M1098.582 1599.924c-84.527-.148-170.159-21.762-248.615-67.059-239.106-138.048-321.03-443.792-182.982-682.898s443.792-321.03 682.898-182.982 321.03 443.792 182.982 682.898c-92.751 160.649-261.203 250.344-434.283 250.041zm-89.83-133.061c6.861-.046 13.504-2.832 18.408-7.9l80.967-83.662c7.084-7.322 12.278-16.412 14.918-26.264l100.486-374.73-167.633-44.916-100.342 374.768-.146-.039a59.8 59.8 0 0 0-.213 30.203l28.289 112.939c2.284 9.123 9.272 16.274 18.389 18.717a25.89 25.89 0 0 0 6.877.885zm320.996-192.051c23.03.187 44.178-15.088 50.395-38.289l30.826-114.75c7.314-27.591-9.047-55.931-36.545-63.299l-29.17-7.896c-.118.441-.182.977-.301 1.418l-25.217 94.109c-2.443 9.117-11.952 14.607-21.068 12.164s-14.607-11.952-12.164-21.068l25.217-94.109c.118-.441.329-.936.447-1.377l-66.318-17.771-57.525 214.689 128.52 34.436a51.96 51.96 0 0 0 12.904 1.744zm-375.523-98.906l57.527-214.689-66.318-17.77c-.118.441-.183.975-.301 1.416l-25.217 94.111c-2.443 9.117-11.951 14.607-21.068 12.164s-14.607-11.952-12.164-21.068l25.215-94.111c.118-.441.331-.936.449-1.377l-29.115-7.801c-27.591-7.314-55.931 9.047-63.299 36.545l-30.826 114.75c-7.314 27.591 9.047 55.933 36.545 63.301l128.572 34.529zm278.158-234.926l22.223-82.934c9.85-36.762-11.949-74.517-48.711-84.367l-34.408-9.221-.094.055c-36.762-9.85-74.517 11.947-84.367 48.709l-22.223 82.936 167.58 44.822zm416.199-441.056c-84.527-.148-170.159-21.762-248.615-67.059-239.106-138.048-321.031-443.792-182.982-682.898s443.792-321.03 682.898-182.982 321.03 443.792 182.982 682.898c-92.751 160.649-261.203 250.344-434.283 250.041zm-89.83-133.061c6.861-.046 13.504-2.832 18.408-7.9l80.967-83.662c7.084-7.322 12.278-16.411 14.918-26.264l100.486-374.73-167.633-44.916-100.342 374.77-.146-.041a59.8 59.8 0 0 0-.213 30.203l28.289 112.939c2.284 9.123 9.272 16.274 18.389 18.717a25.89 25.89 0 0 0 6.877.885zm320.996-192.051c23.03.187 44.178-15.088 50.395-38.289l30.826-114.75c7.314-27.591-9.047-55.931-36.545-63.299l-29.17-7.896c-.118.441-.182.977-.301 1.418l-25.217 94.109c-2.443 9.117-11.952 14.607-21.068 12.164s-14.607-11.951-12.164-21.068l25.217-94.109c.118-.441.329-.936.447-1.377l-66.318-17.771-57.525 214.689 128.52 34.438c4.311 1.143 8.64 1.708 12.904 1.742zm-375.523-98.906l57.527-214.689-66.318-17.77c-.118.441-.183.975-.301 1.416l-25.217 94.111c-2.443 9.117-11.951 14.607-21.068 12.164s-14.607-11.951-12.164-21.068l25.215-94.111c.118-.441.331-.936.449-1.377l-29.115-7.801c-27.591-7.314-55.931 9.047-63.299 36.545l-30.826 114.752c-7.314 27.591 9.047 55.931 36.545 63.299l128.572 34.529zm278.158-234.926l22.223-82.934c9.85-36.762-11.949-74.517-48.711-84.367l-34.408-9.221-.094.055c-36.762-9.85-74.517 11.947-84.367 48.709l-22.223 82.934 167.58 44.824zM548.582 499.924c-84.527-.148-170.159-21.762-248.615-67.059C60.861 294.817-21.064-10.927 116.984-250.033s443.792-321.03 682.898-182.982 321.03 443.792 182.982 682.898c-92.751 160.649-261.203 250.344-434.283 250.041zm-89.83-133.061c6.861-.046 13.502-2.832 18.406-7.9l80.969-83.662c7.084-7.322 12.278-16.411 14.918-26.264l100.486-374.73-167.633-44.916-100.342 374.77-.146-.041a59.8 59.8 0 0 0-.213 30.203l28.289 112.939c2.284 9.123 9.272 16.274 18.389 18.717a25.89 25.89 0 0 0 6.877.885zm320.996-192.051c23.03.187 44.178-15.088 50.395-38.289l30.826-114.75c7.314-27.591-9.047-55.931-36.545-63.299l-29.17-7.896c-.118.441-.183.977-.301 1.418l-25.217 94.109c-2.443 9.117-11.951 14.607-21.068 12.164s-14.607-11.951-12.164-21.068l25.217-94.109c.118-.441.329-.936.447-1.377L695.85-76.057l-57.525 214.689 128.52 34.438a51.91 51.91 0 0 0 12.904 1.742zM404.225 75.906l57.527-214.689-66.318-17.77c-.118.441-.183.975-.301 1.416l-25.217 94.111c-2.443 9.117-11.951 14.607-21.068 12.164s-14.607-11.951-12.164-21.068l25.215-94.111c.118-.441.331-.936.449-1.377l-29.115-7.801c-27.591-7.314-55.931 9.047-63.299 36.545L239.107-21.922c-7.314 27.591 9.047 55.931 36.545 63.299l128.572 34.529zM682.383-159.02l22.223-82.934c9.85-36.762-11.949-74.517-48.711-84.367l-34.408-9.221-.094.055c-36.762-9.85-74.517 11.947-84.367 48.709l-22.223 82.934 167.58 44.824zM548.582 2699.924c-84.527-.148-170.159-21.762-248.615-67.059-239.106-138.048-321.03-443.792-182.982-682.898s443.792-321.03 682.898-182.982 321.03 443.792 182.982 682.898c-92.751 160.649-261.203 250.344-434.283 250.041zm-89.83-133.061c6.861-.046 13.502-2.832 18.406-7.9l80.969-83.662c7.084-7.322 12.278-16.412 14.918-26.264l100.486-374.73-167.633-44.916-100.342 374.768-.146-.039a59.8 59.8 0 0 0-.213 30.203l28.289 112.939c2.284 9.123 9.272 16.274 18.389 18.717 2.279.611 4.59.9 6.877.885zm320.996-192.051c23.03.187 44.178-15.088 50.395-38.289l30.826-114.75c7.314-27.591-9.047-55.931-36.545-63.299l-29.17-7.895c-.118.441-.183.975-.301 1.416l-25.217 94.109c-2.443 9.117-11.951 14.607-21.068 12.164s-14.607-11.951-12.164-21.068l25.217-94.109c.118-.441.329-.936.447-1.377l-66.318-17.771-57.525 214.689 128.52 34.436a51.96 51.96 0 0 0 12.904 1.744zm-375.523-98.906l57.527-214.689-66.318-17.77c-.118.441-.183.975-.301 1.416l-25.217 94.111c-2.443 9.117-11.951 14.607-21.068 12.164s-14.607-11.951-12.164-21.068l25.215-94.111c.118-.441.331-.936.449-1.377l-29.115-7.801c-27.591-7.314-55.931 9.047-63.299 36.545l-30.826 114.75c-7.314 27.591 9.047 55.933 36.545 63.301l128.572 34.529zm278.158-234.926l22.223-82.934c9.85-36.762-11.949-74.517-48.711-84.367l-34.408-9.221-.094.055c-36.762-9.85-74.517 11.947-84.367 48.709l-22.223 82.936 167.58 44.822zm966.199 658.944c-84.527-.148-170.159-21.762-248.615-67.059-239.106-138.048-321.031-443.792-182.982-682.898s443.792-321.03 682.898-182.982 321.03 443.792 182.982 682.898c-92.751 160.649-261.203 250.344-434.283 250.041zm-89.83-133.061c6.861-.046 13.504-2.832 18.408-7.9l80.967-83.662c7.084-7.322 12.278-16.412 14.918-26.264l100.486-374.73-167.633-44.916-100.342 374.768-.146-.039a59.8 59.8 0 0 0-.213 30.203l28.289 112.939c2.284 9.123 9.272 16.274 18.389 18.717 2.279.611 4.59.9 6.877.885zm320.996-192.051c23.03.187 44.178-15.088 50.395-38.289l30.826-114.75c7.314-27.591-9.047-55.931-36.545-63.299l-29.17-7.895c-.118.441-.182.975-.301 1.416l-25.217 94.109c-2.443 9.117-11.952 14.607-21.068 12.164s-14.607-11.951-12.164-21.068l25.217-94.109c.118-.441.329-.936.447-1.377l-66.318-17.771-57.525 214.689 128.52 34.436a51.96 51.96 0 0 0 12.904 1.744zm-375.523-98.906l57.527-214.689-66.318-17.77c-.118.441-.183.975-.301 1.416l-25.217 94.111c-2.443 9.117-11.951 14.607-21.068 12.164s-14.607-11.951-12.164-21.068l25.215-94.111c.118-.441.331-.936.449-1.377l-29.115-7.801c-27.591-7.314-55.931 9.047-63.299 36.545l-30.826 114.75c-7.314 27.591 9.047 55.933 36.545 63.301l128.572 34.529zm278.158-234.926l22.223-82.934c9.85-36.762-11.949-74.517-48.711-84.367l-34.408-9.221-.094.055c-36.762-9.85-74.517 11.947-84.367 48.709l-22.223 82.936 167.58 44.822zM-1.418 1599.924c-84.527-.148-170.159-21.762-248.615-67.059-239.106-138.048-321.03-443.792-182.982-682.898s443.792-321.03 682.898-182.982 321.03 443.792 182.982 682.898c-92.751 160.649-261.203 250.344-434.283 250.041zm-89.83-133.061c6.861-.046 13.502-2.832 18.406-7.9l80.969-83.662c7.084-7.322 12.278-16.412 14.918-26.264l100.486-374.73-167.633-44.916-100.342 374.768-.146-.039a59.8 59.8 0 0 0-.213 30.203l28.289 112.939c2.284 9.123 9.272 16.274 18.389 18.717a25.89 25.89 0 0 0 6.877.885zm320.996-192.051c23.03.187 44.178-15.088 50.395-38.289l30.826-114.75c7.314-27.591-9.047-55.931-36.545-63.299l-29.17-7.896c-.118.441-.183.977-.301 1.418l-25.217 94.109c-2.443 9.117-11.951 14.607-21.068 12.164s-14.607-11.952-12.164-21.068l25.217-94.109c.118-.441.329-.936.447-1.377l-66.318-17.771-57.525 214.689 128.52 34.436a51.96 51.96 0 0 0 12.904 1.744zm-375.523-98.906l57.527-214.689-66.318-17.77c-.118.441-.183.975-.301 1.416l-25.217 94.111c-2.443 9.117-11.953 14.607-21.07 12.164s-14.605-11.952-12.162-21.068l25.215-94.111c.118-.441.331-.936.449-1.377l-29.115-7.801c-27.591-7.314-55.931 9.047-63.299 36.545l-30.826 114.75c-7.314 27.591 9.047 55.933 36.545 63.301l128.572 34.529zM132.383 940.98l22.223-82.934c9.85-36.762-11.949-74.517-48.711-84.367l-34.408-9.221-.094.055c-36.762-9.85-74.517 11.947-84.367 48.709l-22.223 82.936 167.58 44.822zm2066.199 658.944c-84.527-.148-170.159-21.762-248.615-67.059-239.106-138.048-321.031-443.792-182.982-682.898s443.792-321.03 682.898-182.982 321.03 443.792 182.982 682.898c-92.751 160.649-261.203 250.344-434.283 250.041zm-89.83-133.061c6.861-.046 13.504-2.832 18.408-7.9l80.967-83.662c7.084-7.322 12.278-16.412 14.918-26.264l100.486-374.73-167.633-44.916-100.34 374.768-.148-.039a59.8 59.8 0 0 0-.213 30.203l28.289 112.939c2.284 9.123 9.272 16.274 18.389 18.717a25.89 25.89 0 0 0 6.877.885zm320.996-192.051c23.03.187 44.178-15.088 50.395-38.289l30.826-114.75c7.314-27.591-9.047-55.931-36.545-63.299l-29.17-7.896c-.118.441-.183.977-.301 1.418l-25.217 94.109c-2.443 9.117-11.951 14.607-21.068 12.164s-14.607-11.952-12.164-21.068l25.217-94.109c.118-.441.329-.936.447-1.377l-66.318-17.771-57.525 214.689 128.52 34.436a51.96 51.96 0 0 0 12.904 1.744zm-375.523-98.906l57.525-214.689-66.316-17.77c-.118.441-.183.975-.301 1.416l-25.217 94.111c-2.443 9.117-11.951 14.607-21.068 12.164s-14.607-11.952-12.164-21.068l25.215-94.111c.118-.441.331-.936.449-1.377l-29.115-7.801c-27.591-7.314-55.931 9.047-63.299 36.545l-30.826 114.75c-7.314 27.591 9.047 55.933 36.545 63.301l128.572 34.529zm278.158-234.926l22.223-82.934c9.85-36.762-11.949-74.517-48.711-84.367l-34.408-9.221-.094.055c-36.762-9.85-74.517 11.947-84.367 48.709l-22.223 82.936 167.58 44.822z"/></svg>