<?xml version="1.0" encoding="UTF-8"?>
<!-- Generated by Pixelmator Pro 3.2.3 -->
<svg width="904" height="904" viewBox="0 0 904 904" xmlns="http://www.w3.org/2000/svg" xmlns:xlink="http://www.w3.org/1999/xlink">
    <path id="pen-ruler-solid" fill="#000000" fill-rule="evenodd" stroke="none" d="M 452 904 C 202.367544 904 0 701.632456 0 452 C 0 202.367559 202.367544 0 452 0 C 701.632441 0 904 202.367559 904 452 C 904 701.632456 701.632441 904 452 904 Z M 202.542969 727.480469 C 204.827079 727.453556 207.128107 727.124397 209.388672 726.478516 L 321.339844 694.507813 C 331.13561 691.709048 340.178352 686.434899 347.390625 679.222656 L 621.779297 404.939453 L 499.064453 282.224609 L 224.78125 556.613281 L 224.673828 556.505859 C 217.461555 563.718102 212.187467 572.653239 209.388672 582.556641 L 177.417969 694.507813 C 174.83446 703.550086 177.31034 713.23809 183.984375 719.912109 C 188.989913 724.917647 195.690638 727.561207 202.542969 727.480469 Z M 589.794922 725.429688 C 603.021898 725.429688 616.235911 720.396917 626.300781 710.332031 L 710.373047 626.367188 C 730.502849 606.129781 730.502849 573.407084 710.373047 553.277344 L 689.058594 531.855469 C 688.735596 532.178405 688.412841 532.608673 688.089844 532.931641 L 619.197266 601.824219 C 612.523261 608.498254 601.543145 608.498254 594.869141 601.824219 C 588.195075 595.150184 588.195075 584.170098 594.869141 577.496094 L 663.761719 508.603516 C 664.084655 508.280548 664.514893 507.957702 664.837891 507.634766 L 616.289063 459.085938 L 459.126953 616.25 L 553.208984 710.332031 C 563.327688 720.396917 576.567945 725.429688 589.794922 725.429688 Z M 287.753906 444.876953 L 444.917969 287.714844 L 396.369141 239.166016 C 396.046173 239.488952 395.723327 239.919251 395.400391 240.242188 L 326.507813 309.134766 C 319.833777 315.808831 308.853723 315.808831 302.179688 309.134766 C 295.505622 302.460761 295.505622 291.480645 302.179688 284.806641 L 371.072266 215.914063 C 371.395202 215.591126 371.825501 215.268249 372.148438 214.945313 L 350.835938 193.630859 C 330.598531 173.501119 297.873912 173.501119 277.744141 193.630859 L 193.671875 277.595703 C 173.542104 297.83311 173.542104 330.557759 193.671875 350.6875 L 287.753906 444.876953 Z M 646.107422 380.503906 L 706.820313 319.792969 C 733.731785 292.881497 733.731785 249.284458 706.820313 222.373047 L 681.630859 197.183594 L 681.523438 197.183594 C 654.611965 170.272183 611.014927 170.272183 584.103516 197.183594 L 523.390625 257.896484 L 646.107422 380.503906 Z"/>
</svg>
