<?xml version="1.0" encoding="UTF-8"?>
<!-- Generated by Pixelmator Pro 3.2.3 -->
<svg width="904" height="904" viewBox="0 0 904 904" xmlns="http://www.w3.org/2000/svg" xmlns:xlink="http://www.w3.org/1999/xlink">
    <path id="Path" fill="#000000" fill-rule="evenodd" stroke="none" d="M 452 904 C 202.367538 904 0 701.632446 0 452 C 0 202.367554 202.367538 0 452 0 C 701.632446 0 904 202.367554 904 452 C 904 701.632446 701.632446 904 452 904 Z M 211.691406 676.085938 C 214.768906 676.131104 217.840637 675.252747 220.5 673.599609 C 224.199997 671.299561 226.799622 667.499207 227.599609 663.199219 C 236.1996 620.399231 231.899994 582 225.5 554.5 C 222.300003 540.299988 218 525.799988 212 512.5 L 212 487.900391 C 212 457.700439 222.200409 429.200378 239.900391 406.400391 C 252.800385 390.900452 269.499634 378.399231 289.099609 370.699219 L 446.099609 309 C 454.299591 305.799988 463.6008 309.799988 466.800781 318 C 470.000793 326.200012 466.000793 335.499207 457.800781 338.699219 L 300.800781 400.400391 C 288.400787 405.300385 277.499603 412.799988 268.599609 422 L 428.199219 479.599609 C 435.799194 482.299591 443.800385 483.699219 451.900391 483.699219 C 460.000397 483.699219 467.999603 482.299591 475.599609 479.599609 L 756.199219 378.599609 C 765.699219 375.199585 772 366.100037 772 356 C 772 345.900024 765.699219 336.900391 756.199219 333.400391 L 475.699219 232.099609 C 468.099213 229.399597 460.100006 228 452 228 C 443.899994 228 435.900787 229.399597 428.300781 232.099609 L 147.800781 333.400391 C 138.300797 336.900391 132 345.900024 132 356 C 132 366.100037 138.300797 375.099609 147.800781 378.599609 L 205.699219 399.5 C 189.29924 425.299957 180 455.800415 180 487.900391 L 180 516 C 180 544.399963 169.199203 573.700806 157.699219 596.800781 C 151.199219 609.800781 143.79921 622.600403 135.199219 634.400391 C 131.999222 638.700439 131.100403 644.300415 132.900391 649.400391 C 134.700394 654.500366 138.899597 658.299561 144.099609 659.599609 L 208.099609 675.599609 C 209.280869 675.908997 210.487167 676.068237 211.691406 676.085938 Z M 452 676 C 557.999878 676 644 639.299927 644 604 L 628.699219 458.599609 L 486.5 510 C 475.399994 514 463.700012 516 452 516 C 440.299988 516 428.5 514 417.5 510 L 275.300781 458.599609 L 260 604 C 260 639.299927 346.000092 676 452 676 Z"/>
</svg>
