<svg xmlns="http://www.w3.org/2000/svg" width="2200" height="2200" opacity=".05" fill-rule="evenodd" xmlns:v="https://vecta.io/nano"><path d="M1098.582 1599.924c-84.527-.148-170.159-21.762-248.615-67.059-239.106-138.048-321.03-443.792-182.982-682.898s443.792-321.03 682.898-182.982 321.03 443.792 182.982 682.898c-92.751 160.649-261.203 250.344-434.283 250.041zM864.154 1351.61c9.055-.015 18.228-2.329 26.629-7.18l104.539-60.355 134.828 29.594c28.922 6.361 57.414-11.893 63.775-40.814 1.911-8.962 1.526-17.884-.766-26.094l25.127 5.588c28.825 6.417 57.47-11.796 63.887-40.621 1.614-7.244 1.624-14.591.361-21.463 25.995 1.739 49.997-15.597 55.816-41.887 6.417-28.825-11.798-57.472-40.623-63.889l-198.27-43.979-27.525 67.678c-16.712 41.339-64.436 60.647-105.311 42.508-38.462-17.084-56.815-61.366-41.727-100.607l42.844-111.434c-13.941 1.736-27.411 6.295-39.682 13.379-18.22 10.39-32.777 26.009-42.145 44.814l-42.787 86.537-77.293 44.625c-25.603 14.782-34.384 47.549-19.602 73.152l71.4 123.668c9.932 17.202 27.98 26.81 46.521 26.779zm134.133-229.854c17.247.169 33.708-10.058 40.596-27.078l52.877-129.979a17.92 17.92 0 0 1 23.301-9.846c9.219 3.695 13.541 14.082 9.846 23.301l-11.156 27.311 262.238 58.832 40.387-23.316c25.603-14.782 34.382-47.547 19.6-73.15l-71.4-123.668c-14.782-25.603-47.547-34.384-73.15-19.602l-73.428 42.395-3.865 2.23-.676.391-5.162-.24-96.082-4.43c-20.249-.934-40.443 4.027-58.027 14.18-21.062 12.16-37.362 31.232-46.145 53.951l-49.791 129.744c-8.304 21.541 1.753 45.878 22.855 55.207 5.598 2.5 11.435 3.711 17.184 3.768zM-1.418 1599.924c-84.527-.148-170.159-21.762-248.615-67.059-239.106-138.048-321.03-443.792-182.982-682.898s443.792-321.03 682.898-182.982 321.03 443.792 182.982 682.898c-92.751 160.649-261.203 250.344-434.283 250.041zm-234.428-248.314c9.055-.015 18.228-2.329 26.629-7.18l104.539-60.355 134.828 29.594c28.922 6.361 57.416-11.893 63.777-40.814 1.911-8.962 1.525-17.884-.768-26.094l25.127 5.588c28.825 6.417 57.47-11.796 63.887-40.621 1.614-7.244 1.624-14.591.361-21.463 25.995 1.739 49.997-15.597 55.816-41.887 6.417-28.825-11.798-57.472-40.623-63.889L-.541 1040.51l-27.525 67.678c-16.712 41.339-64.436 60.647-105.311 42.508-38.462-17.084-56.815-61.366-41.727-100.607l42.844-111.434c-13.941 1.736-27.411 6.295-39.682 13.379-18.22 10.39-32.777 26.009-42.145 44.814l-42.787 86.537-77.293 44.625c-25.603 14.782-34.384 47.549-19.602 73.152l71.4 123.668c9.932 17.202 27.98 26.81 46.521 26.779zm134.133-229.854c17.247.169 33.708-10.058 40.596-27.078L-8.24 964.699a17.92 17.92 0 0 1 23.301-9.846c9.219 3.695 13.541 14.082 9.846 23.301l-11.156 27.311 262.238 58.832 40.387-23.316c25.603-14.782 34.382-47.547 19.6-73.15l-71.4-123.668c-14.782-25.603-47.547-34.384-73.15-19.602l-73.428 42.395-3.865 2.23-.676.391-5.162-.24-96.082-4.43c-20.249-.934-40.443 4.027-58.027 14.18-21.062 12.16-37.362 31.232-46.145 53.951l-49.791 129.744c-8.304 21.541 1.753 45.878 22.855 55.207 5.598 2.5 11.435 3.711 17.184 3.768zm2300.295 478.168c-84.527-.148-170.159-21.762-248.615-67.059-239.106-138.048-321.03-443.792-182.982-682.898s443.792-321.03 682.898-182.982 321.03 443.792 182.982 682.898c-92.751 160.649-261.203 250.344-434.283 250.041zm-234.428-248.314c9.055-.015 18.228-2.329 26.629-7.18l104.539-60.355 134.828 29.594c28.922 6.361 57.414-11.893 63.775-40.814 1.911-8.962 1.527-17.884-.766-26.094l25.127 5.588c28.825 6.417 57.472-11.796 63.889-40.621 1.614-7.244 1.622-14.591.359-21.463 25.995 1.739 49.997-15.597 55.816-41.887 6.417-28.825-11.798-57.472-40.623-63.889l-198.27-43.979-27.525 67.678c-16.712 41.339-64.436 60.647-105.311 42.508-38.462-17.084-56.815-61.366-41.727-100.607l42.844-111.434c-13.941 1.736-27.411 6.295-39.682 13.379-18.22 10.39-32.777 26.009-42.145 44.814l-42.789 86.537-77.291 44.625c-25.603 14.782-34.384 47.549-19.602 73.152l71.4 123.668c9.932 17.202 27.98 26.81 46.521 26.779zm134.133-229.854c17.247.169 33.708-10.058 40.596-27.078l52.877-129.979a17.92 17.92 0 0 1 23.301-9.846c9.219 3.695 13.541 14.082 9.846 23.301l-11.156 27.311 262.238 58.832 40.387-23.316c25.603-14.782 34.382-47.547 19.6-73.15l-71.4-123.668c-14.782-25.603-47.547-34.384-73.15-19.602l-73.428 42.395-3.865 2.23-.676.391-5.162-.24-96.082-4.43c-20.249-.934-40.443 4.027-58.027 14.18-21.062 12.16-37.362 31.232-46.145 53.951l-49.791 129.744c-8.304 21.541 1.753 45.878 22.855 55.207 5.598 2.5 11.435 3.711 17.184 3.768zm-449.705-621.832c-84.527-.148-170.159-21.762-248.615-67.059-239.106-138.048-321.03-443.792-182.982-682.898s443.792-321.03 682.898-182.982 321.03 443.792 182.982 682.898c-92.751 160.649-261.203 250.344-434.283 250.041zM1414.154 251.61c9.055-.015 18.228-2.329 26.629-7.18l104.539-60.355 134.828 29.594c28.922 6.361 57.414-11.893 63.775-40.814 1.911-8.962 1.526-17.884-.766-26.094l25.127 5.588c28.825 6.417 57.47-11.796 63.887-40.621 1.614-7.244 1.624-14.591.361-21.463 25.995 1.739 49.997-15.597 55.816-41.887 6.417-28.825-11.798-57.472-40.623-63.889l-198.27-43.979-27.525 67.678c-16.712 41.339-64.436 60.647-105.311 42.508-38.462-17.084-56.815-61.366-41.727-100.607l42.844-111.434c-13.941 1.737-27.411 6.295-39.682 13.379-18.22 10.39-32.777 26.009-42.145 44.814l-42.789 86.539-77.291 44.623c-25.603 14.782-34.384 47.547-19.602 73.15l71.4 123.67c9.932 17.202 27.98 26.81 46.521 26.779zm134.133-229.854c17.247.169 33.708-10.058 40.596-27.078l52.877-129.979a17.92 17.92 0 0 1 23.301-9.846c9.219 3.695 13.541 14.082 9.846 23.301l-11.156 27.311 262.238 58.832 40.387-23.316c25.603-14.782 34.382-47.547 19.6-73.15l-71.4-123.668c-14.782-25.603-47.547-34.384-73.15-19.602l-73.428 42.395-3.865 2.23-.676.391-5.162-.24-96.082-4.43c-20.249-.934-40.443 4.027-58.027 14.18-21.062 12.16-37.362 31.232-46.145 53.951L1508.25-37.218c-8.304 21.541 1.753 45.877 22.855 55.207 5.598 2.5 11.435 3.711 17.184 3.768zM548.582 499.924c-84.527-.148-170.159-21.762-248.615-67.059C60.861 294.817-21.064-10.927 116.984-250.033s443.792-321.03 682.898-182.982 321.03 443.792 182.982 682.898c-92.751 160.649-261.203 250.344-434.283 250.041zM314.154 251.609c9.055-.015 18.228-2.329 26.629-7.18l104.539-60.355 134.828 29.594c28.922 6.361 57.414-11.893 63.775-40.814 1.911-8.962 1.526-17.884-.766-26.094l25.127 5.588c28.825 6.417 57.47-11.796 63.887-40.621 1.614-7.244 1.624-14.591.361-21.463 25.995 1.739 49.997-15.597 55.816-41.887 6.417-28.825-11.798-57.472-40.623-63.889L549.459-59.49 521.934 8.188c-16.712 41.339-64.436 60.647-105.311 42.508-38.462-17.084-56.815-61.366-41.727-100.607l42.844-111.434c-13.941 1.737-27.411 6.295-39.682 13.379-18.22 10.39-32.777 26.009-42.145 44.814l-42.787 86.539-77.293 44.623c-25.603 14.782-34.384 47.547-19.602 73.15l71.4 123.67c9.932 17.202 27.98 26.81 46.521 26.779zM448.287 21.756c17.247.169 33.708-10.058 40.596-27.078l52.877-129.979a17.92 17.92 0 0 1 23.301-9.846c9.219 3.695 13.541 14.082 9.846 23.301L563.75-94.535l262.238 58.832 40.387-23.316c25.603-14.782 34.382-47.547 19.6-73.15l-71.4-123.668c-14.782-25.603-47.547-34.384-73.15-19.602l-73.428 42.395-3.865 2.23-.676.391-5.162-.24-96.082-4.43c-20.249-.934-40.443 4.027-58.027 14.18-21.062 12.16-37.362 31.232-46.145 53.951L408.248-37.219c-8.304 21.541 1.753 45.877 22.855 55.207 5.598 2.5 11.435 3.711 17.184 3.768zm100.295 2678.168c-84.527-.148-170.159-21.762-248.615-67.059-239.106-138.048-321.03-443.792-182.982-682.898s443.792-321.031 682.898-182.982 321.03 443.792 182.982 682.898c-92.751 160.649-261.203 250.344-434.283 250.041zM314.154 2451.61c9.055-.015 18.228-2.329 26.629-7.18l104.539-60.355 134.828 29.594c28.922 6.361 57.414-11.893 63.775-40.814 1.911-8.961 1.526-17.884-.766-26.094l25.127 5.588c28.825 6.417 57.47-11.796 63.887-40.621 1.614-7.244 1.624-14.591.361-21.463 25.995 1.739 49.997-15.597 55.816-41.887 6.417-28.825-11.798-57.472-40.623-63.889l-198.27-43.979-27.525 67.678c-16.712 41.339-64.436 60.647-105.311 42.508-38.462-17.084-56.815-61.366-41.727-100.607l42.844-111.434c-13.941 1.736-27.411 6.295-39.682 13.379-18.22 10.39-32.777 26.009-42.145 44.814l-42.787 86.537-77.293 44.625c-25.603 14.782-34.384 47.549-19.602 73.152l71.4 123.668c9.932 17.202 27.98 26.81 46.521 26.779zm134.133-229.854c17.247.169 33.708-10.058 40.596-27.078l52.877-129.979a17.92 17.92 0 0 1 23.301-9.846c9.219 3.695 13.541 14.082 9.846 23.301l-11.156 27.311 262.238 58.832 40.387-23.316c25.603-14.782 34.382-47.547 19.6-73.15l-71.4-123.668c-14.782-25.603-47.547-34.384-73.15-19.602l-73.428 42.395-3.865 2.23-.676.391-5.162-.24-96.082-4.43c-20.249-.934-40.443 4.027-58.027 14.18-21.062 12.16-37.362 31.232-46.145 53.951l-49.791 129.744c-8.304 21.541 1.753 45.878 22.855 55.207 5.598 2.5 11.435 3.711 17.184 3.768zm1200.295 478.168c-84.527-.148-170.159-21.762-248.615-67.059-239.106-138.048-321.03-443.792-182.982-682.898s443.792-321.031 682.898-182.982 321.03 443.792 182.982 682.898c-92.751 160.649-261.203 250.344-434.283 250.041zm-234.428-248.314c9.055-.015 18.228-2.329 26.629-7.18l104.539-60.355 134.828 29.594c28.922 6.361 57.414-11.893 63.775-40.814 1.911-8.961 1.526-17.884-.766-26.094l25.127 5.588c28.825 6.417 57.47-11.796 63.887-40.621 1.614-7.244 1.624-14.591.361-21.463 25.995 1.739 49.997-15.597 55.816-41.887 6.417-28.825-11.798-57.472-40.623-63.889l-198.27-43.979-27.525 67.678c-16.712 41.339-64.436 60.647-105.311 42.508-38.462-17.084-56.815-61.366-41.727-100.607l42.844-111.434c-13.941 1.736-27.411 6.295-39.682 13.379-18.22 10.39-32.777 26.009-42.145 44.814l-42.789 86.537-77.291 44.625c-25.603 14.782-34.384 47.549-19.602 73.152l71.4 123.668c9.932 17.202 27.98 26.81 46.521 26.779zm134.133-229.854c17.247.169 33.708-10.058 40.596-27.078l52.877-129.979a17.92 17.92 0 0 1 23.301-9.846c9.219 3.695 13.541 14.082 9.846 23.301l-11.156 27.311 262.238 58.832 40.387-23.316c25.603-14.782 34.382-47.547 19.6-73.15l-71.4-123.668c-14.782-25.603-47.547-34.384-73.15-19.602l-73.428 42.395-3.865 2.23-.676.391-5.162-.24-96.082-4.43c-20.249-.934-40.443 4.027-58.027 14.18-21.062 12.16-37.362 31.232-46.145 53.951l-49.791 129.744c-8.304 21.541 1.753 45.878 22.855 55.207 5.598 2.5 11.435 3.711 17.184 3.768z"/></svg>