<svg xmlns="http://www.w3.org/2000/svg" width="2200" height="2200" opacity=".047" fill-rule="evenodd" xmlns:v="https://vecta.io/nano"><path d="M1098.582 1599.924c-84.527-.148-170.159-21.762-248.615-67.059-239.106-138.048-321.03-443.792-182.982-682.898s443.792-321.03 682.898-182.982 321.03 443.792 182.982 682.898c-92.751 160.649-261.203 250.344-434.283 250.041zM997.51 1462.967c1.902.029 4.192-.108 5.762-.371 2.398-.402 6.313-2.224 10.582-4.924 5.531-3.499 7.383-5.255 10.072-9.555 2.568-4.106 8.931-26.105 28.844-99.725l43.879-165.084c13.889-53.513 18.242-71.974 17.961-76.186-.306-4.581-1.121-6.854-4.623-12.92-3.496-6.055-5.066-7.907-8.846-10.437-3.457-2.314-21.695-7.802-73.633-22.152l-121.248-32.891-97.717-25.637c-32.992-8.569-46.955-11.71-50.775-11.418-2.898.221-7.618 1.498-10.488 2.836-3.966 1.848-6.146 3.563-9.08 7.146-2.124 2.593-4.763 7.484-5.865 10.867s-1.875 8.609-1.721 11.613c.23 4.473 1.004 6.718 4.279 12.391 3.195 5.534 4.922 7.557 8.58 10.057 3.672 2.509 34.265 11.111 304.129 83.656l-40.023 149.83-39.564 155.336c.351 4.214 1.333 7.046 4.182 12.049 2.695 4.733 4.818 7.331 7.688 9.406 2.181 1.577 5.82 3.498 8.086 4.27s5.78 1.562 7.809 1.756a22.32 22.32 0 0 0 1.732.086zm288.336-166.021c2.647.017 6.578-.477 8.734-1.098s5.75-2.408 7.984-3.971 5.629-5.131 7.545-7.93c2.982-4.355 9.949-29.115 48.396-172.02l44.473-172.451c-.341-4.292-1.273-6.965-4.189-12.016s-4.761-7.19-8.312-9.633c-3.695-2.542-36.348-11.626-171.604-47.744l-173.211-44.297c-5.001.25-7.328.968-12.252 3.781-4.935 2.82-6.744 4.464-9.617 8.748-2.059 3.07-4.124 8.043-4.939 11.893-.871 4.111-.949 8.649-.209 11.986.788 3.553 2.406 7.196 4.781 10.766 2.639 3.965 4.901 6.156 8.531 8.266 3.349 1.946 52.965 15.774 303.168 82.996l-40.109 149.885-39.564 155.918c.408 4.509 1.369 7.461 3.797 11.666 2.365 4.097 4.494 6.501 7.824 8.836 2.516 1.764 6.687 3.923 9.268 4.797s6.859 1.604 9.506 1.621zM548.582 2699.924c-84.527-.148-170.159-21.762-248.615-67.059-239.106-138.048-321.03-443.792-182.982-682.898s443.792-321.031 682.898-182.982 321.03 443.792 182.982 682.898c-92.751 160.649-261.203 250.344-434.283 250.041zM447.51 2562.967c1.902.029 4.192-.108 5.762-.371 2.398-.402 6.313-2.224 10.582-4.924 5.531-3.499 7.383-5.255 10.072-9.555 2.568-4.106 8.931-26.105 28.844-99.725l43.879-165.084c13.889-53.513 18.242-71.974 17.961-76.186-.306-4.581-1.121-6.856-4.623-12.922-3.496-6.054-5.066-7.906-8.846-10.436-3.457-2.314-21.695-7.802-73.633-22.152l-121.248-32.891-97.717-25.637c-32.992-8.569-46.955-11.71-50.775-11.418-2.898.221-7.618 1.498-10.488 2.836-3.966 1.848-6.146 3.563-9.08 7.146-2.124 2.593-4.763 7.484-5.865 10.867s-1.875 8.609-1.721 11.613c.23 4.473 1.004 6.718 4.279 12.391 3.195 5.534 4.922 7.557 8.58 10.057 3.672 2.509 34.265 11.111 304.129 83.656l-40.023 149.83-39.564 155.336c.351 4.214 1.333 7.046 4.182 12.049 2.695 4.733 4.818 7.331 7.688 9.406 2.181 1.577 5.82 3.498 8.086 4.27s5.78 1.562 7.809 1.756a22.32 22.32 0 0 0 1.732.086zm288.336-166.021c2.647.017 6.578-.477 8.734-1.098s5.75-2.408 7.984-3.971 5.629-5.131 7.545-7.93c2.982-4.355 9.949-29.115 48.396-172.02l44.473-172.451c-.341-4.292-1.273-6.963-4.189-12.014s-4.761-7.192-8.312-9.635c-3.695-2.542-36.348-11.626-171.604-47.744l-173.211-44.297c-5.001.25-7.328.968-12.252 3.781-4.935 2.82-6.744 4.464-9.617 8.748-2.059 3.07-4.124 8.043-4.939 11.893-.871 4.111-.949 8.649-.209 11.986.788 3.553 2.406 7.196 4.781 10.766 2.639 3.965 4.901 6.158 8.531 8.268 3.349 1.946 52.965 15.771 303.168 82.994l-40.109 149.885-39.564 155.918c.408 4.509 1.369 7.459 3.797 11.664 2.365 4.097 4.494 6.503 7.824 8.838 2.516 1.764 6.687 3.923 9.268 4.797s6.859 1.604 9.506 1.621zm912.736 302.978c-84.527-.148-170.159-21.762-248.615-67.059-239.106-138.048-321.031-443.792-182.982-682.898s443.792-321.031 682.898-182.982 321.03 443.792 182.982 682.898c-92.751 160.649-261.203 250.344-434.283 250.041zm-101.072-136.957c1.902.029 4.192-.108 5.762-.371 2.398-.402 6.313-2.224 10.582-4.924 5.531-3.499 7.383-5.255 10.072-9.555 2.568-4.106 8.931-26.105 28.844-99.725l43.879-165.084c13.889-53.513 18.242-71.974 17.961-76.186-.306-4.581-1.121-6.856-4.623-12.922-3.496-6.054-5.066-7.906-8.846-10.436-3.457-2.314-21.695-7.802-73.633-22.152l-121.248-32.891-97.717-25.637c-32.992-8.569-46.955-11.71-50.775-11.418-2.898.221-7.618 1.498-10.488 2.836-3.966 1.848-6.146 3.563-9.08 7.146-2.124 2.593-4.763 7.484-5.865 10.867s-1.875 8.609-1.721 11.613c.23 4.473 1.004 6.718 4.279 12.391 3.195 5.534 4.922 7.557 8.58 10.057 3.672 2.509 34.265 11.111 304.129 83.656l-40.023 149.83-39.564 155.336c.351 4.214 1.333 7.046 4.182 12.049 2.695 4.733 4.818 7.331 7.688 9.406 2.181 1.577 5.82 3.498 8.086 4.27s5.78 1.562 7.809 1.756c.507.048 1.098.076 1.732.086zm288.336-166.021c2.647.017 6.578-.477 8.734-1.098s5.75-2.408 7.984-3.971 5.629-5.131 7.545-7.93c2.982-4.355 9.949-29.115 48.396-172.02l44.473-172.451c-.341-4.292-1.273-6.963-4.189-12.014s-4.761-7.192-8.312-9.635c-3.695-2.542-36.348-11.626-171.604-47.744l-173.211-44.297c-5.001.25-7.328.968-12.252 3.781-4.935 2.82-6.744 4.464-9.617 8.748-2.059 3.07-4.124 8.043-4.939 11.893-.871 4.111-.949 8.649-.209 11.986.788 3.553 2.406 7.196 4.781 10.766 2.639 3.965 4.901 6.158 8.531 8.268 3.349 1.946 52.965 15.771 303.168 82.994l-40.109 149.885-39.564 155.918c.408 4.509 1.369 7.459 3.797 11.664 2.365 4.097 4.494 6.503 7.824 8.838 2.516 1.764 6.687 3.923 9.268 4.797s6.859 1.604 9.506 1.621zM1648.582 499.924c-84.527-.148-170.159-21.762-248.615-67.059-239.106-138.048-321.031-443.792-182.982-682.898s443.792-321.03 682.898-182.982 321.03 443.792 182.982 682.898c-92.751 160.649-261.203 250.344-434.283 250.041zM1547.51 362.967c1.902.029 4.192-.108 5.762-.371 2.398-.402 6.313-2.224 10.582-4.924 5.531-3.499 7.383-5.255 10.072-9.555 2.568-4.106 8.931-26.105 28.844-99.725l43.879-165.084c13.889-53.513 18.242-71.974 17.961-76.186-.306-4.581-1.121-6.854-4.623-12.92-3.496-6.055-5.066-7.907-8.846-10.437-3.457-2.314-21.695-7.802-73.633-22.152l-121.248-32.89-97.717-25.637c-32.992-8.569-46.955-11.71-50.775-11.418-2.898.221-7.618 1.498-10.488 2.836-3.966 1.848-6.146 3.563-9.08 7.146-2.124 2.593-4.763 7.484-5.865 10.867s-1.875 8.609-1.721 11.613c.23 4.473 1.004 6.718 4.279 12.391 3.195 5.534 4.922 7.557 8.58 10.057 3.672 2.509 34.265 11.111 304.129 83.656l-40.023 149.83-39.564 155.336c.351 4.214 1.333 7.046 4.182 12.049 2.695 4.733 4.818 7.331 7.688 9.406 2.181 1.577 5.82 3.498 8.086 4.27s5.78 1.562 7.809 1.756c.507.048 1.098.076 1.732.086zm288.336-166.021c2.647.017 6.578-.477 8.734-1.098s5.75-2.408 7.984-3.971 5.629-5.131 7.545-7.93c2.982-4.355 9.949-29.115 48.396-172.02l44.473-172.451c-.341-4.292-1.273-6.965-4.189-12.016s-4.761-7.19-8.312-9.633c-3.695-2.542-36.348-11.626-171.604-47.744l-173.211-44.297c-5.001.25-7.328.968-12.252 3.781-4.935 2.82-6.744 4.464-9.617 8.748-2.059 3.07-4.124 8.043-4.939 11.893-.871 4.111-.949 8.649-.209 11.986.788 3.553 2.406 7.196 4.781 10.766 2.639 3.965 4.901 6.156 8.531 8.266 3.349 1.946 52.965 15.773 303.168 82.996l-40.109 149.885-39.564 155.918c.408 4.509 1.369 7.461 3.797 11.666 2.365 4.097 4.494 6.501 7.824 8.836 2.516 1.764 6.687 3.922 9.268 4.797s6.859 1.604 9.506 1.621z"/><path d="M548.582 499.924c-84.527-.148-170.159-21.762-248.615-67.059C60.861 294.817-21.064-10.927 116.984-250.033s443.792-321.03 682.898-182.982 321.03 443.792 182.982 682.898c-92.751 160.649-261.203 250.344-434.283 250.041zM447.51 362.967c1.902.029 4.192-.108 5.762-.371 2.398-.402 6.313-2.224 10.582-4.924 5.531-3.499 7.383-5.255 10.072-9.555 2.568-4.106 8.931-26.105 28.844-99.725l43.879-165.084c13.889-53.513 18.242-71.974 17.961-76.186-.306-4.581-1.121-6.854-4.623-12.92-3.496-6.055-5.066-7.907-8.846-10.437-3.457-2.314-21.695-7.802-73.633-22.152L356.26-71.277l-97.717-25.637c-32.992-8.569-46.955-11.71-50.775-11.418-2.898.221-7.618 1.498-10.488 2.836-3.966 1.848-6.146 3.563-9.08 7.146-2.124 2.593-4.763 7.484-5.865 10.867s-1.875 8.609-1.721 11.613c.23 4.473 1.004 6.718 4.279 12.391 3.195 5.534 4.922 7.557 8.58 10.057 3.672 2.509 34.265 11.111 304.129 83.656l-40.023 149.83L418.014 335.4c.351 4.214 1.333 7.046 4.182 12.049 2.695 4.733 4.818 7.331 7.688 9.406 2.181 1.577 5.82 3.498 8.086 4.27s5.78 1.562 7.809 1.756a22.32 22.32 0 0 0 1.732.086zm288.336-166.021c2.647.017 6.578-.477 8.734-1.098s5.75-2.408 7.984-3.971 5.629-5.131 7.545-7.93c2.982-4.355 9.949-29.115 48.396-172.02l44.473-172.451c-.341-4.292-1.273-6.965-4.189-12.016s-4.761-7.19-8.312-9.633c-3.695-2.542-36.348-11.626-171.604-47.744l-173.211-44.297c-5.001.25-7.328.968-12.252 3.781-4.935 2.82-6.744 4.464-9.617 8.748-2.059 3.07-4.124 8.043-4.939 11.893-.871 4.111-.949 8.649-.209 11.986.788 3.553 2.406 7.196 4.781 10.766 2.639 3.965 4.901 6.156 8.531 8.266 3.349 1.946 52.965 15.773 303.168 82.996L745.016 14.107l-39.564 155.918c.408 4.509 1.369 7.461 3.797 11.666 2.365 4.097 4.494 6.501 7.824 8.836 2.516 1.764 6.687 3.922 9.268 4.797s6.859 1.604 9.506 1.621zm1462.736 1402.978c-84.527-.148-170.159-21.762-248.615-67.059-239.106-138.048-321.031-443.792-182.982-682.898s443.792-321.03 682.898-182.982 321.03 443.792 182.982 682.898c-92.751 160.649-261.203 250.344-434.283 250.041zm-101.072-136.957c1.902.029 4.192-.108 5.762-.371 2.398-.402 6.315-2.224 10.584-4.924 5.531-3.499 7.381-5.255 10.07-9.555 2.568-4.106 8.931-26.105 28.844-99.725l43.879-165.084c13.889-53.513 18.242-71.974 17.961-76.186-.306-4.581-1.121-6.854-4.623-12.92-3.496-6.055-5.066-7.907-8.846-10.437-3.457-2.314-21.695-7.802-73.633-22.152l-121.248-32.891-97.717-25.637c-32.992-8.569-46.955-11.71-50.775-11.418-2.898.221-7.618 1.498-10.488 2.836-3.966 1.848-6.146 3.563-9.08 7.146-2.124 2.593-4.763 7.484-5.865 10.867s-1.875 8.609-1.721 11.613c.23 4.473 1.004 6.718 4.279 12.391 3.195 5.534 4.922 7.557 8.58 10.057 3.672 2.509 34.265 11.111 304.129 83.656l-40.023 149.83-39.564 155.336c.351 4.214 1.333 7.046 4.182 12.049 2.695 4.733 4.818 7.331 7.688 9.406 2.181 1.577 5.82 3.498 8.086 4.27s5.78 1.562 7.809 1.756a22.32 22.32 0 0 0 1.732.086zm288.336-166.021c2.647.017 6.578-.477 8.734-1.098s5.75-2.408 7.984-3.971 5.629-5.131 7.545-7.93c2.982-4.355 9.949-29.115 48.396-172.02l44.473-172.451c-.341-4.292-1.273-6.965-4.189-12.016s-4.761-7.19-8.312-9.633c-3.695-2.542-36.348-11.626-171.604-47.744l-173.211-44.297c-5.001.25-7.328.968-12.252 3.781-4.935 2.82-6.744 4.464-9.617 8.748-2.059 3.07-4.122 8.043-4.937 11.893-.871 4.111-.951 8.649-.211 11.986.788 3.553 2.406 7.196 4.781 10.766 2.639 3.965 4.901 6.156 8.531 8.266 3.35 1.946 52.965 15.774 303.168 82.996l-40.109 149.885-39.564 155.918c.408 4.509 1.369 7.461 3.797 11.666 2.365 4.097 4.496 6.501 7.826 8.836 2.516 1.764 6.685 3.923 9.266 4.797s6.858 1.604 9.506 1.621zM-1.418 1599.924c-84.527-.148-170.159-21.762-248.615-67.059-239.106-138.048-321.03-443.792-182.982-682.898s443.792-321.03 682.898-182.982 321.03 443.792 182.982 682.898c-92.751 160.649-261.203 250.344-434.283 250.041zm-101.072-136.957c1.902.029 4.192-.108 5.762-.371 2.398-.402 6.313-2.224 10.582-4.924 5.531-3.499 7.383-5.255 10.072-9.555 2.568-4.106 8.931-26.105 28.844-99.725l43.879-165.084c13.889-53.513 18.242-71.974 17.961-76.186-.306-4.581-1.121-6.854-4.623-12.92-3.496-6.055-5.066-7.907-8.846-10.437-3.457-2.314-21.695-7.802-73.633-22.152l-121.248-32.891-97.717-25.637c-32.992-8.569-46.955-11.71-50.775-11.418-2.898.221-7.618 1.498-10.488 2.836-3.966 1.848-6.146 3.563-9.08 7.146-2.124 2.593-4.763 7.484-5.865 10.867s-1.875 8.609-1.721 11.613c.23 4.473 1.004 6.718 4.279 12.391 3.195 5.534 4.922 7.557 8.58 10.057 3.672 2.509 34.265 11.111 304.129 83.656l-40.023 149.83-39.564 155.336c.351 4.214 1.333 7.046 4.182 12.049 2.695 4.733 4.818 7.331 7.688 9.406 2.181 1.577 5.82 3.498 8.086 4.27s5.78 1.562 7.809 1.756a22.32 22.32 0 0 0 1.732.086zm288.336-166.021c2.647.017 6.578-.477 8.734-1.098s5.75-2.408 7.984-3.971 5.629-5.131 7.545-7.93c2.982-4.355 9.949-29.115 48.396-172.02l44.473-172.451c-.341-4.292-1.273-6.965-4.189-12.016s-4.761-7.19-8.312-9.633c-3.695-2.542-36.348-11.626-171.604-47.744l-173.211-44.297c-5.001.25-7.328.968-12.252 3.781-4.935 2.82-6.744 4.464-9.617 8.748-2.059 3.07-4.124 8.043-4.939 11.893-.871 4.111-.949 8.649-.209 11.986.788 3.553 2.406 7.196 4.781 10.766 2.639 3.965 4.901 6.156 8.531 8.266 3.349 1.946 52.967 15.774 303.17 82.996l-40.111 149.885-39.564 155.918c.408 4.509 1.369 7.461 3.797 11.666 2.365 4.097 4.494 6.501 7.824 8.836 2.516 1.764 6.687 3.923 9.268 4.797s6.859 1.604 9.506 1.621z"/></svg>