<?xml version="1.0" standalone="no"?>
<!DOCTYPE svg PUBLIC "-//W3C//DTD SVG 20010904//EN"
 "http://www.w3.org/TR/2001/REC-SVG-20010904/DTD/svg10.dtd">
<svg version="1.0" xmlns="http://www.w3.org/2000/svg"
 width="1036.000000pt" height="1036.000000pt" viewBox="0 0 1036.000000 1036.000000"
 preserveAspectRatio="xMidYMid meet">
<metadata>
Created by potrace 1.14, written by Peter Selinger 2001-2017
</metadata>
<g transform="translate(0.000000,1036.000000) scale(0.100000,-0.100000)"
fill="#000000" stroke="none">
<path d="M0 5180 l0 -5180 5180 0 5180 0 0 5180 0 5180 -5180 0 -5180 0 0
-5180z m4630 4478 c-163 -105 -312 -242 -456 -418 -62 -77 -254 -337 -254
-345 0 -4 -74 -121 -108 -171 -7 -11 4 15 25 56 41 81 222 356 283 430 20 25
41 53 46 63 22 40 231 252 309 313 86 67 203 134 233 134 9 0 -26 -28 -78 -62z
m-295 -41 c-11 -8 -51 -31 -89 -51 -141 -78 -330 -238 -420 -356 -62 -81 -118
-174 -163 -270 -86 -180 -103 -214 -97 -190 21 86 132 319 201 423 111 167
334 356 508 430 66 29 90 34 60 14z m355 -2 c0 -3 -28 -19 -62 -36 -35 -18
-90 -52 -123 -77 -89 -68 -275 -260 -377 -389 -49 -62 -92 -113 -94 -113 -11
0 133 192 148 198 4 2 8 9 8 16 0 7 56 71 125 143 125 132 218 207 297 243 41
19 78 26 78 15z m244 -47 c-41 -57 -72 -92 -203 -233 -152 -163 -278 -279
-481 -443 -113 -91 -283 -212 -290 -206 -3 3 2 9 11 14 9 5 40 29 70 53 151
121 196 157 214 174 12 10 54 47 95 83 78 66 288 275 493 488 64 67 120 122
123 122 3 0 -11 -24 -32 -52z m1216 1 c-8 -5 -66 -34 -128 -64 -196 -94 -328
-184 -487 -334 -44 -42 -62 -56 -40 -32 166 183 312 294 494 379 98 45 199 78
161 51z m-300 -69 c-14 -11 -43 -32 -65 -47 -87 -60 -194 -152 -280 -242 -175
-184 -227 -236 -218 -220 16 32 255 302 318 360 76 70 227 168 260 168 6 0 -1
-8 -15 -19z m-763 -123 c-79 -149 -129 -228 -222 -352 -129 -170 -384 -410
-552 -518 -81 -52 -43 -10 99 109 185 154 335 299 415 399 34 44 67 85 72 91
21 25 141 214 186 292 26 45 50 82 52 82 2 0 -20 -46 -50 -103z m-684 -44
c-77 -76 -160 -160 -183 -188 -24 -27 -37 -40 -31 -27 42 79 312 352 349 352
3 0 -57 -62 -135 -137z m439 50 c-52 -62 -295 -300 -392 -384 -88 -77 -179
-145 -235 -178 l-40 -23 31 29 c42 39 83 73 124 104 19 15 46 36 60 48 14 12
65 57 115 99 49 42 153 139 230 214 77 76 142 138 143 138 2 0 -14 -21 -36
-47z m568 14 c0 -2 -12 -14 -27 -28 l-28 -24 24 28 c23 25 31 32 31 24z m-531
-69 c-33 -43 -224 -236 -309 -314 -110 -100 -231 -187 -354 -258 -58 -34 -54
-21 6 20 24 16 45 31 48 34 3 3 41 32 85 64 118 87 325 269 445 390 58 58 107
106 108 106 2 0 -11 -19 -29 -42z m406 -59 c-156 -158 -456 -431 -432 -392 8
13 108 109 226 219 35 32 78 73 95 89 65 62 169 155 175 155 3 0 -26 -32 -64
-71z m760 12 c-13 -13 -85 -43 -85 -36 0 3 19 14 43 25 50 22 54 23 42 11z
m-150 -74 c-307 -170 -324 -179 -465 -266 -63 -39 -128 -78 -145 -87 -16 -10
-109 -70 -206 -135 -97 -65 -201 -130 -230 -144 -53 -26 -54 -26 -29 -3 70 66
248 187 490 332 52 31 102 61 110 66 90 56 505 270 524 270 6 0 -16 -15 -49
-33z m-1076 -9 c-13 -18 -26 -35 -29 -38 -3 -3 -32 -36 -64 -74 -76 -87 -210
-217 -241 -234 -14 -7 46 59 133 145 86 87 170 175 186 196 35 46 46 49 15 5z
m1395 -30 c-16 -13 -47 -39 -70 -58 -55 -47 -71 -59 -129 -99 -28 -19 -52 -37
-55 -40 -28 -31 -306 -209 -490 -313 -71 -41 -399 -203 -465 -231 -74 -31
-175 -61 -182 -54 -9 10 77 57 394 215 299 149 434 220 545 288 26 16 75 46
108 66 85 52 348 236 355 249 4 6 9 8 13 5 3 -3 -8 -16 -24 -28z m-1066 -84
c-94 -87 -158 -138 -144 -115 15 24 215 200 229 200 4 1 -35 -38 -85 -85z
m1162 43 c0 -2 -12 -14 -27 -28 l-28 -24 24 28 c23 25 31 32 31 24z m-111
-113 c-60 -62 -266 -237 -364 -309 -118 -87 -448 -305 -460 -305 -3 0 -22 -11
-43 -25 -37 -24 -122 -58 -129 -52 -4 4 104 77 247 167 301 188 466 303 600
413 82 69 151 130 174 153 6 7 13 10 15 8 3 -3 -15 -25 -40 -50z m-609 -35
c-52 -28 -102 -57 -110 -64 -8 -7 -58 -39 -110 -72 -94 -58 -290 -200 -290
-209 0 -2 17 7 38 21 20 14 44 28 52 32 8 4 46 27 83 51 113 72 85 42 -39 -44
-64 -43 -139 -96 -167 -117 -92 -69 -277 -188 -315 -204 l-37 -15 20 22 c11
12 53 45 94 73 41 27 107 81 148 118 163 151 370 289 638 423 106 53 103 43
-5 -15z m1711 -6 c13 -16 12 -17 -3 -4 -10 7 -18 15 -18 17 0 8 8 3 21 -13z
m-801 3 c0 -2 -42 -35 -92 -74 -82 -62 -199 -174 -337 -322 -40 -43 -41 -43
-26 -12 42 86 214 252 373 359 80 54 82 55 82 49z m1170 -373 c82 -86 101
-107 199 -223 25 -30 71 -81 103 -115 39 -41 75 -97 117 -178 37 -72 79 -139
110 -173 45 -49 77 -94 134 -186 35 -56 47 -145 47 -347 0 -107 -4 -258 -10
-335 -5 -78 -17 -242 -26 -366 -8 -124 -22 -292 -30 -375 -26 -262 -33 -355
-44 -580 -6 -121 -18 -269 -26 -330 -27 -208 -28 -219 -10 -253 9 -18 24 -32
34 -32 35 0 100 -67 122 -128 12 -31 25 -61 30 -67 4 -5 21 -50 36 -100 22
-70 28 -110 28 -180 1 -85 -3 -101 -66 -285 -36 -107 -74 -235 -83 -285 -41
-222 -127 -428 -234 -565 -141 -180 -305 -300 -411 -300 -47 0 -46 2 -55 -140
-8 -132 -53 -379 -92 -510 -27 -92 -96 -231 -158 -315 -32 -44 -72 -100 -89
-124 -73 -104 -215 -289 -243 -319 -10 -10 -43 -48 -73 -83 -108 -127 -388
-398 -550 -533 -152 -126 -373 -282 -517 -364 -81 -47 -311 -153 -423 -196
-103 -40 -325 -99 -435 -115 -246 -35 -458 -16 -655 61 -63 25 -226 112 -255
137 -11 10 -30 24 -41 32 -36 23 -182 138 -211 165 -79 72 -382 378 -378 382
5 5 85 -57 118 -90 10 -10 25 -18 33 -18 8 0 13 -4 10 -9 -3 -5 8 -14 24 -21
16 -7 27 -17 23 -23 -3 -6 -1 -7 5 -3 6 3 28 -2 49 -13 116 -57 175 -81 238
-96 39 -9 80 -22 91 -30 16 -10 24 -11 33 -2 9 9 14 9 20 -1 7 -11 50 -13 210
-11 110 2 201 7 201 11 0 3 17 7 38 6 21 0 47 4 58 10 10 5 44 15 74 21 79 17
214 54 220 61 3 3 25 12 50 18 25 7 54 17 65 22 11 5 41 18 67 29 26 12 50 25
53 31 3 6 18 8 33 5 15 -3 21 -2 14 1 -8 4 43 34 120 72 73 36 154 81 181 101
26 20 53 36 60 36 12 0 27 11 68 47 10 10 21 18 24 18 7 0 144 102 170 126 11
11 36 31 55 46 19 14 55 44 80 66 38 34 48 39 65 29 18 -9 19 -9 6 6 -11 14
-11 17 -1 17 8 0 11 3 7 6 -9 9 54 60 70 56 7 -1 10 3 8 10 -3 7 8 22 25 33
17 11 33 28 36 38 3 9 11 17 17 17 17 0 77 67 69 76 -4 4 -2 4 5 0 7 -4 23 10
40 34 15 22 34 38 41 35 7 -3 11 -1 8 4 -3 5 13 29 37 54 80 86 163 182 188
217 13 19 31 42 40 50 8 8 28 32 43 53 20 26 32 34 40 28 8 -7 12 -4 12 9 0
10 -4 16 -9 13 -16 -10 11 33 40 64 15 16 34 42 42 56 8 15 17 25 20 22 4 -2
13 11 21 28 8 18 18 37 22 42 5 6 22 28 38 50 16 22 34 45 38 51 5 5 15 27 22
48 8 25 17 36 26 32 8 -3 14 1 14 10 0 8 -4 12 -10 9 -11 -7 -4 16 20 60 22
41 37 94 66 238 13 67 29 140 33 162 5 22 14 99 21 170 6 72 15 134 21 140 5
5 9 5 9 1 0 -5 6 -4 13 2 6 5 47 22 89 36 55 18 90 37 120 66 23 21 55 44 70
51 15 6 28 15 28 19 0 4 10 18 21 31 12 13 37 43 56 66 19 24 39 40 44 37 5
-3 6 1 3 9 -3 8 2 20 11 27 11 9 15 9 15 1 0 -7 5 -9 11 -5 8 5 7 9 -1 14 -10
6 -6 19 16 53 25 37 61 113 127 267 6 14 9 29 8 34 -1 5 1 16 5 25 4 9 7 23 8
31 4 44 29 129 37 125 5 -4 9 1 9 10 0 9 -4 14 -8 11 -5 -3 -6 8 -4 25 2 16 8
29 12 29 4 0 13 28 20 63 13 62 77 248 89 257 4 3 7 16 8 30 1 14 5 63 10 110
9 95 -9 206 -49 290 -11 25 -36 78 -55 118 -39 83 -75 112 -137 112 -32 0 -37
3 -31 18 3 9 8 46 11 82 3 59 19 131 39 185 5 16 5 17 -4 5 -9 -13 -11 -13
-11 1 0 8 5 40 10 70 6 30 14 144 19 254 14 277 20 369 36 525 8 74 17 169 19
211 5 79 20 272 37 474 6 66 13 235 15 375 5 266 -1 320 -43 410 -22 47 -82
132 -105 148 -10 7 -18 19 -18 25 0 7 4 6 11 -3 9 -13 10 -13 6 0 -2 8 -11 14
-21 12 -9 -2 -16 3 -16 10 0 7 -8 18 -18 24 -24 15 -76 120 -66 135 4 7 3 9
-3 6 -12 -8 -43 34 -43 58 0 16 -3 20 -55 78 -16 19 -51 58 -77 88 -26 30 -67
77 -92 104 -147 161 73 -50 304 -292z m-1053 314 c-224 -145 -275 -186 -452
-367 -208 -213 -240 -244 -326 -320 -67 -59 -143 -110 -164 -110 -14 0 63 94
100 124 45 35 36 27 181 166 293 282 446 403 629 499 43 23 62 27 32 8z m-502
-53 c-173 -146 -475 -359 -550 -389 l-40 -16 25 21 c14 11 95 67 180 123 85
57 182 123 215 148 33 25 69 51 81 59 12 8 40 30 64 48 51 38 68 42 25 6z
m-226 3 c-22 -16 -261 -167 -264 -167 -3 0 -36 -20 -75 -45 -39 -25 -73 -45
-76 -45 -3 0 -31 -17 -62 -37 -98 -64 -344 -193 -368 -193 -12 0 152 107 206
134 25 12 107 59 184 104 76 45 141 82 145 82 3 0 22 11 41 23 19 13 67 41
105 62 39 21 90 51 115 66 24 15 47 26 49 23 2 -2 2 -5 0 -7z m1090 -88 c-122
-138 -373 -358 -529 -465 -156 -106 -444 -256 -534 -278 -26 -6 -28 -5 -16 8
13 16 88 64 170 109 25 13 99 54 165 92 66 37 134 75 150 84 85 48 334 225
365 260 3 3 48 44 100 91 52 46 115 106 140 132 69 73 60 48 -11 -33z m-896 7
c-16 -29 -301 -244 -370 -280 -83 -42 -40 -6 172 145 88 63 169 122 179 131
24 22 30 23 19 4z m405 -28 c-55 -44 -71 -58 -177 -154 -74 -69 -100 -88 -108
-81 -13 14 191 195 287 255 57 35 56 25 -2 -20z m-2702 -95 c-8 -15 -15 -25
-16 -21 0 12 23 58 27 54 3 -2 -2 -17 -11 -33z m2218 -30 c-97 -129 -255 -297
-308 -325 -17 -9 -17 -7 3 18 13 16 74 82 136 146 62 64 130 137 151 162 45
54 58 53 18 -1z m-2074 33 c0 -2 -8 -10 -17 -17 -16 -13 -17 -12 -4 4 13 16
21 21 21 13z m2730 -18 c-14 -7 -50 -22 -80 -36 -95 -41 -229 -123 -334 -202
-127 -96 -131 -98 -117 -72 23 43 161 148 285 216 39 22 160 72 236 99 28 10
35 6 10 -5z m-35 -67 c-46 -42 -419 -262 -380 -223 12 12 210 134 285 175 30
17 66 38 79 49 31 23 41 23 16 -1z m614 -13 c-37 -70 -190 -232 -286 -304
-138 -103 -312 -198 -441 -240 -132 -43 -112 -20 49 58 153 74 293 154 394
224 68 48 246 216 268 253 21 36 34 42 16 9z m-3635 -93 c7 -38 21 -86 30
-105 l16 -35 -5 38 c-7 46 8 48 26 5 16 -40 75 -134 89 -143 6 -3 1 17 -10 45
-30 75 -25 77 27 13 56 -69 73 -84 133 -117 l45 -25 44 30 c53 35 84 40 56 9
-23 -25 -14 -25 27 0 47 28 54 25 24 -11 -14 -17 -26 -34 -26 -38 0 -4 31 8
69 27 80 40 117 39 44 0 -26 -15 -59 -39 -73 -54 l-25 -27 37 21 c38 24 130
56 188 66 32 6 31 5 -20 -24 -30 -16 -68 -42 -85 -55 l-30 -25 58 25 c89 38
214 75 250 74 l32 0 -38 -14 c-61 -23 -171 -84 -208 -115 l-34 -30 45 24 c39
21 162 66 179 66 3 0 -17 -14 -46 -30 -53 -30 -84 -60 -47 -46 10 4 39 14 64
22 25 8 54 19 65 24 11 5 37 11 58 15 21 3 46 8 55 11 9 3 -28 -18 -83 -46
-55 -28 -107 -58 -115 -66 -8 -8 46 6 120 31 73 25 135 43 137 42 2 -2 -31
-21 -72 -42 -41 -21 -73 -40 -71 -42 1 -2 45 10 97 25 108 33 149 44 149 39 0
-2 -37 -23 -82 -47 -80 -40 -138 -81 -95 -67 48 17 291 87 301 87 6 -1 -38
-20 -98 -45 -59 -24 -111 -47 -115 -51 -3 -4 1 -5 10 -1 16 5 79 21 212 52 34
8 154 28 267 45 113 17 216 33 230 36 16 3 8 -4 -20 -19 -58 -32 -208 -82
-335 -113 l-100 -24 140 4 c88 3 172 12 225 25 47 10 87 18 88 16 10 -9 -147
-72 -248 -101 l-45 -12 35 -1 c55 -1 228 44 310 82 14 6 30 13 35 15 6 3 5 -1
-2 -8 -6 -6 -37 -25 -70 -41 -50 -24 -53 -27 -23 -22 19 3 58 14 85 24 115 43
724 14 1205 -58 l185 -27 45 -55 c24 -30 67 -92 95 -137 60 -98 96 -153 170
-259 30 -44 96 -138 145 -210 101 -147 210 -300 226 -318 18 -21 84 -117 80
-117 -4 0 -209 257 -239 300 -10 14 -30 41 -45 61 -15 20 -71 98 -126 173 -54
75 -101 135 -103 132 -5 -5 60 -137 106 -215 17 -29 60 -90 94 -135 63 -83 73
-96 142 -176 114 -134 278 -357 273 -372 -3 -8 -114 114 -189 208 -13 17 -78
98 -144 180 -66 82 -144 180 -173 218 -29 38 -52 66 -52 63 0 -18 204 -290
389 -521 181 -224 190 -238 82 -126 -87 89 -207 225 -311 350 -65 78 -99 116
-100 109 0 -3 8 -15 18 -27 9 -11 26 -33 37 -48 59 -82 242 -304 337 -409 59
-66 108 -127 108 -135 0 -31 -254 243 -465 500 -124 151 -133 153 -25 7 37
-50 215 -268 242 -297 12 -13 53 -58 89 -100 36 -41 85 -96 110 -122 26 -28
45 -58 45 -73 1 -14 -1 -25 -5 -25 -18 0 -390 402 -486 525 -21 28 -49 60 -62
73 -43 42 -23 8 38 -68 34 -41 95 -117 136 -168 64 -80 125 -149 333 -375 38
-42 54 -73 41 -81 -14 -9 -362 357 -492 516 -34 43 -64 76 -67 74 -5 -6 171
-227 268 -337 36 -41 116 -126 178 -190 96 -98 113 -121 110 -144 -3 -26 -4
-25 -68 37 -98 95 -243 250 -350 372 -123 142 -153 174 -144 156 6 -14 71 -98
84 -110 3 -3 23 -27 45 -55 68 -86 236 -274 358 -401 42 -45 77 -89 77 -98 0
-9 -2 -16 -3 -16 -6 0 -322 322 -363 370 -21 25 -64 73 -96 107 -31 34 -86 99
-122 144 -36 44 -66 78 -66 74 0 -5 15 -26 33 -49 18 -23 40 -52 49 -66 32
-50 346 -407 473 -538 49 -51 90 -98 89 -103 -1 -5 -2 -24 -3 -41 l-2 -33 -47
51 c-100 107 -221 242 -279 309 -78 91 -180 198 -156 164 35 -50 77 -104 118
-149 22 -25 72 -84 110 -130 39 -46 112 -131 163 -188 50 -58 92 -112 92 -121
0 -19 -129 107 -293 288 -67 74 -137 151 -156 170 l-33 36 30 -43 c48 -68 284
-340 366 -422 71 -70 92 -109 68 -124 -8 -5 -283 268 -400 396 -29 31 -52 55
-52 52 0 -16 190 -232 342 -389 90 -92 96 -101 76 -110 -18 -8 -37 8 -160 135
-77 80 -158 166 -181 192 -22 26 -43 46 -45 43 -5 -4 23 -42 71 -95 18 -19 64
-71 102 -115 39 -44 73 -82 76 -85 3 -3 23 -24 44 -48 30 -34 36 -45 26 -55
-10 -9 -49 25 -183 163 -93 96 -168 170 -166 163 3 -10 133 -159 260 -297 44
-47 46 -52 30 -64 -15 -11 -23 -7 -62 35 -25 27 -87 93 -137 147 -93 99 -124
120 -58 40 20 -24 41 -49 48 -56 7 -7 47 -55 91 -106 74 -88 77 -94 60 -107
-18 -14 -26 -7 -111 80 -51 52 -93 91 -93 87 0 -4 38 -50 84 -102 70 -80 82
-97 72 -112 -23 -37 -40 -31 -110 44 -68 72 -55 45 25 -53 33 -40 37 -48 25
-64 -11 -16 -18 -12 -71 44 -32 34 -60 59 -63 57 -2 -3 15 -29 40 -58 67 -80
70 -86 63 -98 -5 -8 -23 3 -51 31 -58 57 -66 45 -12 -16 l44 -48 85 84 c98 97
95 94 175 141 108 63 172 75 222 40 32 -24 105 -162 142 -272 38 -113 19 -231
-78 -470 -31 -77 -62 -181 -82 -270 -51 -229 -113 -366 -234 -516 -121 -151
-254 -257 -363 -289 -21 -6 -23 -3 -23 37 0 72 20 326 35 453 18 146 33 303
40 410 7 99 28 268 56 446 l22 136 -64 64 c-34 35 -56 55 -48 44 8 -11 34 -45
57 -76 36 -47 41 -61 36 -88 -4 -17 -10 -33 -14 -36 -4 -2 -29 22 -55 55 -27
33 -50 60 -52 60 -5 0 2 -12 54 -88 24 -35 43 -69 43 -77 0 -27 -16 -22 -45
16 -16 21 -36 40 -44 44 -15 6 -15 6 42 -65 33 -42 35 -49 27 -84 -4 -21 -10
-40 -13 -42 -2 -3 -28 23 -56 56 -65 78 -66 65 -1 -29 48 -70 64 -121 41 -136
-6 -3 -22 11 -38 31 -15 20 -36 46 -46 57 -32 38 17 -52 51 -96 29 -36 31 -48
16 -96 -3 -9 -24 12 -56 55 -60 82 -56 59 7 -35 37 -57 42 -71 36 -100 -6 -32
-7 -33 -24 -17 -9 10 -17 20 -17 24 0 4 -17 25 -36 47 -20 22 -34 36 -32 30
13 -27 84 -141 92 -146 5 -4 5 -22 0 -44 l-9 -37 -48 66 c-27 36 -51 66 -53
66 -7 0 26 -61 63 -114 31 -45 46 -116 25 -116 -4 0 -25 23 -47 51 -22 29 -51
63 -63 78 l-24 26 23 -40 c12 -22 42 -68 66 -101 43 -61 51 -87 34 -112 -6
-11 -17 -3 -44 30 -79 95 -81 98 -56 53 13 -22 40 -64 62 -93 26 -36 36 -59
32 -72 -6 -19 -25 -28 -25 -12 -1 4 -24 32 -52 62 -58 63 -38 23 30 -58 43
-51 44 -54 36 -99 l-9 -46 -30 44 c-16 24 -48 67 -70 96 -22 29 -48 62 -58 75
-39 52 8 -38 81 -151 48 -76 72 -124 72 -144 0 -31 -17 -11 -160 192 -19 27
-36 48 -38 46 -3 -3 61 -111 166 -281 30 -49 42 -94 24 -94 -5 0 -26 26 -48
58 -84 123 -177 249 -162 217 3 -5 50 -85 106 -176 94 -153 118 -208 94 -223
-5 -3 -33 32 -63 77 -30 45 -62 91 -72 102 -10 11 -32 41 -49 68 -17 26 -33
46 -35 43 -4 -4 57 -103 149 -244 52 -79 67 -115 61 -146 -5 -24 -12 -17 -77
81 -89 134 -118 174 -124 168 -2 -2 23 -47 57 -100 33 -52 61 -98 61 -100 0
-3 16 -29 35 -58 26 -39 35 -62 35 -94 0 -24 -3 -43 -8 -43 -4 0 -19 19 -34
43 -14 23 -54 80 -87 127 -34 47 -68 99 -76 115 -16 33 -54 84 -55 72 0 -4 46
-82 102 -175 156 -258 149 -244 140 -288 l-8 -38 -45 65 c-24 35 -83 121 -129
191 -47 70 -86 123 -88 118 -3 -8 154 -271 221 -369 16 -24 30 -51 30 -60 0
-81 -15 -88 -48 -23 -11 20 -78 125 -150 234 -71 108 -135 205 -142 215 -6 10
-12 13 -12 7 -1 -6 54 -102 121 -215 66 -112 132 -224 146 -249 13 -25 33 -59
44 -77 16 -27 17 -38 8 -73 -13 -47 -22 -45 -51 13 -30 59 -198 357 -220 389
-11 15 -19 31 -19 35 -1 10 -80 140 -80 131 0 -7 83 -170 257 -508 84 -164 85
-166 71 -200 l-14 -34 -82 149 c-146 266 -263 467 -269 462 -2 -2 14 -37 35
-78 21 -41 78 -150 127 -244 48 -93 106 -203 127 -244 24 -45 36 -81 33 -92
-10 -30 -19 -23 -52 39 -80 150 -241 441 -256 463 -37 52 -11 -5 128 -277 120
-236 143 -288 135 -305 -6 -10 -14 -19 -18 -19 -4 0 -31 44 -61 98 -29 53 -68
122 -86 152 -17 30 -50 87 -72 125 -22 39 -66 115 -96 170 -113 201 -98 160
42 -115 57 -113 120 -234 140 -270 21 -36 52 -94 71 -129 l33 -64 -18 -34
c-19 -34 -35 -43 -35 -20 0 11 -90 193 -247 500 -14 27 -27 46 -30 44 -2 -3 0
-13 5 -24 6 -10 41 -85 80 -168 38 -82 95 -205 127 -272 l57 -121 -18 -26
c-11 -14 -21 -26 -24 -26 -3 0 -11 15 -19 32 -29 67 -242 493 -251 502 -5 5
18 -51 51 -125 34 -74 76 -168 94 -209 18 -41 49 -109 68 -151 33 -70 34 -79
21 -98 -9 -12 -20 -19 -25 -15 -10 6 -189 370 -216 439 -25 62 -36 66 -14 5
18 -53 100 -242 174 -402 l36 -78 -23 -27 -24 -28 -37 80 c-132 287 -189 406
-196 410 -4 3 10 -36 32 -87 21 -50 39 -95 39 -99 0 -4 14 -38 31 -76 59 -130
67 -148 88 -197 12 -27 21 -51 21 -55 -1 -3 -14 -21 -30 -40 l-30 -35 -49 105
c-88 188 -127 273 -156 337 -15 34 -30 61 -32 58 -2 -2 4 -24 15 -48 11 -23
48 -112 82 -197 34 -85 75 -182 92 -214 29 -59 29 -60 10 -79 -21 -22 -4 -54
-169 322 -34 80 -63 139 -63 133 0 -18 29 -93 139 -363 28 -69 51 -130 51
-136 0 -18 -40 -49 -49 -38 -5 5 -25 45 -44 89 -171 390 -234 499 -92 160 37
-88 78 -189 92 -223 l26 -64 -31 -31 -31 -30 -25 54 c-29 64 -57 134 -134 332
-31 81 -60 147 -64 147 -7 0 99 -315 142 -420 33 -83 49 -140 43 -156 -11 -29
-29 -12 -55 49 -38 91 -141 359 -174 454 -16 45 -30 80 -32 78 -6 -5 52 -184
135 -419 l74 -208 -22 -24 c-12 -13 -26 -24 -30 -24 -4 0 -14 21 -22 47 -20
66 -102 302 -137 393 -15 41 -33 95 -40 118 -6 24 -14 42 -16 39 -6 -5 24
-117 65 -250 121 -389 120 -385 100 -397 -14 -10 -46 70 -159 410 -33 96 -59
170 -60 163 -1 -27 84 -325 152 -535 24 -74 25 -78 8 -93 -23 -21 -23 -20 -71
123 -68 207 -148 437 -149 428 0 -8 68 -245 135 -471 l36 -120 -22 -18 c-28
-22 -28 -21 -59 93 -36 137 -143 490 -147 486 -4 -4 14 -80 70 -291 19 -71 45
-176 57 -232 21 -95 22 -103 6 -118 -9 -10 -18 -16 -19 -14 -2 2 -25 85 -51
184 -27 99 -61 221 -76 270 -16 50 -34 109 -41 133 -7 23 -14 40 -16 38 -4 -4
3 -36 46 -201 17 -66 42 -167 56 -225 14 -58 31 -131 39 -163 13 -50 12 -59
-1 -72 -19 -20 -30 -12 -39 28 -3 17 -24 88 -46 157 -21 69 -57 184 -79 255
-22 72 -44 139 -49 150 -20 45 -8 -16 29 -149 22 -78 42 -157 46 -176 4 -19
22 -87 40 -150 46 -161 47 -167 30 -174 -19 -7 -17 -11 -59 129 -35 118 -113
352 -156 470 -12 33 -24 66 -26 74 -2 8 -7 12 -10 9 -2 -3 2 -25 10 -49 8 -24
30 -96 49 -159 147 -490 151 -503 132 -507 -5 -1 -35 71 -66 160 -83 237 -199
517 -214 517 -3 0 2 -17 11 -37 68 -157 237 -645 232 -670 -7 -35 -25 -21 -42
34 -44 140 -286 684 -286 642 0 -6 22 -62 95 -239 83 -204 175 -453 175 -475
0 -36 -27 -9 -48 47 -63 168 -153 376 -225 518 -67 134 -67 133 13 -70 34 -85
93 -242 132 -349 l71 -194 -24 -18 c-13 -10 -27 -15 -30 -11 -3 4 -20 48 -38
97 -51 142 -205 508 -209 497 -2 -8 39 -129 83 -242 71 -183 125 -343 125
-374 0 -35 -16 -5 -74 144 -32 80 -68 170 -80 200 -13 30 -43 104 -67 164 -24
59 -45 103 -47 98 -2 -6 2 -20 8 -32 6 -11 30 -77 54 -148 46 -135 99 -283
140 -394 l25 -67 -29 -15 c-35 -17 -35 -16 -59 71 -26 98 -119 402 -135 443
-8 19 -31 88 -51 153 -42 137 -59 153 -21 20 33 -115 99 -351 136 -489 16 -60
37 -137 47 -172 15 -55 16 -64 3 -72 -29 -18 -38 -9 -49 51 -17 86 -83 317
-138 486 -48 148 -71 190 -33 61 41 -137 149 -573 150 -599 0 -29 -26 -58 -39
-43 -5 5 -13 34 -20 64 -55 268 -164 680 -177 668 -2 -2 3 -25 11 -52 8 -26
21 -77 29 -114 8 -37 35 -162 60 -279 25 -117 49 -236 52 -265 6 -52 5 -53
-23 -64 l-30 -11 -12 71 c-6 39 -18 109 -26 156 -31 190 -92 446 -94 397 -1
-9 17 -115 38 -235 41 -230 67 -400 60 -406 -2 -2 -13 -6 -25 -10 -19 -6 -22
4 -63 231 -48 276 -89 470 -90 431 -1 -15 3 -49 8 -75 6 -26 21 -122 36 -213
28 -181 40 -258 53 -338 9 -51 8 -54 -15 -63 -13 -5 -26 -9 -28 -9 -3 0 -12
53 -41 225 -26 163 -80 424 -89 433 -8 9 -5 -20 9 -83 8 -33 26 -136 41 -230
14 -93 33 -210 41 -259 8 -50 11 -93 7 -96 -15 -13 -74 -33 -79 -27 -3 3 -10
43 -15 89 -28 242 -61 483 -74 539 -17 74 -18 88 16 -229 11 -108 21 -246 22
-307 l2 -110 -27 -3 c-31 -4 -29 -10 -47 218 -26 331 -34 420 -39 416 -2 -3 3
-150 13 -326 10 -176 16 -322 14 -324 -2 -2 -18 -6 -35 -9 l-32 -6 -6 102
c-18 296 -40 587 -44 583 -2 -3 1 -143 7 -313 15 -420 17 -383 -18 -383 -20 0
-31 6 -35 18 -2 9 -10 132 -16 272 -7 140 -16 271 -20 290 l-8 35 -1 -41 c-1
-39 18 -516 22 -559 1 -14 -5 -21 -19 -23 -30 -4 -32 18 -40 406 -4 183 -9
330 -12 328 -2 -3 -7 -170 -11 -373 l-6 -368 -34 -3 -34 -4 5 324 c6 333 -2
336 -21 8 -18 -307 -21 -331 -40 -328 -14 3 -16 17 -13 98 4 135 20 369 33
478 6 52 8 96 6 98 -12 12 -53 -294 -70 -518 l-12 -153 -30 0 -30 0 2 80 c3
86 40 508 50 565 3 19 3 32 -1 29 -10 -10 -54 -313 -71 -493 -9 -94 -17 -172
-19 -174 -2 -2 -20 0 -40 3 -31 6 -36 11 -36 34 0 38 28 317 45 446 8 61 14
119 14 130 -2 41 -29 -96 -54 -275 -14 -102 -30 -216 -36 -254 l-11 -68 -35 5
c-20 4 -37 7 -38 9 -8 8 70 515 91 595 8 31 13 57 11 60 -12 12 -104 -390
-132 -580 -7 -44 -26 -69 -42 -54 -9 9 26 322 53 466 14 73 23 135 21 138 -17
17 -107 -466 -107 -574 0 -11 -7 -10 -30 2 -16 9 -30 22 -30 29 0 24 40 249
71 399 17 82 29 150 26 153 -6 6 -57 -180 -103 -376 -19 -85 -37 -156 -38
-157 -1 -1 -17 7 -35 18 -31 19 -32 22 -26 62 9 61 71 313 95 387 11 34 20 68
19 74 -1 26 -60 -146 -104 -301 -26 -93 -49 -170 -51 -172 -1 -1 -21 12 -44
30 -34 28 -40 37 -35 59 13 54 105 330 143 427 22 57 38 103 36 103 -12 0
-176 -382 -205 -477 -7 -24 -16 -43 -20 -43 -4 0 -22 12 -39 26 -25 22 -30 32
-25 53 9 36 73 185 144 335 33 69 58 126 56 126 -14 0 -235 -424 -235 -451 0
-7 -11 -2 -25 11 -18 17 -23 30 -19 44 11 35 191 402 219 445 14 23 23 41 20
41 -16 0 -163 -253 -249 -427 -24 -49 -32 -52 -48 -19 -9 22 1 49 97 238 59
117 116 228 127 246 11 18 18 35 15 38 -6 6 -47 -59 -150 -241 -126 -222 -128
-225 -134 -225 -10 0 -32 35 -33 50 0 9 28 65 61 125 89 159 109 192 167 280
l32 50 -45 -49 c-24 -27 -55 -65 -68 -85 -44 -66 -118 -185 -149 -240 -26 -47
-31 -52 -45 -39 -13 14 -9 25 38 99 28 46 84 131 124 189 39 58 75 112 79 120
12 24 -59 -58 -121 -140 -31 -41 -76 -100 -100 -132 -24 -31 -43 -61 -43 -67
0 -23 -28 -10 -40 18 -11 28 -9 34 61 128 40 54 86 114 103 134 17 20 46 56
65 80 l34 44 -52 -50 c-29 -27 -78 -81 -109 -119 -79 -96 -133 -156 -142 -156
-4 0 -15 15 -25 33 l-18 33 34 45 c41 52 62 78 151 178 37 42 68 81 68 86 0
13 -180 -168 -221 -222 -18 -23 -39 -45 -47 -48 -16 -6 -32 10 -32 32 0 7 64
78 143 160 162 168 110 139 -87 -49 -80 -77 -81 -77 -98 -57 -10 12 -18 27
-18 34 0 7 51 66 113 130 185 194 161 189 -41 -9 -69 -68 -85 -79 -100 -70
-39 25 -26 45 135 202 87 85 149 150 138 144 -23 -12 -169 -136 -259 -221
l-58 -55 -19 25 c-10 13 -19 27 -19 30 0 7 196 198 275 268 33 29 53 49 45 45
-32 -17 -159 -119 -243 -196 -49 -45 -92 -77 -97 -72 -4 5 -10 18 -14 29 -5
17 11 35 85 95 51 41 110 91 133 110 23 20 60 48 84 64 23 16 42 30 42 32 0
15 -169 -93 -300 -190 l-74 -56 -13 25 c-13 23 -11 27 22 56 20 17 48 41 63
52 29 22 157 131 182 155 28 27 -75 -41 -183 -121 -82 -60 -111 -77 -120 -68
-13 13 48 74 196 193 48 39 87 72 87 74 0 13 -61 -29 -209 -145 -88 -69 -95
-73 -108 -56 -7 11 -13 26 -13 34 1 14 200 179 273 226 15 10 26 20 23 22 -5
6 -155 -88 -211 -132 -22 -17 -55 -41 -72 -54 l-33 -22 -12 26 c-13 29 -23 19
117 115 44 31 106 71 138 89 31 18 57 34 57 37 0 10 -197 -93 -292 -153 -44
-27 -48 -28 -48 -10 0 16 71 78 189 164 90 66 99 81 22 36 -51 -30 -196 -138
-206 -153 -10 -17 -21 -11 -34 17 -13 27 -11 30 85 122 55 51 92 90 84 85 -26
-14 -155 -117 -163 -131 -9 -15 -37 -18 -37 -4 0 5 -3 17 -6 25 -4 12 27 49
106 126 111 109 134 143 49 73 -24 -20 -72 -63 -106 -96 l-62 -61 -11 28 c-5
15 -10 31 -10 36 0 5 49 58 108 119 60 61 107 111 104 111 -8 0 -91 -70 -158
-132 -34 -32 -64 -58 -68 -58 -20 0 2 42 57 109 34 42 76 94 91 116 27 38 26
38 -20 -10 -27 -27 -70 -74 -96 -103 -44 -50 -47 -52 -58 -32 -6 11 -8 26 -3
33 11 18 91 117 127 157 74 82 40 57 -47 -34 l-95 -99 -7 31 c-6 28 0 39 51
99 32 37 70 81 85 98 16 16 26 31 23 34 -2 2 -42 -36 -88 -85 -59 -61 -86 -84
-89 -74 -15 44 -14 62 2 78 72 73 190 212 164 193 -18 -12 -65 -58 -105 -102
-40 -43 -76 -79 -79 -79 -4 0 -10 16 -13 36 -7 33 -3 40 55 107 l63 72 -66
-64 -66 -63 -7 41 c-6 39 -4 44 47 103 29 35 61 69 70 76 10 7 23 23 29 35 6
12 -22 -9 -62 -48 -40 -38 -75 -73 -77 -77 -9 -20 -22 -5 -22 25 1 38 9 50 98
141 52 54 58 63 25 37 -23 -18 -62 -52 -87 -75 l-44 -44 -7 35 c-3 19 -2 40 4
46 5 7 41 46 80 87 38 41 68 76 66 79 -2 2 -37 -26 -77 -62 -40 -36 -76 -63
-80 -61 -4 3 -8 19 -8 36 0 23 15 45 67 101 65 68 66 69 17 29 -28 -23 -57
-48 -64 -57 -17 -20 -30 -3 -30 38 0 20 15 42 58 84 59 59 57 59 -15 4 l-43
-33 0 51 c0 39 4 53 19 60 10 6 26 23 36 38 l18 28 -24 -20 c-13 -11 -29 -26
-37 -33 -7 -6 -16 -12 -19 -12 -9 0 5 603 16 715 6 55 17 183 26 285 23 287
33 380 65 578 17 101 35 258 40 350 24 392 30 474 49 602 11 74 25 194 31 265
25 294 60 443 146 622 48 98 69 134 172 293 121 187 317 406 497 557 50 42 98
85 107 97 l17 21 10 -26 c10 -26 60 -73 69 -65 2 3 -1 19 -7 37 -10 30 -10 41
5 107 8 32 9 29 28 -63z m3380 47 c-10 -10 -62 -48 -114 -85 -52 -37 -100 -72
-107 -77 -7 -6 -15 -10 -17 -10 -3 0 -32 -17 -63 -37 -119 -77 -271 -156 -352
-184 -104 -36 -84 -23 186 125 215 117 292 162 433 256 52 34 62 38 34 12z
m-558 -121 c-19 -31 -359 -217 -467 -256 -110 -39 -106 -23 6 29 115 53 349
172 415 210 50 29 54 30 46 17z m514 5 c0 -2 -25 -20 -55 -40 -30 -20 -55 -34
-55 -30 0 3 -12 -3 -28 -14 -42 -31 -165 -88 -203 -95 -19 -4 42 31 135 77 93
47 173 89 179 95 11 11 27 15 27 7z m570 -26 c-25 -16 -48 -30 -52 -30 -4 0
-31 -14 -60 -31 -143 -84 -542 -298 -558 -299 -8 0 109 77 200 132 90 55 488
258 505 258 6 0 -10 -14 -35 -30z m-4262 -9 c9 -5 -18 -14 -74 -25 -76 -15
-117 -28 -229 -71 l-20 -7 20 14 c26 19 121 55 210 78 83 22 77 22 93 11z
m-33 -61 c-3 -5 -17 -10 -30 -10 -22 0 -211 -60 -234 -75 -6 -3 -11 -2 -11 3
0 7 124 60 200 85 28 10 81 7 75 -3z m3940 -18 c-30 -28 -174 -116 -229 -141
-91 -40 -71 -21 49 45 66 37 136 78 155 90 42 29 52 31 25 6z m-3965 -61 c0
-4 -30 -16 -67 -26 -38 -10 -110 -40 -162 -67 -110 -57 -127 -61 -51 -13 123
78 280 138 280 106z m-298 -31 c-42 -26 -56 -26 -17 0 17 11 35 20 40 20 6 0
-5 -9 -23 -20z m4578 9 c-178 -49 -418 -143 -604 -235 -129 -64 -153 -73 -141
-54 19 31 190 118 364 185 110 42 355 114 391 113 20 0 18 -2 -10 -9z m30 -93
c-131 -30 -296 -79 -424 -126 -76 -28 -141 -49 -143 -46 -3 3 37 25 88 50 91
43 261 93 412 121 91 16 140 17 67 1z m-4690 -69 c0 -2 -10 -12 -22 -23 l-23
-19 19 23 c18 21 26 27 26 19z m4390 -66 c-74 -26 -153 -55 -174 -64 -22 -10
-41 -15 -44 -12 -7 6 -7 6 54 34 54 24 259 89 284 90 8 0 -46 -22 -120 -48z
m315 -13 c-22 -5 -85 -22 -140 -38 -172 -50 -297 -81 -302 -77 -10 11 251 92
359 111 86 16 143 19 83 4z m-96 -139 c28 -6 54 -16 58 -22 4 -7 0 -8 -13 -3
-35 14 -191 19 -236 8 -23 -6 -72 -14 -108 -17 -53 -5 -61 -4 -46 6 57 36 240
51 345 28z m-94 -44 c91 -15 292 -121 350 -185 13 -14 0 -8 -35 15 -109 74
-241 131 -353 155 -31 6 -55 16 -52 21 4 5 16 7 28 5 12 -3 40 -8 62 -11z
m-131 -71 c76 -19 214 -87 258 -126 22 -21 25 -25 8 -14 -68 42 -156 82 -260
117 -116 38 -120 52 -6 23z m-44 -156 c22 -35 47 -76 56 -93 19 -34 269 -409
370 -555 82 -118 42 -74 -77 85 -49 66 -93 125 -98 131 -9 12 -106 155 -164
244 -72 111 -167 275 -167 289 0 17 28 -18 80 -101z m92 -78 c129 -206 242
-367 356 -508 19 -23 33 -44 31 -47 -6 -6 -166 187 -227 274 -163 232 -272
406 -272 432 1 20 29 -19 112 -151z m110 -48 c29 -46 110 -169 180 -275 69
-106 125 -194 122 -196 -12 -12 -156 188 -244 339 -76 130 -122 203 -167 265
l-45 60 51 -55 c27 -30 74 -92 103 -138z m-98 -115 c58 -101 244 -384 332
-504 25 -35 43 -63 40 -63 -12 0 -221 281 -308 415 -63 97 -158 272 -158 290
1 17 33 -31 94 -138z"/>
<path d="M7912 8120 c0 -14 2 -19 5 -12 2 6 2 18 0 25 -3 6 -5 1 -5 -13z"/>
<path d="M7985 5358 c4 -13 11 -27 16 -33 5 -5 4 5 -2 23 -12 36 -24 44 -14
10z"/>
<path d="M7825 4260 c-3 -5 -1 -10 4 -10 6 0 11 5 11 10 0 6 -2 10 -4 10 -3 0
-8 -4 -11 -10z"/>
<path d="M7276 3651 c-4 -5 3 -7 14 -4 23 6 26 13 6 13 -8 0 -17 -4 -20 -9z"/>
<path d="M6483 2125 c0 -7 6 -11 14 -8 7 3 13 6 13 8 0 2 -6 5 -13 8 -8 3 -14
-1 -14 -8z"/>
<path d="M5660 1400 c0 -5 5 -10 10 -10 6 0 10 5 10 10 0 6 -4 10 -10 10 -5 0
-10 -4 -10 -10z"/>
<path d="M5564 1352 c3 -5 0 -13 -6 -15 -9 -4 -10 -6 -1 -6 17 -1 25 16 12 25
-7 4 -9 3 -5 -4z"/>
<path d="M4208 943 c6 -2 18 -2 25 0 6 3 1 5 -13 5 -14 0 -19 -2 -12 -5z"/>
<path d="M7191 7003 c7 -12 15 -20 18 -17 3 2 -3 12 -13 22 -17 16 -18 16 -5
-5z"/>
<path d="M5280 6790 c-37 -6 -32 -7 28 -4 114 6 362 -14 487 -40 63 -12 115
-20 115 -16 0 7 -106 34 -195 50 -77 14 -377 21 -435 10z"/>
<path d="M7121 6764 c13 -17 26 -30 28 -27 3 2 -8 16 -24 31 l-28 27 24 -31z"/>
<path d="M5153 6773 c9 -2 25 -2 35 0 9 3 1 5 -18 5 -19 0 -27 -2 -17 -5z"/>
<path d="M5098 6763 c6 -2 18 -2 25 0 6 3 1 5 -13 5 -14 0 -19 -2 -12 -5z"/>
<path d="M5048 6753 c7 -3 16 -2 19 1 4 3 -2 6 -13 5 -11 0 -14 -3 -6 -6z"/>
<path d="M7117 6655 c10 -13 22 -25 27 -25 5 0 -1 11 -14 25 -30 32 -36 32
-13 0z"/>
<path d="M3105 6546 c-78 -25 -198 -97 -184 -110 2 -2 60 25 129 60 121 62
136 76 55 50z"/>
<path d="M3104 6501 c-82 -29 -156 -70 -194 -105 -19 -18 -67 -54 -106 -79
-39 -26 -89 -63 -110 -82 -36 -33 -33 -31 41 13 150 91 200 109 78 28 -38 -25
-81 -57 -98 -71 -28 -24 -25 -24 30 6 87 47 84 46 158 78 37 16 67 28 67 26 0
-2 -38 -29 -85 -59 -47 -31 -85 -58 -85 -61 0 -3 21 5 48 19 100 50 294 126
323 126 19 0 208 -75 289 -114 l55 -27 -30 26 c-16 13 -27 25 -24 25 3 0 45
-18 92 -40 101 -48 122 -51 50 -9 -62 36 -69 46 -15 23 64 -28 156 -54 191
-54 l34 0 -6 58 c-3 31 -17 87 -32 124 l-26 66 -102 36 c-135 46 -188 56 -312
56 -83 0 -117 -5 -176 -25 -40 -13 -75 -23 -77 -20 -2 2 20 15 50 29 62 29 46
33 -28 7z"/>
<path d="M3800 6380 c9 -30 23 -99 30 -152 8 -59 16 -95 22 -92 20 12 -27 240
-57 281 -9 12 -7 -1 5 -37z"/>
<path d="M3856 6375 c4 -11 16 -60 27 -110 25 -114 29 -126 34 -104 5 23 -33
172 -52 206 -9 16 -13 19 -9 8z"/>
<path d="M7190 6366 c0 -2 8 -10 18 -17 15 -13 16 -12 3 4 -13 16 -21 21 -21
13z"/>
<path d="M5630 6247 c0 -3 30 -22 66 -42 36 -20 64 -39 61 -41 -2 -2 -40 12
-84 31 -83 36 -127 46 -83 19 17 -11 19 -13 5 -9 -53 17 -134 24 -185 15 -87
-14 -183 -37 -210 -49 -73 -31 -150 -110 -150 -153 0 -26 16 -14 40 30 16 30
19 32 14 11 -3 -16 -1 -30 6 -34 7 -4 143 -8 304 -9 317 -2 366 -8 561 -67 93
-29 254 -95 265 -110 3 -3 21 -14 40 -24 67 -35 191 -128 227 -171 41 -49 52
-51 29 -5 -19 35 -21 55 -5 45 8 -4 9 1 5 17 -4 14 3 6 16 -16 20 -35 23 -37
26 -18 5 34 -65 164 -121 224 -27 30 -42 43 -33 29 47 -73 106 -176 106 -184
0 -6 -25 26 -55 70 -53 77 -155 195 -155 179 0 -4 15 -26 33 -49 72 -88 67
-94 -14 -14 -102 103 -207 196 -234 210 -11 6 14 -22 55 -61 85 -80 83 -97 -3
-22 -54 48 -181 135 -262 180 l-40 23 45 -41 c25 -23 57 -48 73 -57 15 -8 27
-16 27 -19 0 -2 -57 23 -126 56 -70 33 -129 58 -131 55 -3 -2 23 -23 56 -45
34 -23 61 -44 61 -46 0 -7 -41 10 -117 48 -70 36 -113 52 -113 44z m-380 -71
c0 -2 -7 -7 -16 -10 -8 -3 -12 -2 -9 4 6 10 25 14 25 6z m1000 -196 c0 -5 -2
-10 -4 -10 -3 0 -8 5 -11 10 -3 6 -1 10 4 10 6 0 11 -4 11 -10z"/>
<path d="M7210 6246 c0 -2 8 -10 18 -17 15 -13 16 -12 3 4 -13 16 -21 21 -21
13z"/>
<path d="M5055 6123 c-41 -38 -75 -81 -75 -97 0 -8 83 81 108 116 19 26 12 22
-33 -19z"/>
<path d="M3310 6004 c-151 -23 -213 -48 -271 -111 -60 -65 -66 -80 -13 -31 89
81 200 118 354 118 54 0 122 -7 155 -15 110 -29 290 -130 355 -200 14 -15 33
-31 43 -37 16 -8 17 -7 8 9 -35 60 -223 188 -342 232 -81 30 -214 46 -289 35z"/>
<path d="M3235 5872 c-80 -27 -137 -66 -198 -133 -32 -34 -55 -64 -53 -66 3
-3 22 9 43 25 53 42 187 108 256 125 31 8 57 13 57 11 0 -3 -9 -18 -21 -33
-43 -58 -31 -179 21 -226 19 -18 19 -17 1 21 -22 44 -21 48 20 69 29 16 30 15
64 -21 33 -34 38 -36 82 -31 43 5 63 18 77 51 3 6 16 -1 30 -17 22 -24 24 -32
15 -50 l-11 -22 23 22 c19 19 24 36 27 93 2 38 6 70 9 70 10 0 151 -85 246
-148 43 -29 59 -24 25 8 -30 28 -225 149 -303 188 -162 80 -301 102 -410 64z
m220 -49 c18 -40 -3 -83 -39 -83 -41 0 -58 38 -36 81 14 25 65 26 75 2z"/>
<path d="M4040 5808 c19 -20 51 -62 70 -94 30 -49 35 -67 35 -119 0 -50 -7
-73 -40 -140 -22 -44 -51 -93 -65 -110 -14 -16 -31 -41 -39 -55 -8 -14 -21
-35 -29 -48 -28 -43 11 -13 56 43 114 142 168 257 157 331 -9 63 -77 156 -150
206 -28 20 -28 19 5 -14z"/>
<path d="M5405 5779 c-33 -5 -90 -18 -127 -29 -36 -11 -72 -20 -80 -20 -24 0
-132 -57 -188 -98 -71 -54 -87 -84 -20 -38 192 132 465 193 675 152 178 -35
277 -87 403 -214 52 -51 96 -92 98 -90 7 8 -94 123 -142 163 -180 149 -388
207 -619 174z"/>
<path d="M4786 5705 c-54 -55 -101 -135 -112 -192 -6 -33 10 -128 31 -178 7
-16 21 -49 31 -73 25 -62 35 -61 14 1 -23 65 -40 156 -40 217 0 58 51 165 110
229 22 25 40 46 40 48 0 14 -28 -6 -74 -52z"/>
<path d="M5397 5660 c-112 -30 -326 -115 -316 -124 2 -2 69 18 149 45 80 27
166 51 192 54 l47 6 -19 -43 c-11 -24 -20 -58 -20 -76 0 -37 22 -96 40 -107 7
-4 5 5 -4 24 -16 30 -16 30 21 56 42 28 63 32 63 12 0 -19 41 -53 73 -61 30
-7 59 4 95 37 l22 21 30 -29 c17 -16 30 -32 30 -36 0 -4 -12 -21 -26 -38 -26
-31 -26 -31 -127 -31 -70 0 -111 5 -130 15 -15 8 -25 10 -21 4 13 -22 -155 34
-271 90 -59 29 -72 33 -51 16 17 -13 72 -44 123 -69 188 -91 411 -109 591 -46
32 11 70 30 85 41 l29 21 51 -34 c152 -102 258 -154 327 -163 44 -5 43 -4 -20
18 -36 13 -76 29 -90 36 -65 35 -226 147 -282 196 -160 140 -244 177 -413 181
-84 3 -126 -1 -178 -16z m181 -32 c26 -26 8 -88 -24 -88 -19 0 -44 29 -44 50
0 21 25 50 44 50 6 0 17 -5 24 -12z m309 -100 c18 -13 33 -26 33 -30 0 -5 6
-8 13 -8 8 0 22 -9 33 -21 16 -17 16 -22 4 -30 -25 -15 -114 -47 -154 -55
l-38 -7 25 40 c14 22 28 61 32 86 4 26 10 47 13 47 3 0 21 -10 39 -22z"/>
<path d="M3110 5631 c14 -12 59 -38 100 -59 l74 -37 221 1 c194 1 441 17 454
29 14 14 -22 14 -164 -1 -104 -10 -218 -15 -334 -12 l-176 3 -90 45 c-111 55
-116 56 -85 31z"/>
<path d="M5012 5488 c3 -7 18 -14 34 -16 28 -2 28 -2 10 13 -24 18 -49 20 -44
3z"/>
<path d="M7220 5380 c0 -5 5 -10 11 -10 5 0 7 5 4 10 -3 6 -8 10 -11 10 -2 0
-4 -4 -4 -10z"/>
<path d="M7687 5299 c-33 -34 -97 -89 -142 -124 -105 -82 -118 -98 -159 -181
-46 -95 -74 -191 -81 -272 -4 -58 -3 -62 5 -28 13 50 62 136 77 136 24 0 53
-76 54 -142 0 -51 2 -58 10 -39 28 71 18 202 -18 243 -14 16 -13 24 17 93 28
64 46 88 117 155 101 96 151 135 160 126 8 -7 8 -76 1 -401 -4 -182 -8 -234
-26 -300 -30 -112 -74 -204 -117 -245 -20 -19 -58 -62 -83 -95 l-46 -60 44 40
c25 23 66 55 91 73 63 43 93 81 119 149 39 104 52 204 46 356 -5 107 -2 161
11 245 10 59 18 144 18 190 0 50 4 81 10 79 6 -2 23 -26 38 -53 26 -45 27 -56
24 -134 -3 -62 -12 -109 -34 -172 -17 -49 -29 -88 -27 -88 10 0 66 126 79 177
18 68 19 167 4 214 -7 19 -27 53 -46 77 -48 59 -70 57 -146 -19z"/>
<path d="M2895 5320 c-21 -5 -3 -8 60 -9 50 -1 135 -8 190 -16 172 -25 364
-19 499 16 69 18 30 20 -60 3 -71 -13 -118 -15 -229 -10 -77 4 -162 11 -190
16 -60 11 -228 11 -270 0z"/>
<path d="M5360 5195 c0 -5 46 -26 125 -57 65 -25 250 -36 344 -19 101 18 111
33 16 24 -169 -17 -288 -5 -437 41 -27 8 -48 13 -48 11z"/>
<path d="M3676 4595 c-100 -131 -106 -252 -17 -348 32 -35 64 -52 113 -61 52
-9 56 9 5 23 -45 14 -100 59 -123 103 -28 55 -15 164 32 262 13 27 22 51 20
53 -2 2 -15 -12 -30 -32z"/>
<path d="M5013 4384 c1 -66 -3 -88 -26 -134 -35 -73 -75 -103 -148 -108 -54
-4 -58 -3 -88 31 -41 45 -100 62 -190 54 -65 -5 -84 -12 -209 -77 -65 -34
-138 -17 -259 60 -51 33 -113 66 -138 75 -62 20 -124 20 -132 -2 -11 -29 30
-50 113 -58 61 -5 95 -16 168 -51 123 -60 203 -69 271 -30 51 28 95 32 160 15
66 -17 246 -42 310 -42 77 -1 119 22 160 88 27 44 30 56 30 134 0 47 -5 95
-11 105 -9 15 -11 3 -11 -60z"/>
<path d="M7335 4435 c-30 -15 -85 -87 -85 -111 0 -6 17 6 39 27 24 25 48 39
64 39 52 0 87 12 87 30 0 32 -54 40 -105 15z"/>
<path d="M3265 4217 c-96 -54 -214 -170 -278 -275 -5 -7 36 31 90 85 93 93
121 116 221 177 23 14 42 31 42 36 0 16 -11 12 -75 -23z"/>
<path d="M5240 4225 c0 -5 5 -17 10 -25 5 -8 10 -10 10 -5 0 6 -5 17 -10 25
-5 8 -10 11 -10 5z"/>
<path d="M5312 4075 c56 -122 76 -150 161 -227 137 -125 206 -196 229 -240 21
-39 23 -54 21 -167 -1 -68 2 -120 7 -115 10 11 30 139 30 197 0 106 -73 208
-239 330 -114 84 -129 101 -180 197 -60 113 -76 127 -29 25z"/>
<path d="M3805 3998 c-66 -84 -127 -190 -139 -243 l-8 -30 20 25 c11 14 35 57
55 95 19 39 60 107 90 153 30 45 53 82 51 82 -2 0 -33 -37 -69 -82z"/>
<path d="M3963 4013 c-68 -88 -131 -202 -147 -265 -14 -60 14 -23 70 90 32 64
71 138 86 165 33 57 30 60 -9 10z"/>
<path d="M4025 4011 c-3 -12 -11 -21 -16 -21 -5 0 -9 -5 -9 -11 0 -6 -8 -23
-19 -37 -29 -42 -93 -163 -89 -168 3 -2 14 9 26 25 32 43 125 221 119 227 -3
3 -8 -4 -12 -15z"/>
<path d="M3711 3938 c-62 -95 -114 -194 -109 -210 2 -5 10 3 18 18 14 26 78
138 100 174 75 122 68 135 -9 18z"/>
<path d="M3672 3987 c-12 -13 -22 -28 -22 -34 0 -6 -4 -13 -8 -15 -14 -6 -101
-144 -122 -194 -20 -49 -20 -49 0 -24 11 14 40 59 65 100 25 41 51 84 58 95
37 60 57 95 54 95 -2 0 -13 -10 -25 -23z"/>
<path d="M3868 3993 c-45 -52 -148 -248 -148 -281 0 -12 27 33 75 123 26 50
59 109 72 133 26 44 26 54 1 25z"/>
<path d="M4058 3952 c-40 -63 -81 -152 -73 -160 2 -3 19 26 37 64 17 38 42 86
56 107 13 22 22 40 20 42 -2 2 -20 -22 -40 -53z"/>
<path d="M4101 3929 c-55 -118 -82 -203 -56 -177 12 11 106 251 101 256 -3 3
-23 -33 -45 -79z"/>
<path d="M3428 3953 c-47 -51 -143 -218 -163 -283 l-7 -25 19 25 c11 14 41 66
68 115 26 50 63 114 81 143 19 28 32 52 31 52 -2 0 -15 -12 -29 -27z"/>
<path d="M3189 3893 c-55 -82 -116 -205 -129 -260 -4 -18 -6 -33 -3 -33 2 0
31 56 63 125 32 68 75 152 94 185 19 33 33 60 31 60 -2 0 -27 -35 -56 -77z"/>
<path d="M3479 3928 c-32 -45 -142 -258 -136 -265 2 -2 28 42 58 97 30 56 68
126 86 155 38 66 35 71 -8 13z"/>
<path d="M3545 3901 c-32 -38 -68 -88 -82 -112 -24 -42 -46 -99 -38 -99 2 0
36 53 77 118 40 64 75 119 78 122 14 13 32 40 27 40 -3 0 -31 -31 -62 -69z"/>
<path d="M4612 3845 c57 -135 83 -175 67 -106 -11 49 -67 164 -98 201 -13 16
-3 -17 31 -95z"/>
<path d="M4655 3905 c14 -33 42 -97 62 -143 38 -87 53 -108 53 -70 0 27 -96
224 -123 253 -15 16 -13 8 8 -40z"/>
<path d="M4720 3948 c0 -16 87 -237 108 -274 19 -33 15 8 -9 78 -25 74 -98
220 -99 196z"/>
<path d="M3147 3922 c-19 -21 -113 -207 -133 -265 -28 -80 -4 -48 45 59 28 60
64 135 80 167 32 61 34 68 8 39z"/>
<path d="M3326 3910 c-31 -38 -132 -216 -141 -250 l-6 -25 20 25 c12 14 41 63
66 110 24 47 56 104 70 128 31 49 27 54 -9 12z"/>
<path d="M4136 3849 c-21 -45 -35 -83 -33 -86 5 -4 59 107 72 146 14 45 -4 17
-39 -60z"/>
<path d="M4276 3915 c-3 -9 -6 -22 -5 -28 0 -7 5 -1 10 12 5 13 8 26 5 28 -2
2 -6 -3 -10 -12z"/>
<path d="M4325 3883 c-15 -119 -16 -128 -7 -113 10 16 25 160 18 160 -3 0 -8
-21 -11 -47z"/>
<path d="M4425 3854 c12 -44 27 -90 33 -104 l11 -25 0 27 c1 29 -41 154 -57
170 -6 6 0 -25 13 -68z"/>
<path d="M3021 3818 c-60 -123 -83 -178 -73 -178 4 0 37 63 74 140 36 77 63
140 58 140 -4 0 -31 -46 -59 -102z"/>
<path d="M4211 3856 c-31 -65 -40 -100 -22 -80 11 12 61 137 57 142 -2 2 -18
-26 -35 -62z"/>
<path d="M4492 3840 c18 -46 34 -78 36 -71 5 15 -36 121 -54 140 -7 8 1 -23
18 -69z"/>
<path d="M4374 3885 c22 -129 28 -159 36 -178 5 -12 9 -17 9 -12 2 24 -31 191
-40 205 -7 11 -8 7 -5 -15z"/>
<path d="M4541 3893 c-1 -17 49 -166 59 -177 5 -5 5 7 0 25 -10 45 -58 167
-59 152z"/>
<path d="M3232 3853 c-24 -36 -115 -203 -109 -203 6 0 59 86 101 163 38 69 41
87 8 40z"/>
<path d="M4250 3810 c-7 -28 -10 -53 -7 -56 2 -3 10 18 17 46 7 28 10 53 7 56
-2 3 -10 -18 -17 -46z"/>
<path d="M4848 3844 c6 -11 26 -74 46 -140 19 -65 35 -107 36 -92 0 33 -64
226 -81 242 -9 8 -9 6 -1 -10z"/>
<path d="M4922 3820 c12 -56 60 -217 74 -245 30 -62 4 75 -32 169 -36 93 -51
120 -42 76z"/>
<path d="M5004 3785 c3 -11 17 -60 32 -110 14 -49 30 -105 36 -122 5 -18 11
-33 15 -33 10 0 -8 88 -32 159 -22 66 -61 147 -51 106z"/>
<path d="M5075 3765 c4 -11 19 -49 32 -85 14 -36 31 -84 39 -108 7 -23 18 -50
23 -60 10 -16 10 -16 11 1 0 32 -49 166 -81 220 -17 29 -28 43 -24 32z"/>
<path d="M6760 3740 c6 -11 13 -20 16 -20 2 0 0 9 -6 20 -6 11 -13 20 -16 20
-2 0 0 -9 6 -20z"/>
<path d="M5170 3730 c0 -10 90 -263 96 -269 14 -13 -10 88 -38 160 -24 65 -57
126 -58 109z"/>
<path d="M3527 3670 c-108 -18 -163 -38 -77 -27 269 34 407 31 575 -14 61 -16
127 -23 280 -29 304 -12 477 -47 758 -151 118 -44 157 -46 61 -3 -138 61 -385
131 -544 152 -41 6 -151 13 -245 17 -93 3 -197 12 -230 20 -33 7 -91 21 -130
30 -108 26 -317 28 -448 5z"/>
<path d="M5265 3665 c30 -94 69 -203 76 -215 18 -28 -2 53 -32 129 -29 73 -58
130 -44 86z"/>
<path d="M3366 3631 c-4 -5 3 -7 14 -4 23 6 26 13 6 13 -8 0 -17 -4 -20 -9z"/>
<path d="M5361 3627 c-1 -15 55 -172 66 -186 2 -2 5 -2 8 1 7 7 -24 103 -52
158 -12 25 -22 37 -22 27z"/>
<path d="M5430 3616 c0 -2 16 -48 36 -102 37 -105 54 -134 54 -95 0 27 -71
201 -82 201 -5 0 -8 -2 -8 -4z"/>
<path d="M5515 3570 c16 -74 49 -165 53 -144 3 20 -41 160 -54 173 -4 3 -3
-10 1 -29z"/>
<path d="M5680 3509 c21 -68 36 -93 25 -40 -8 37 -33 101 -39 101 -2 0 4 -27
14 -61z"/>
<path d="M5561 3556 c-1 -14 70 -206 76 -206 14 0 -10 83 -41 145 -19 39 -35
66 -35 61z"/>
<path d="M5611 3560 c-1 -3 6 -27 15 -55 8 -27 17 -57 19 -65 1 -8 10 -31 18
-50 23 -52 20 -13 -4 61 -19 57 -48 122 -48 109z"/>
<path d="M3260 3541 c8 -6 48 -18 87 -27 72 -16 73 -17 92 -60 30 -67 115
-146 207 -192 292 -147 522 -212 703 -198 115 8 483 70 574 96 72 21 423 135
465 151 52 20 19 29 -109 29 -72 0 -212 9 -312 19 -100 11 -290 22 -422 25
-201 4 -263 9 -380 31 -77 15 -221 40 -320 56 -99 16 -205 36 -235 44 -30 8
-113 16 -185 19 -71 3 -141 8 -155 11 -19 5 -22 4 -10 -4z m590 -96 c80 -13
213 -36 295 -50 117 -20 206 -28 405 -35 140 -5 309 -16 375 -24 66 -9 123
-16 128 -16 4 0 7 -24 7 -52 l0 -53 -153 -38 c-461 -114 -733 -116 -1007 -7
-122 48 -305 137 -320 155 -17 21 8 62 41 69 24 4 29 11 29 34 0 51 -1 51 200
17z"/>
<path d="M6326 3500 c5 -43 10 -58 17 -49 2 2 -2 24 -9 49 l-14 45 6 -45z"/>
<path d="M3029 3490 c-36 -21 -72 -47 -80 -57 -10 -12 -5 -11 18 5 17 12 33
22 36 22 3 0 29 16 58 35 73 48 50 44 -32 -5z"/>
<path d="M3068 3457 c-61 -34 -152 -106 -145 -113 5 -5 207 135 207 142 0 6
-2 5 -62 -29z"/>
<path d="M6275 3458 c8 -42 27 -84 32 -71 2 6 -5 31 -16 55 -15 31 -20 35 -16
16z"/>
<path d="M6211 3457 c-2 -30 30 -156 40 -163 7 -4 8 8 3 31 -10 55 -42 153
-43 132z"/>
<path d="M3310 3455 c1 -28 94 -276 123 -323 46 -78 180 -199 274 -249 135
-71 309 -112 505 -119 155 -5 229 5 423 61 251 73 335 116 532 273 83 66 140
121 86 82 -278 -198 -360 -241 -608 -321 -137 -45 -308 -78 -396 -79 -95 0
-352 54 -459 97 -87 35 -151 78 -242 163 -61 56 -85 88 -121 158 -24 48 -50
105 -57 127 -15 47 -60 144 -60 130z"/>
<path d="M6560 3457 c0 -11 29 -67 35 -67 2 0 2 8 -2 18 -8 22 -33 59 -33 49z"/>
<path d="M3074 3397 c-52 -28 -164 -109 -164 -120 0 -10 37 10 81 44 19 15 59
44 89 63 61 40 57 47 -6 13z"/>
<path d="M6170 3371 c0 -15 40 -164 46 -170 9 -9 3 26 -15 97 -18 70 -31 100
-31 73z"/>
<path d="M6106 3340 c7 -45 74 -263 79 -258 2 2 -4 37 -15 78 -24 94 -72 228
-64 180z"/>
<path d="M6045 3325 c13 -68 65 -246 80 -274 l15 -26 -6 30 c-8 39 -86 299
-91 305 -3 3 -2 -13 2 -35z"/>
<path d="M3024 3291 c-63 -42 -115 -91 -97 -91 11 0 41 23 104 78 14 12 34 29
45 37 39 30 4 13 -52 -24z"/>
<path d="M5664 3264 c36 -37 68 -65 72 -62 9 9 -75 97 -109 115 -21 11 -11 -4
37 -53z"/>
<path d="M5996 3233 c15 -71 67 -248 80 -276 l15 -32 -5 40 c-3 22 -15 72 -27
110 -43 142 -80 235 -63 158z"/>
<path d="M6480 3251 c0 -6 4 -13 10 -16 6 -3 7 1 4 9 -7 18 -14 21 -14 7z"/>
<path d="M5647 3170 c34 -35 65 -61 68 -58 9 9 -58 80 -97 102 -27 16 -21 7
29 -44z"/>
<path d="M2965 3179 c-44 -33 -71 -68 -38 -51 18 10 91 82 82 82 -2 0 -22 -14
-44 -31z"/>
<path d="M2951 3101 c-24 -21 -42 -44 -40 -50 2 -6 26 11 54 39 58 59 49 66
-14 11z"/>
<path d="M5639 3060 c57 -58 81 -73 81 -48 0 19 -98 108 -120 108 -15 0 -6
-14 39 -60z"/>
<path d="M5960 3091 c0 -19 51 -214 61 -231 14 -25 10 1 -21 119 -28 107 -40
141 -40 112z"/>
<path d="M2988 3035 c-31 -24 -62 -55 -69 -67 -9 -19 -5 -17 22 9 19 17 52 47
73 67 54 49 43 45 -26 -9z"/>
<path d="M5900 3034 c1 -36 59 -238 67 -231 2 3 -10 56 -27 119 -30 105 -40
135 -40 112z"/>
<path d="M5632 2928 c51 -68 68 -82 76 -60 3 11 -106 132 -119 132 -6 0 14
-32 43 -72z"/>
<path d="M5851 2975 c-1 -16 62 -226 66 -221 2 2 -7 44 -20 92 -26 92 -45 146
-46 129z"/>
<path d="M2985 2940 c-3 -5 -1 -10 4 -10 6 0 11 5 11 10 0 6 -2 10 -4 10 -3 0
-8 -4 -11 -10z"/>
<path d="M5614 2846 c24 -30 49 -63 54 -73 6 -10 14 -15 18 -11 8 9 -12 41
-62 96 -54 61 -62 52 -10 -12z"/>
<path d="M5821 2854 c0 -11 3 -14 6 -6 3 7 2 16 -1 19 -3 4 -6 -2 -5 -13z"/>
<path d="M5528 2824 c13 -16 47 -63 77 -105 59 -82 92 -110 74 -61 -13 35
-113 156 -146 178 l-27 17 22 -29z"/>
<path d="M3560 2822 c-56 -38 -111 -105 -82 -101 7 1 119 119 111 118 -2 0
-15 -8 -29 -17z"/>
<path d="M5831 2823 c-2 -21 40 -188 49 -197 5 -5 2 22 -7 60 -19 83 -41 154
-42 137z"/>
<path d="M3578 2756 c-39 -37 -98 -118 -98 -135 0 -22 17 -10 39 29 12 22 40
62 62 90 22 27 38 50 36 50 -1 0 -19 -15 -39 -34z"/>
<path d="M6230 2781 c0 -6 4 -13 10 -16 6 -3 7 1 4 9 -7 18 -14 21 -14 7z"/>
<path d="M5500 2767 c8 -7 20 -20 25 -29 29 -47 129 -177 133 -173 12 12 -142
215 -163 215 -5 0 -3 -6 5 -13z"/>
<path d="M3650 2709 c-49 -56 -93 -122 -105 -158 -12 -40 10 -16 69 72 31 45
65 94 77 110 35 46 6 30 -41 -24z"/>
<path d="M4877 2688 c9 -21 21 -38 25 -38 10 0 -2 25 -26 55 -14 17 -14 14 1
-17z"/>
<path d="M4794 2688 c8 -34 45 -98 57 -98 13 0 12 2 -27 66 -24 39 -34 50 -30
32z"/>
<path d="M5491 2660 c100 -131 133 -170 136 -166 9 9 -47 84 -112 151 -65 68
-66 68 -24 15z"/>
<path d="M3701 2648 c-41 -55 -91 -152 -91 -178 0 -22 14 -3 57 80 22 41 50
92 63 113 32 53 17 46 -29 -15z"/>
<path d="M3789 2621 c-49 -77 -102 -201 -85 -201 6 0 128 251 124 255 -2 2
-19 -23 -39 -54z"/>
<path d="M3956 2581 c-20 -38 -45 -98 -56 -132 -23 -71 -23 -69 -12 -69 10 0
20 24 76 169 20 52 35 96 33 98 -2 2 -21 -28 -41 -66z"/>
<path d="M5456 2630 c33 -54 88 -130 91 -126 7 6 -60 108 -82 126 -17 13 -18
13 -9 0z"/>
<path d="M4146 2601 c-24 -46 -59 -202 -48 -213 6 -6 18 28 31 89 12 54 26
109 32 122 15 36 3 37 -15 2z"/>
<path d="M4635 2613 c4 -10 14 -38 22 -63 8 -25 23 -57 34 -70 19 -25 19 -25
0 25 -34 87 -51 125 -57 125 -3 0 -3 -8 1 -17z"/>
<path d="M4730 2622 c0 -17 40 -95 46 -89 6 6 -12 54 -31 80 -8 12 -15 16 -15
9z"/>
<path d="M4431 2493 c-1 -78 3 -134 9 -138 12 -8 12 221 0 250 -5 13 -9 -29
-9 -112z"/>
<path d="M4576 2576 c7 -64 46 -186 51 -164 4 18 -27 142 -46 188 -9 21 -10
16 -5 -24z"/>
<path d="M3856 2563 c-34 -68 -72 -202 -51 -181 8 8 84 228 79 228 -2 0 -14
-21 -28 -47z"/>
<path d="M4031 2530 c-17 -44 -34 -102 -36 -128 -5 -46 -5 -46 19 23 39 114
57 177 53 182 -3 2 -19 -32 -36 -77z"/>
<path d="M4336 2583 c-9 -46 -19 -279 -11 -271 9 9 33 298 24 298 -4 0 -9 -12
-13 -27z"/>
<path d="M4519 2585 c-8 -31 7 -195 20 -208 14 -14 13 5 -3 133 -6 52 -14 86
-17 75z"/>
<path d="M4231 2528 c-21 -105 -23 -127 -16 -157 13 -60 23 -30 27 87 3 64 4
118 2 120 -1 2 -7 -20 -13 -50z"/>
<path d="M5517 2349 c4 -13 8 -18 11 -10 2 7 -1 18 -6 23 -8 8 -9 4 -5 -13z"/>
<path d="M5250 2096 c0 -8 4 -17 9 -20 5 -4 7 3 4 14 -6 23 -13 26 -13 6z"/>
<path d="M4961 1984 c0 -11 3 -14 6 -6 3 7 2 16 -1 19 -3 4 -6 -2 -5 -13z"/>
<path d="M4972 1950 c0 -8 4 -26 8 -40 6 -20 8 -21 8 -5 0 11 -3 29 -8 40 -5
12 -8 14 -8 5z"/>
<path d="M3775 1919 c-4 -6 -5 -12 -2 -15 2 -3 7 2 10 11 7 17 1 20 -8 4z"/>
<path d="M4682 1800 c0 -19 2 -27 5 -17 2 9 2 25 0 35 -3 9 -5 1 -5 -18z"/>
<path d="M3911 1764 c0 -11 3 -14 6 -6 3 7 2 16 -1 19 -3 4 -6 -2 -5 -13z"/>
<path d="M4393 1745 c0 -22 2 -30 4 -17 2 12 2 30 0 40 -3 9 -5 -1 -4 -23z"/>
<path d="M4152 1730 c0 -14 2 -19 5 -12 2 6 2 18 0 25 -3 6 -5 1 -5 -13z"/>
</g>
</svg>
